SplineFontDB: 3.2
FontName: Shakespeare Serif
FullName: Shakespeare Serif
FamilyName: Shakespeare Serif
Weight: Medium
Copyright: Originally traced with Glyphtracer
UComments: "No comments"
Version: 001.000
ItalicAngle: 0
UnderlinePosition: -100
UnderlineWidth: 50
Ascent: 1638
Descent: 410
InvalidEm: 0
LayerCount: 2
Layer: 0 0 "Back" 1
Layer: 1 0 "Fore" 0
XUID: [1021 397 1238052781 15881202]
StyleMap: 0x0000
FSType: 0
OS2Version: 0
OS2_WeightWidthSlopeOnly: 0
OS2_UseTypoMetrics: 1
CreationTime: 1270926697
ModificationTime: 1690536198
OS2TypoAscent: 0
OS2TypoAOffset: 1
OS2TypoDescent: 0
OS2TypoDOffset: 1
OS2TypoLinegap: 184
OS2WinAscent: 0
OS2WinAOffset: 1
OS2WinDescent: 0
OS2WinDOffset: 1
HheadAscent: 0
HheadAOffset: 1
HheadDescent: 0
HheadDOffset: 1
DEI: 91125
Encoding: Custom
Compacted: 1
UnicodeInterp: none
NameList: Adobe Glyph List
DisplaySize: -72
AntiAlias: 1
FitToEm: 1
WinInfo: 0 13 5
BeginChars: 65536 62

StartChar: a
Encoding: 97 97 0
Width: 509
VWidth: 0
Flags: HW
LayerCount: 2
Fore
SplineSet
141.75 480.06 m 0
 177.1875 492.345 193.2525 493.7625 219.7125 485.2575 c 0
 296.73 461.6325 317.0475 409.185 308.07 257.985 c 0
 302.4 167.265 301.9275 168.21 337.365 130.8825 c 0
 359.1 108.2025 359.1 108.2025 359.1 73.71 c 0
 359.1 44.415 357.6825 38.2725 348.2325 29.295 c 0
 320.355 2.835 275.4675 -0.945 235.7775 19.3725 c 0
 210.2625 32.13 188.5275 30.7125 159.2325 14.175 c 0
 138.4425 2.3625 128.52 0 103.4775 0 c 0
 71.82 0 57.1725 6.1425 33.5475 28.35 c 0
 15.5925 45.8325 3.3075 79.38 3.3075 110.0925 c 0
 3.78 149.31 18.4275 169.6275 60.0075 189 c 0
 163.485 237.6675 186.165 252.7875 199.395 282.0825 c 0
 206.4825 298.1475 207.9 308.07 205.5375 327.915 c 0
 201.285 360.045 189.945 378.945 168.21 389.34 c 0
 152.145 396.9 150.255 396.9 130.8825 388.395 c 0
 116.7075 381.78 106.3125 372.8025 96.39 357.21 c 0
 76.545 325.08 31.185 306.18 15.12 322.245 c 0
 6.615 330.75 8.505 363.3525 18.4275 385.0875 c 0
 27.8775 406.35 70.4025 447.93 94.5 460.6875 c 0
 103.4775 465.4125 124.74 473.9175 141.75 480.06 c 0
205.065 197.505 m 0
 200.34 209.79 196.56 212.625 185.6925 212.1525 c 0
 164.43 211.2075 155.925 207.9 135.135 192.78 c 0
 111.0375 175.2975 104.4225 163.485 103.95 138.4425 c 0
 103.95 100.17 147.42 72.2925 177.1875 91.665 c 0
 201.7575 107.73 217.8225 167.265 205.065 197.505 c 0
EndSplineSet
Validated: 524321
EndChar

StartChar: b
Encoding: 98 98 1
Width: 627
VWidth: 0
Flags: HW
LayerCount: 2
Fore
SplineSet
53.865 798.525 m 0
 95.445 808.92 127.575 798.9975 140.3325 772.5375 c 0
 147.42 757.4175 147.8925 749.385 142.695 690.795 c 0
 139.86 655.3575 135.6075 596.295 134.19 559.9125 c 0
 131.355 499.4325 131.8275 492.8175 139.86 482.895 c 0
 153.5625 466.3575 180.0225 464.94 222.075 477.225 c 0
 244.2825 483.84 270.27 488.0925 291.5325 488.0925 c 0
 322.245 488.0925 329.805 486.2025 369.495 466.83 c 0
 412.4925 446.04 414.3825 444.6225 438.48 407.7675 c 0
 471.555 357.6825 479.115 323.19 475.8075 240.975 c 0
 474.39 208.3725 471.0825 174.3525 468.2475 164.9025 c 0
 454.545 119.5425 374.6925 38.745 320.355 16.065 c 0
 292.95 4.2525 284.445 3.3075 205.5375 0.945 c 0
 98.28 -1.89 71.82 2.835 52.92 26.9325 c 0
 41.1075 42.525 40.1625 47.7225 40.1625 84.5775 c 0
 40.635 106.785 42.9975 167.7375 45.8325 219.7125 c 0
 48.6675 276.885 49.14 332.64 46.7775 361.4625 c 0
 44.8875 387.45 41.58 445.5675 40.1625 490.9275 c 0
 38.745 536.2875 36.855 574.56 35.91 575.9775 c 0
 34.965 577.395 31.6575 598.185 28.8225 621.3375 c 0
 25.9875 644.9625 18.4275 676.62 11.8125 692.2125 c 0
 -0.4725 721.98 -3.3075 750.8025 4.725 765.45 c 0
 11.34 777.735 35.91 794.745 53.865 798.525 c 0
243.3375 434.2275 m 0
 231.0525 445.5675 216.8775 444.15 173.4075 429.03 c 0
 150.255 420.525 144.1125 415.8 135.6075 399.735 c 0
 126.1575 381.78 125.2125 374.6925 126.1575 297.2025 c 0
 127.1025 177.66 143.1675 126.1575 188.5275 92.61 c 0
 221.6025 68.04 247.59 60.0075 268.8525 66.6225 c 0
 299.565 77.0175 327.4425 101.5875 346.3425 135.135 c 0
 369.0225 175.77 374.22 196.0875 375.165 248.0625 c 0
 376.11 323.19 352.0125 373.7475 298.62 410.13 c 0
 282.0825 420.9975 263.655 429.975 257.985 429.975 c 0
 252.315 429.975 245.7 431.865 243.3375 434.2275 c 0
EndSplineSet
Validated: 524321
EndChar

StartChar: c
Encoding: 99 99 2
Width: 518
VWidth: 0
Flags: HW
LayerCount: 2
Fore
SplineSet
174.825 477.6975 m 0
 191.3625 491.8725 l 1
 251.8425 489.9825 l 2
 319.8825 488.0925 325.5525 485.73 352.9575 448.4025 c 0
 365.715 430.4475 368.0775 423.36 368.0775 398.3175 c 0
 368.55 369.9675 368.0775 369.0225 354.8475 366.1875 c 0
 346.3425 364.2975 329.805 367.1325 311.3775 372.8025 c 0
 295.3125 378.4725 277.83 382.725 273.105 382.725 c 0
 267.9075 382.725 264.6 386.0325 264.6 391.7025 c 0
 264.6 402.57 255.6225 406.35 230.58 406.35 c 0
 215.9325 406.35 208.845 403.0425 197.505 392.175 c 0
 189.945 384.615 180.0225 378 175.77 378 c 0
 171.045 378 161.1225 366.1875 151.2 348.2325 c 0
 132.7725 315.1575 126.1575 275.94 130.8825 221.13 c 0
 133.245 189.4725 133.7175 189.4725 163.485 159.705 c 0
 204.5925 119.07 239.5575 105.3675 281.61 113.4 c 0
 313.74 119.5425 330.75 114.8175 330.75 100.17 c 0
 330.75 95.9175 334.0575 85.995 337.8375 78.435 c 0
 341.6175 71.3475 344.925 63.315 344.925 60.9525 c 0
 344.925 54.3375 306.6525 18.9 299.565 18.9 c 0
 296.2575 18.9 291.06 14.6475 288.6975 9.9225 c 0
 283.9725 1.89 277.3575 0.945 224.91 0.4725 c 0
 180.9675 0 159.705 1.89 141.2775 7.56 c 0
 119.07 15.12 111.51 20.79 74.655 60.0075 c 0
 69.93 64.7325 55.755 78.9075 42.525 91.665 c 0
 22.2075 111.51 18.9 117.6525 18.4275 134.19 c 0
 17.4825 157.3425 17.01 162.0675 6.1425 208.845 c 0
 -0.945 241.92 -1.4175 246.1725 5.67 263.1825 c 0
 9.9225 273.105 15.12 295.785 17.955 313.2675 c 0
 20.79 332.64 27.405 352.485 34.02 361.935 c 0
 48.195 383.1975 140.3325 463.05 150.255 463.05 c 0
 154.98 463.05 165.8475 469.665 174.825 477.6975 c 0
59.0625 207.4275 m 0
 54.3375 215.46 49.14 213.57 40.635 200.8125 c 0
 25.9875 178.605 33.5475 171.99 51.5025 190.89 c 0
 57.645 197.505 60.9525 204.5925 59.0625 207.4275 c 0
228.69 64.26 m 0
 232.47 73.71 231.0525 75.1275 223.4925 72.2925 c 0
 216.405 69.93 214.9875 56.7 221.6025 56.7 c 0
 223.965 56.7 227.2725 60.0075 228.69 64.26 c 0
EndSplineSet
Validated: 524321
EndChar

StartChar: d
Encoding: 100 100 3
Width: 570
VWidth: 0
Flags: HW
LayerCount: 2
Fore
SplineSet
306.18 762.615 m 0
 323.19 772.065 343.98 772.065 363.825 761.67 c 0
 393.12 747.0225 393.12 746.0775 397.845 451.2375 c 0
 401.1525 216.405 402.57 181.44 411.075 139.3875 c 0
 416.2725 113.4 420.525 77.9625 420.525 60.48 c 0
 420.525 33.5475 418.635 26.9325 408.24 14.6475 c 0
 396.9 0.945 393.5925 0 366.1875 0 c 0
 343.035 0 329.805 3.3075 304.7625 14.6475 c 0
 269.7975 31.185 275.4675 31.185 202.23 11.34 c 0
 175.77 4.2525 166.7925 3.3075 145.0575 8.0325 c 0
 83.6325 20.79 39.2175 57.1725 16.065 112.455 c 0
 3.78 141.75 2.835 148.8375 2.835 207.9 c 0
 2.835 257.5125 4.725 276.885 11.34 295.3125 c 0
 31.185 349.65 87.4125 410.6025 147.8925 442.26 c 0
 177.1875 457.8525 185.22 459.7425 231.525 462.5775 c 0
 267.9075 464.94 286.335 468.2475 295.3125 474.39 c 0
 309.96 483.84 321.3 507.9375 321.3 529.6725 c 0
 321.3 548.1 309.96 619.92 297.2025 684.18 c 0
 285.8625 739.4625 287.7525 752.6925 306.18 762.615 c 0
250.425 423.8325 m 0
 223.4925 434.7 198.45 437.0625 181.44 429.975 c 0
 170.5725 425.7225 137.025 389.34 120.015 363.825 c 0
 106.3125 343.035 93.555 281.61 94.0275 238.6125 c 0
 95.445 138.4425 153.5625 66.6225 233.8875 66.15 c 0
 267.435 66.15 286.8075 76.0725 304.29 102.5325 c 0
 314.2125 117.6525 317.0475 129.9375 321.7725 179.55 c 0
 327.4425 243.81 325.08 323.19 316.1025 350.595 c 0
 305.7075 382.2525 278.775 412.4925 250.425 423.8325 c 0
EndSplineSet
Validated: 524321
EndChar

StartChar: e
Encoding: 101 101 4
Width: 518
VWidth: 0
Flags: HW
LayerCount: 2
Fore
SplineSet
155.925 478.17 m 0
 208.845 494.235 283.5 485.2575 315.63 459.7425 c 0
 325.08 451.71 341.145 435.1725 351.0675 422.415 c 0
 368.55 399.2625 368.55 398.79 367.605 359.5725 c 0
 366.1875 323.6625 365.2425 318.9375 354.375 311.3775 c 0
 340.2 300.9825 315.63 300.0375 210.2625 304.7625 c 0
 135.6075 308.07 134.6625 308.07 118.125 296.73 c 0
 102.06 285.8625 101.5875 284.9175 100.17 249.9525 c 0
 96.39 143.64 177.66 77.49 283.0275 101.5875 c 0
 326.025 111.51 340.2 107.2575 340.2 84.5775 c 0
 340.2 60.0075 317.9925 30.7125 288.225 15.5925 c 0
 266.0175 4.2525 255.6225 2.3625 213.57 0.945 c 0
 168.21 -0.945 163.485 0 135.6075 13.23 c 0
 99.225 30.24 63.7875 61.8975 43.9425 94.9725 c 0
 22.68 131.355 3.78 205.065 3.78 252.315 c 0
 4.2525 291.5325 15.5925 339.255 33.075 373.275 c 0
 44.8875 395.955 96.8625 452.1825 115.29 462.105 c 0
 123.3225 466.3575 141.75 473.445 155.925 478.17 c 0
250.8975 402.0975 m 0
 234.8325 417.69 217.8225 419.58 185.6925 408.24 c 0
 163.485 400.2075 132.3 370.9125 132.3 357.6825 c 0
 132.3 343.035 162.0675 334.0575 205.065 336.8925 c 0
 238.6125 338.7825 243.81 340.2 253.7325 351.54 c 0
 268.38 369.0225 267.435 385.0875 250.8975 402.0975 c 0
EndSplineSet
Validated: 524321
EndChar

StartChar: f
Encoding: 102 102 5
Width: 537
VWidth: 0
Flags: HW
LayerCount: 2
Fore
SplineSet
248.0625 799.9425 m 0
 288.6975 803.7225 308.5425 802.7775 337.8375 795.69 c 0
 356.7375 790.965 368.55 785.295 368.55 781.515 c 0
 368.55 778.2075 372.8025 773.01 378 770.175 c 0
 386.0325 765.9225 387.45 760.2525 387.45 735.6825 c 0
 386.9775 694.575 376.11 683.235 329.805 677.565 c 0
 316.1025 675.675 310.4325 687.015 322.7175 691.2675 c 0
 325.5525 692.2125 324.135 692.685 318.465 691.74 c 0
 313.2675 690.795 305.7075 694.1025 301.455 698.8275 c 0
 290.5875 711.585 239.085 719.6175 208.3725 713.0025 c 0
 168.21 704.4975 155.925 692.685 140.805 649.6875 c 0
 129.9375 617.5575 128.0475 602.4375 126.63 551.88 c 2
 125.2125 491.8725 l 1
 141.75 475.335 l 2
 157.3425 459.7425 160.65 458.325 195.615 456.435 c 0
 216.405 455.0175 235.305 451.71 237.6675 449.3475 c 0
 250.425 436.59 237.195 395.01 220.6575 394.5375 c 0
 158.2875 392.175 128.52 368.0775 127.575 318.9375 c 0
 126.63 284.9175 137.025 128.52 141.2775 112.455 c 0
 143.64 102.5325 154.035 83.6325 164.9025 70.4025 c 0
 187.11 42.0525 188.5275 34.02 172.935 15.5925 c 0
 161.595 2.3625 160.65 2.3625 101.5875 0.4725 c 0
 30.7125 -1.4175 20.79 1.89 16.5375 28.8225 c 0
 13.7025 43.9425 16.065 52.92 28.35 77.9625 c 2
 43.47 108.675 l 1
 43.9425 218.295 l 2
 44.8875 322.7175 44.415 329.3325 34.4925 349.65 c 0
 28.8225 361.4625 18.9 378 12.285 386.9775 c 0
 -3.3075 407.7675 -2.835 414.855 12.7575 437.535 c 0
 21.2625 450.2925 27.405 467.3025 31.185 491.4 c 0
 45.36 581.175 61.8975 649.6875 73.2375 664.335 c 0
 98.7525 697.41 156.3975 752.6925 177.66 764.0325 c 0
 190.4175 770.6475 207.4275 781.0425 214.9875 787.185 c 0
 223.02 792.855 237.6675 798.525 248.0625 799.9425 c 0
EndSplineSet
Validated: 524321
EndChar

StartChar: g
Encoding: 103 103 6
Width: 631
VWidth: 0
Flags: HW
LayerCount: 2
Fore
SplineSet
187.110351562 429.877929688 m 4
 241.919921875 440.745117188 266.017578125 441.690429688 304.762695312 434.602539062 c 4
 320.35546875 431.767578125 354.375 428.932617188 380.362304688 428.459960938 c 4
 455.962890625 426.09765625 468.247070312 414.28515625 442.259765625 367.5078125 c 4
 429.030273438 343.41015625 425.72265625 332.0703125 424.3046875 302.302734375 c 4
 419.580078125 224.8125 369.022460938 165.75 276.412109375 129.3671875 c 4
 258.45703125 122.280273438 226.799804688 121.807617188 226.799804688 127.950195312 c 4
 226.799804688 130.78515625 242.392578125 140.70703125 261.764648438 149.684570312 c 4
 302.872070312 169.057617188 308.0703125 174.254882812 320.827148438 207.330078125 c 4
 332.16796875 235.6796875 334.057617188 294.7421875 324.607421875 319.78515625 c 4
 314.212890625 346.245117188 281.137695312 376.95703125 243.809570312 394.440429688 c 4
 227.745117188 402 222.075195312 402.47265625 200.8125 397.747070312 c 4
 167.264648438 390.1875 159.705078125 384.044921875 141.27734375 346.717773438 c 4
 128.047851562 319.78515625 125.212890625 308.4453125 123.794921875 275.370117188 c 4
 121.432617188 227.647460938 127.102539062 204.022460938 148.837890625 168.112304688 c 4
 157.815429688 152.9921875 165.375 138.817382812 165.375 136.927734375 c 4
 165.375 135.037109375 156.397460938 130.3125 145.530273438 126.532226562 c 4
 134.190429688 122.752929688 116.70703125 114.247070312 106.78515625 107.16015625 c 4
 86.4677734375 93.45703125 80.3251953125 96.29296875 80.3251953125 118.5 c 4
 80.3251953125 125.115234375 70.875 145.432617188 59.0625 162.915039062 c 4
 32.6025390625 203.077148438 26.9326171875 223.8671875 29.294921875 269.700195312 c 4
 31.1845703125 312.224609375 43.9423828125 341.9921875 75.1279296875 375.067382812 c 4
 103.477539062 405.307617188 130.41015625 418.537109375 187.110351562 429.877929688 c 4
57.1728515625 66.9970703125 m 4
 67.5673828125 77.392578125 77.490234375 85.4248046875 79.8525390625 85.4248046875 c 4
 82.21484375 85.4248046875 85.0498046875 77.392578125 86.4677734375 67.4697265625 c 4
 90.7197265625 41.009765625 120.487304688 13.60546875 157.342773438 0.84765625 c 4
 183.330078125 -7.6572265625 199.39453125 -9.0751953125 288.224609375 -10.01953125 c 6
 389.8125 -10.96484375 l 5
 418.162109375 -27.0302734375 l 6
 433.754882812 -36.0078125 454.072265625 -52.072265625 463.049804688 -62.4677734375 c 4
 478.642578125 -79.9501953125 479.587890625 -83.73046875 481.477539062 -118.6953125 c 4
 482.89453125 -150.352539062 481.004882812 -161.692382812 470.610351562 -190.04296875 c 4
 455.490234375 -231.150390625 447.45703125 -243.434570312 415.799804688 -276.509765625 c 4
 389.33984375 -303.442382812 341.6171875 -330.375 319.41015625 -330.375 c 4
 312.322265625 -330.375 294.83984375 -334.627929688 279.719726562 -340.297851562 c 4
 245.700195312 -352.58203125 135.134765625 -358.252929688 93.5546875 -349.747070312 c 4
 61.4248046875 -342.66015625 20.3173828125 -312.419921875 7.5595703125 -286.432617188 c 4
 -1.41796875 -267.059570312 -1.8896484375 -238.709960938 6.142578125 -220.754882812 c 4
 12.7578125 -206.107421875 46.3046875 -165.9453125 74.6552734375 -139.95703125 c 4
 104.89453125 -111.134765625 100.642578125 -92.2353515625 53.392578125 -49.7099609375 c 4
 15.1201171875 -15.6904296875 16.537109375 26.3623046875 57.1728515625 66.9970703125 c 4
326.497070312 -80.4228515625 m 4
 294.83984375 -73.8076171875 231.052734375 -74.2802734375 199.8671875 -81.83984375 c 4
 170.099609375 -89.400390625 125.212890625 -115.387695312 112.455078125 -133.342773438 c 4
 105.83984375 -142.79296875 102.532226562 -156.967773438 100.642578125 -183.900390625 c 4
 98.2802734375 -217.919921875 99.224609375 -223.58984375 111.037109375 -246.7421875 c 4
 124.740234375 -274.620117188 129.46484375 -278.400390625 171.990234375 -292.575195312 c 4
 191.362304688 -299.190429688 212.15234375 -302.025390625 240.502929688 -302.025390625 c 4
 276.884765625 -302.025390625 283.97265625 -300.607421875 305.235351562 -288.322265625 c 4
 334.057617188 -271.78515625 369.022460938 -238.237304688 380.834960938 -216.502929688 c 4
 387.450195312 -204.690429688 389.8125 -190.04296875 389.8125 -161.219726562 c 6
 389.8125 -122.002929688 l 5
 370.440429688 -103.575195312 l 6
 356.737304688 -90.8173828125 343.98046875 -84.2021484375 326.497070312 -80.4228515625 c 4
EndSplineSet
Validated: 524321
EndChar

StartChar: h
Encoding: 104 104 7
Width: 579
VWidth: 0
Flags: HW
LayerCount: 2
Fore
SplineSet
34.965 758.835 m 0
 66.15 772.5375 97.8075 762.615 109.1475 736.155 c 0
 114.345 724.3425 115.29 701.6625 113.4 637.875 c 0
 108.675 474.8625 109.62 455.0175 121.905 443.205 c 0
 136.5525 428.5575 166.32 429.5025 212.625 446.04 c 0
 261.765 463.995 296.73 463.5225 333.585 446.04 c 0
 378.945 423.8325 396.9 386.9775 403.515 302.4 c 0
 410.13 220.6575 421.47 115.29 425.25 96.8625 c 0
 427.6125 86.4675 429.975 67.095 429.975 53.3925 c 0
 429.975 32.13 428.085 27.8775 416.2725 17.4825 c 0
 408.24 10.8675 393.12 4.725 380.835 2.835 c 0
 352.9575 -1.4175 305.235 8.0325 294.3675 19.845 c 0
 286.335 28.8225 286.335 29.7675 295.3125 43.9425 c 0
 321.7725 88.3575 323.6625 95.445 325.08 149.31 c 0
 326.025 178.1325 324.6075 231.9975 321.7725 269.325 c 0
 317.52 327.4425 315.1575 339.255 304.7625 357.21 c 0
 279.72 400.2075 214.515 419.1075 170.5725 395.955 c 0
 143.1675 381.78 123.795 357.21 115.7625 326.025 c 0
 110.0925 305.235 110.0925 284.445 113.8725 209.3175 c 0
 119.07 107.73 122.85 92.61 150.7275 55.2825 c 0
 161.595 41.1075 170.1 27.405 170.1 24.57 c 0
 170.1 21.735 164.43 15.12 157.815 9.9225 c 0
 146.475 0.945 138.915 0 86.94 0 c 0
 32.13 0 28.35 0.4725 21.735 10.395 c 0
 10.8675 25.515 12.285 49.14 26.9325 92.1375 c 2
 39.69 129.9375 l 1
 39.69 297.675 l 2
 40.1625 389.8125 37.8 502.74 34.4925 548.5725 c 0
 29.7675 625.1175 28.35 633.6225 14.6475 663.39 c 0
 6.615 681.345 0 702.6075 0 711.1125 c 0
 0 729.54 15.12 749.8575 34.965 758.835 c 0
EndSplineSet
Validated: 524321
EndChar

StartChar: i
Encoding: 105 105 8
Width: 334
VWidth: 0
Flags: HW
LayerCount: 2
Fore
SplineSet
54.3375 719.6175 m 0
 74.655 725.2875 101.5875 718.2 114.8175 704.025 c 0
 130.41 687.015 130.41 681.8175 117.6525 654.4125 c 0
 106.3125 630.315 84.105 609.525 70.4025 609.525 c 0
 56.7 609.525 39.2175 622.2825 27.8775 640.71 c 0
 19.845 653.94 18.4275 661.0275 21.2625 680.4 c 0
 24.57 703.5525 33.075 713.9475 54.3375 719.6175 c 0
54.81 457.38 m 0
 91.1925 479.5875 111.0375 482.4225 126.1575 467.775 c 0
 140.805 454.545 143.64 426.6675 140.3325 332.64 c 0
 137.4975 241.92 143.1675 133.7175 151.6725 108.675 c 0
 154.98 99.6975 162.0675 84.5775 167.7375 75.6 c 0
 190.4175 39.69 188.5275 17.4825 163.0125 6.615 c 0
 141.75 -1.89 31.185 -2.3625 14.175 6.1425 c 0
 -2.835 14.6475 -3.3075 30.7125 13.7025 53.865 c 0
 43.47 95.9175 51.975 135.6075 51.975 237.195 c 2
 51.975 313.2675 l 1
 33.5475 346.815 l 2
 23.625 365.2425 14.175 386.0325 12.285 393.12 c 0
 6.615 416.745 19.3725 435.645 54.81 457.38 c 0
EndSplineSet
Validated: 524321
EndChar

StartChar: k
Encoding: 107 107 9
Width: 631
VWidth: 0
Flags: HW
LayerCount: 2
Fore
SplineSet
103.95 804.6675 m 0
 126.63 811.755 165.8475 814.59 183.33 809.865 c 0
 190.89 807.5025 193.725 803.7225 192.78 794.2725 c 0
 192.3075 787.6575 194.67 777.2625 197.9775 771.5925 c 0
 201.285 764.505 201.7575 757.89 199.395 752.6925 c 0
 190.4175 735.21 187.11 693.1575 186.165 574.0875 c 0
 185.6925 506.52 184.275 423.8325 183.33 389.8125 c 2
 181.9125 328.3875 l 1
 198.45 324.6075 l 2
 210.735 321.7725 219.24 322.7175 231.525 328.3875 c 0
 295.3125 358.155 309.015 376.5825 304.7625 428.5575 c 0
 301.9275 459.27 302.8725 463.995 312.795 477.225 c 0
 331.695 503.2125 354.8475 511.245 408.24 510.3 c 0
 466.83 509.8275 479.115 504.63 481.005 480.5325 c 0
 481.95 470.61 480.06 459.27 476.7525 455.49 c 0
 471.555 448.875 432.81 429.975 424.7775 429.975 c 0
 414.855 429.975 381.78 404.9325 378 394.5375 c 0
 375.6375 387.9225 369.9675 382.725 365.2425 382.725 c 0
 352.9575 382.2525 338.31 369.0225 324.135 344.4525 c 0
 309.96 319.8825 309.015 308.07 318.9375 281.1375 c 0
 331.2225 246.645 369.0225 184.275 377.5275 184.275 c 0
 379.4175 184.275 385.0875 176.715 390.285 167.7375 c 0
 395.01 158.76 400.68 151.2 402.57 151.2 c 0
 404.46 151.2 410.6025 142.695 415.8 132.3 c 0
 420.9975 121.905 431.3925 110.565 438.48 106.785 c 0
 464.94 93.0825 478.6425 73.2375 481.005 44.8875 c 0
 482.895 23.625 481.95 18.9 475.8075 18.9 c 0
 471.555 18.9 465.885 14.6475 463.05 9.45 c 0
 458.7975 1.89 455.9625 0.945 448.875 4.725 c 0
 443.205 8.0325 438.9525 8.0325 437.0625 4.725 c 0
 433.2825 -1.4175 363.3525 -1.4175 347.76 4.725 c 0
 339.255 8.0325 335.475 12.7575 335.475 20.79 c 0
 335.475 27.405 330.75 36.3825 323.6625 41.58 c 0
 315.63 47.7225 311.85 55.755 311.85 65.205 c 0
 311.85 80.325 306.6525 85.995 282.0825 99.225 c 0
 266.0175 107.73 258.93 122.85 270.7425 122.85 c 0
 282.0825 122.85 283.9725 136.5525 274.05 146.475 c 0
 268.8525 151.6725 264.6 160.1775 264.6 164.9025 c 0
 264.6 170.1 262.2375 175.77 259.4025 177.1875 c 0
 256.5675 179.0775 255.15 186.165 256.095 193.725 c 0
 256.5675 200.8125 254.6775 209.79 251.37 213.57 c 0
 243.3375 223.4925 207.4275 223.02 199.8675 213.0975 c 0
 192.3075 203.175 191.835 140.805 199.395 133.245 c 0
 203.6475 128.9925 204.12 125.2125 199.8675 119.07 c 0
 196.0875 112.455 197.0325 108.2025 206.01 97.8075 c 0
 212.1525 90.72 219.7125 85.05 223.02 85.05 c 0
 226.3275 85.05 234.8325 74.655 241.4475 62.37 c 0
 252.315 42.525 253.26 38.745 247.59 25.515 c 0
 244.2825 17.4825 237.6675 9.45 233.415 7.56 c 0
 229.1625 6.1425 197.505 3.3075 163.485 1.4175 c 0
 96.8625 -1.4175 80.325 1.89 80.325 18.9 c 0
 80.325 24.0975 77.0175 35.4375 72.765 44.415 c 0
 65.205 60.0075 65.205 61.425 74.655 79.8525 c 0
 82.215 94.0275 85.05 108.675 85.5225 133.7175 c 0
 85.995 158.76 88.83 171.99 95.9175 183.8025 c 0
 104.4225 198.45 104.895 202.7025 100.17 225.3825 c 0
 96.39 243.3375 96.39 254.6775 99.6975 263.655 c 0
 106.3125 281.1375 106.785 329.805 100.17 349.65 c 0
 96.8625 358.6275 93.555 379.89 92.61 396.9 c 0
 91.1925 413.91 87.885 439.425 84.5775 453.6 c 0
 81.27 467.775 78.435 512.6625 77.9625 553.2975 c 2
 77.49 626.535 l 1
 60.0075 644.49 l 2
 41.58 662.445 39.2175 668.5875 47.25 673.3125 c 0
 54.81 678.0375 43.47 689.85 34.965 686.5425 c 0
 22.68 681.8175 6.1425 697.41 3.78 715.8375 c 0
 0.4725 743.715 16.065 764.9775 51.975 782.9325 c 0
 68.985 791.4375 92.1375 801.36 103.95 804.6675 c 0
458.325 23.625 m 0
 458.325 26.46 455.9625 28.35 453.1275 28.35 c 0
 450.765 28.35 449.82 26.46 451.2375 23.625 c 0
 452.655 21.2625 455.0175 18.9 456.435 18.9 c 0
 457.38 18.9 458.325 21.2625 458.325 23.625 c 0
224.91 755.5275 m 0
 230.1075 760.2525 235.7775 762.615 237.6675 761.1975 c 0
 242.3925 756.4725 233.415 732.375 226.8 732.375 c 0
 217.35 732.375 216.405 747.0225 224.91 755.5275 c 0
238.6125 139.3875 m 0
 241.92 148.8375 241.92 148.8375 246.645 138.4425 c 0
 250.425 130.41 249.9525 126.1575 244.2825 120.96 c 0
 240.5025 116.7075 236.25 111.0375 234.8325 107.73 c 0
 232.9425 103.005 231.525 103.005 226.3275 107.2575 c 0
 221.6025 111.9825 221.6025 114.8175 227.745 121.4325 c 0
 231.525 126.1575 236.25 134.19 238.6125 139.3875 c 0
EndSplineSet
Validated: 524321
EndChar

StartChar: l
Encoding: 108 108 10
Width: 405
VWidth: 0
Flags: HW
LayerCount: 2
Fore
SplineSet
113.4 829.71 m 0
 122.3775 832.545 130.41 835.38 131.355 835.8525 c 0
 134.19 836.7975 153.09 825.4575 158.2875 820.26 c 0
 176.2425 801.36 181.44 785.7675 180.9675 753.6375 c 0
 180.495 699.7725 179.0775 683.7075 176.2425 678.51 c 0
 174.3525 675.675 171.99 641.655 170.5725 602.4375 c 0
 166.7925 480.5325 167.7375 457.38 176.2425 440.8425 c 0
 185.22 424.305 187.11 389.8125 179.55 385.0875 c 0
 176.715 383.1975 174.3525 360.5175 174.3525 331.695 c 0
 174.3525 303.8175 173.88 259.875 173.88 233.8875 c 0
 173.4075 198.9225 175.2975 182.8575 180.9675 172.4625 c 0
 191.3625 153.09 220.185 122.85 228.2175 122.85 c 0
 239.5575 122.85 255.15 95.9175 255.15 77.0175 c 0
 255.15 51.975 240.5025 25.9875 226.3275 25.515 c 0
 220.185 25.0425 209.3175 24.57 201.7575 24.0975 c 0
 192.78 23.625 187.5825 20.3175 184.275 11.8125 c 0
 180.0225 0.4725 179.0775 0 129.9375 0.4725 c 0
 102.5325 0.945 78.9075 2.835 77.49 5.1975 c 0
 76.545 7.56 66.6225 11.34 56.7 14.175 c 0
 30.7125 21.2625 -4.2525 55.755 3.3075 67.095 c 0
 5.1975 70.4025 9.45 80.7975 11.8125 89.775 c 0
 14.6475 99.6975 21.2625 108.2025 28.35 111.51 c 0
 34.965 114.8175 45.8325 120.015 53.3925 123.3225 c 0
 68.5125 130.41 80.325 163.0125 80.325 198.9225 c 0
 80.325 210.735 83.16 229.1625 86.4675 239.085 c 0
 93.0825 258.4575 92.1375 281.1375 80.7975 348.2325 c 0
 76.0725 376.5825 75.6 455.0175 80.325 524.475 c 0
 81.7425 543.8475 70.4025 620.865 61.425 654.4125 c 0
 51.5025 691.2675 43.47 709.695 27.405 731.9025 c 0
 16.5375 746.55 16.5375 752.22 30.24 772.065 c 0
 50.085 801.8325 68.04 814.1175 113.4 829.71 c 0
154.98 736.155 m 0
 155.925 739.4625 153.5625 741.825 149.31 741.825 c 0
 145.0575 741.825 141.75 738.5175 141.75 734.265 c 0
 141.75 726.2325 152.145 727.65 154.98 736.155 c 0
151.2 366.1875 m 0
 151.2 369.9675 149.31 373.275 146.475 373.275 c 0
 144.1125 373.275 141.75 369.9675 141.75 366.1875 c 0
 141.75 362.4075 144.1125 359.1 146.475 359.1 c 0
 149.31 359.1 151.2 362.4075 151.2 366.1875 c 0
EndSplineSet
Validated: 524321
EndChar

StartChar: m
Encoding: 109 109 11
Width: 863
VWidth: 0
Flags: HW
LayerCount: 2
Fore
SplineSet
250.425 472.9725 m 0
 289.6425 485.73 320.355 481.4775 363.825 456.435 c 0
 428.5575 419.58 432.81 419.58 513.135 455.9625 c 0
 536.2875 466.83 577.395 469.665 612.36 463.05 c 0
 648.27 455.9625 676.1475 435.645 684.6525 409.6575 c 0
 695.52 376.5825 704.97 301.455 706.3875 240.975 c 0
 706.86 206.01 709.2225 147.8925 711.1125 112.455 c 0
 714.42 56.2275 713.9475 46.305 706.86 35.91 c 0
 693.1575 14.6475 673.785 8.0325 631.26 10.395 c 0
 565.11 13.7025 546.6825 34.02 576.9225 69.93 c 0
 601.02 98.7525 604.8 116.7075 607.635 211.68 c 0
 610.47 306.6525 604.3275 346.3425 584.4825 367.605 c 0
 543.8475 411.5475 463.05 403.9875 437.0625 354.375 c 0
 427.14 335.0025 420.525 274.5225 420.525 198.9225 c 0
 420.525 115.29 425.7225 93.0825 453.1275 63.7875 c 0
 474.39 40.635 476.28 33.5475 464.4675 22.68 c 0
 450.765 10.395 420.9975 4.725 371.385 4.725 c 0
 321.3 4.725 292.95 10.8675 280.665 24.0975 c 0
 274.05 31.6575 274.5225 34.02 290.115 55.2825 c 0
 324.135 100.6425 323.6625 99.225 322.245 217.35 c 0
 320.8275 316.575 319.8825 325.08 309.4875 348.2325 c 0
 296.73 376.5825 285.39 385.0875 248.535 394.5375 c 0
 209.3175 404.9325 183.8025 403.515 164.9025 390.7575 c 0
 133.7175 369.9675 129.465 357.6825 122.85 275.4675 c 0
 113.4 149.31 120.4875 89.775 148.8375 66.15 c 0
 153.09 62.8425 159.705 53.865 163.485 46.305 c 0
 170.5725 33.075 170.1 32.13 154.5075 16.5375 c 2
 137.97 0 l 1
 89.775 0 l 1
 41.58 0 l 1
 25.515 16.065 l 2
 11.8125 29.7675 10.395 33.5475 14.175 45.36 c 0
 16.5375 52.92 22.2075 84.105 26.46 115.29 c 0
 33.5475 163.485 34.02 180.495 29.295 239.085 c 0
 25.9875 281.1375 21.2625 311.85 17.01 320.8275 c 0
 12.7575 328.3875 7.0875 349.65 3.78 367.605 c 0
 -1.4175 398.3175 -0.945 401.1525 9.9225 420.9975 c 0
 32.13 462.105 85.995 475.8075 130.8825 452.1825 c 0
 161.595 436.59 165.375 436.59 197.9775 452.1825 c 0
 212.625 458.7975 236.25 468.2475 250.425 472.9725 c 0
EndSplineSet
Validated: 524321
EndChar

StartChar: n
Encoding: 110 110 12
Width: 570
VWidth: 0
Flags: HW
LayerCount: 2
Fore
SplineSet
240.5025 467.775 m 0
 303.345 478.17 348.705 461.6325 375.165 418.635 c 0
 390.7575 392.6475 393.12 377.5275 396.9 259.875 c 0
 400.2075 169.6275 403.515 135.6075 411.075 104.895 c 0
 424.7775 48.6675 423.8325 33.075 405.8775 16.065 c 0
 391.7025 2.835 390.7575 2.3625 340.6725 2.3625 c 0
 300.51 2.835 286.8075 4.2525 277.3575 10.8675 c 0
 261.765 21.2625 261.2925 29.295 275.94 48.6675 c 0
 282.0825 57.1725 292.005 73.2375 298.1475 85.05 c 0
 309.015 105.3675 309.4875 111.0375 309.4875 191.3625 c 0
 309.015 333.585 303.8175 355.32 259.875 385.0875 c 0
 240.975 397.845 234.8325 399.2625 204.5925 398.79 c 0
 136.08 397.845 111.51 368.55 104.4225 278.3025 c 0
 99.225 215.9325 105.3675 120.015 115.7625 89.775 c 0
 119.5425 78.9075 130.41 61.425 139.3875 51.5025 c 0
 172.935 14.175 154.035 0 69.93 0 c 0
 29.295 0 22.2075 1.4175 13.7025 9.9225 c 0
 2.3625 21.2625 2.835 37.3275 16.065 84.5775 c 0
 33.5475 146.475 29.295 311.3775 8.9775 367.605 c 0
 4.2525 381.3075 0 398.3175 0 405.405 c 0
 0 421.47 18.9 442.7325 44.415 454.0725 c 0
 74.1825 467.775 86.94 465.885 110.565 444.15 c 0
 121.905 433.755 133.7175 425.25 137.025 425.25 c 0
 140.805 425.25 160.1775 433.755 180.9675 444.6225 c 0
 201.7575 455.49 228.69 465.885 240.5025 467.775 c 0
EndSplineSet
Validated: 524321
EndChar

StartChar: o
Encoding: 111 111 13
Width: 603
VWidth: 0
Flags: HW
LayerCount: 2
Fore
SplineSet
164.43 447.4575 m 0
 190.89 456.9075 202.7025 458.325 238.6125 456.9075 c 0
 274.995 455.49 287.28 452.1825 322.245 437.0625 c 0
 356.7375 422.415 368.55 414.3825 390.7575 390.285 c 0
 438.0075 339.7275 453.6 299.0925 453.6 227.2725 c 0
 453.6 184.7475 451.71 172.4625 440.8425 144.1125 c 0
 418.1625 83.6325 381.78 42.9975 328.3875 18.4275 c 0
 298.1475 4.2525 290.5875 2.835 239.085 0.945 c 0
 159.2325 -1.89 108.675 11.34 64.7325 47.7225 c 0
 15.12 88.83 -14.175 204.12 7.0875 276.4125 c 0
 31.185 360.5175 85.995 420.0525 164.43 447.4575 c 0
278.775 373.275 m 0
 258.4575 386.505 249.48 389.8125 225.3825 390.7575 c 0
 192.3075 392.175 181.44 388.8675 155.4525 368.0775 c 0
 110.0925 332.1675 89.3025 229.635 112.9275 155.925 c 0
 138.4425 74.655 223.965 32.13 284.445 70.4025 c 0
 309.96 86.94 320.355 101.115 336.8925 142.695 c 0
 351.0675 179.0775 356.265 231.0525 348.705 266.49 c 0
 341.145 302.4 307.5975 353.9025 278.775 373.275 c 0
EndSplineSet
Validated: 524321
EndChar

StartChar: p
Encoding: 112 112 14
Width: 608
VWidth: 0
Flags: HW
LayerCount: 2
Fore
SplineSet
92.1376953125 469.129882812 m 4
 100.169921875 471.4921875 110.092773438 473.85546875 114.817382812 474.327148438 c 4
 128.047851562 475.272460938 158.287109375 457.790039062 167.264648438 444.559570312 c 4
 176.71484375 429.912109375 188.52734375 428.967773438 204.120117188 441.724609375 c 4
 210.735351562 446.450195312 225.3828125 453.537109375 236.72265625 456.372070312 c 4
 271.21484375 465.822265625 293.89453125 463.459960938 324.134765625 446.922851562 c 4
 339.727539062 438.889648438 357.209960938 429.912109375 363.825195312 427.549804688 c 4
 385.559570312 418.572265625 420.997070312 386.442382812 439.897460938 359.037109375 c 6
 458.325195312 331.6328125 l 5
 458.325195312 275.877929688 l 6
 458.325195312 245.165039062 455.962890625 213.98046875 453.127929688 206.892578125 c 4
 444.622070312 185.629882812 429.502929688 151.610351562 424.77734375 143.10546875 c 4
 422.415039062 138.379882812 420.525390625 132.237304688 420.525390625 129.40234375 c 4
 420.525390625 126.094726562 409.657226562 111.919921875 396.427734375 97.2724609375 c 4
 383.197265625 82.625 369.495117188 67.5048828125 365.71484375 63.2529296875 c 4
 361.934570312 59 345.397460938 52.857421875 329.33203125 49.5498046875 c 4
 294.3671875 42.462890625 264.127929688 33.0126953125 245.700195312 23.5625 c 4
 228.217773438 14.5849609375 212.625 14.5849609375 212.625 23.5625 c 4
 212.625 31.5947265625 200.33984375 33.0126953125 196.087890625 25.4521484375 c 4
 194.197265625 23.08984375 187.58203125 18.837890625 181.440429688 16.474609375 c 4
 174.825195312 13.6396484375 169.155273438 7.025390625 167.737304688 -1.0078125 c 4
 166.3203125 -8.0947265625 163.485351562 -23.6875 161.122070312 -35.5 c 4
 157.342773438 -53.455078125 154.5078125 -96.4521484375 154.5078125 -137.087890625 c 4
 154.5078125 -142.28515625 156.870117188 -153.625 160.177734375 -161.657226562 c 4
 171.990234375 -196.622070312 176.2421875 -208.907226562 183.330078125 -230.169921875 c 4
 187.58203125 -242.927734375 193.724609375 -252.849609375 197.032226562 -252.849609375 c 4
 200.33984375 -252.849609375 205.065429688 -257.102539062 207.900390625 -262.299804688 c 4
 212.625 -270.8046875 212.15234375 -271.27734375 201.28515625 -266.552734375 c 4
 186.637695312 -259.46484375 159.232421875 -270.33203125 163.485351562 -281.200195312 c 4
 164.90234375 -284.98046875 166.3203125 -290.177734375 166.79296875 -293.012695312 c 4
 168.209960938 -301.517578125 193.724609375 -303.879882812 208.372070312 -296.79296875 c 4
 215.932617188 -293.012695312 222.075195312 -287.815429688 222.075195312 -285.452148438 c 4
 222.075195312 -283.08984375 224.4375 -281.200195312 226.799804688 -281.200195312 c 4
 234.83203125 -281.200195312 231.997070312 -289.232421875 217.822265625 -304.352539062 c 6
 204.120117188 -319 l 5
 138.442382812 -318.52734375 l 6
 49.1396484375 -318.0546875 25.04296875 -314.275390625 10.8671875 -298.209960938 c 4
 4.2529296875 -290.650390625 0 -279.309570312 0 -270.33203125 c 4
 0 -255.684570312 18.427734375 -221.192382812 42.052734375 -190.48046875 c 4
 64.259765625 -162.602539062 64.732421875 -155.04296875 64.732421875 4.662109375 c 4
 64.732421875 87.822265625 63.3154296875 160.587890625 60.9521484375 166.73046875 c 4
 58.58984375 173.344726562 59.0625 185.629882812 62.3701171875 198.387695312 c 4
 67.0947265625 214.924804688 66.6220703125 226.264648438 61.8974609375 251.307617188 c 4
 58.58984375 269.262695312 55.2822265625 294.3046875 54.8095703125 307.0625 c 4
 53.865234375 320.29296875 51.5029296875 334.940429688 48.66796875 340.137695312 c 4
 41.580078125 353.3671875 36.3828125 422.352539062 41.580078125 439.362304688 c 4
 44.4150390625 449.7578125 50.0849609375 454.955078125 61.8974609375 458.735351562 c 4
 70.875 461.5703125 84.5771484375 466.294921875 92.1376953125 469.129882812 c 4
265.072265625 388.8046875 m 4
 204.592773438 400.6171875 204.592773438 400.6171875 197.977539062 392.112304688 c 4
 194.197265625 387.860351562 182.857421875 374.157226562 171.990234375 362.344726562 c 4
 145.530273438 331.6328125 135.134765625 308.0078125 139.387695312 286.745117188 c 4
 141.75 276.822265625 142.6953125 239.022460938 142.22265625 202.16796875 c 6
 140.8046875 134.599609375 l 5
 162.540039062 109.084960938 l 6
 174.352539062 95.3828125 184.275390625 81.20703125 184.275390625 77.427734375 c 4
 184.275390625 72.7021484375 191.834960938 70.33984375 211.6796875 69.8671875 c 4
 226.327148438 68.9228515625 243.337890625 66.087890625 248.53515625 63.2529296875 c 4
 262.709960938 56.1650390625 295.78515625 74.5927734375 312.794921875 99.634765625 c 4
 343.03515625 143.10546875 372.802734375 226.737304688 363.825195312 242.802734375 c 4
 361.462890625 248 359.099609375 262.174804688 359.099609375 274.459960938 c 4
 359.099609375 302.809570312 346.342773438 330.21484375 317.9921875 359.509765625 c 4
 298.620117188 380.299804688 292.950195312 383.134765625 265.072265625 388.8046875 c 4
EndSplineSet
Validated: 524321
EndChar

StartChar: r
Encoding: 114 114 15
Width: 400
VWidth: 0
Flags: HW
LayerCount: 2
Fore
SplineSet
222.075 464.4675 m 0
 233.8875 468.72 236.7225 465.885 243.81 446.5125 c 0
 252.7875 419.58 252.315 390.7575 241.92 381.3075 c 0
 230.58 370.9125 180.9675 363.825 149.7825 368.0775 c 2
 123.795 371.385 l 1
 115.7625 343.035 l 2
 104.895 304.7625 101.115 242.3925 108.2025 214.9875 c 0
 111.0375 202.7025 115.7625 177.66 118.125 158.76 c 0
 123.3225 116.7075 141.75 78.435 161.1225 68.5125 c 0
 171.99 62.37 174.825 58.1175 174.825 45.36 c 0
 174.825 14.6475 144.585 0 81.27 0 c 0
 35.4375 0 34.4925 0.4725 19.845 14.6475 c 0
 -1.4175 35.4375 -3.78 48.195 10.395 69.93 c 0
 31.6575 101.5875 33.075 113.4 33.075 233.415 c 2
 33.075 347.76 l 1
 16.5375 363.3525 l 2
 3.3075 375.6375 0 382.2525 0 396.9 c 0
 0 411.5475 2.3625 416.745 10.8675 420.9975 c 0
 16.5375 424.305 23.1525 429.5025 25.0425 432.81 c 0
 26.9325 436.59 31.6575 439.425 35.4375 439.425 c 0
 39.2175 439.425 43.9425 442.7325 46.305 446.985 c 0
 48.6675 450.765 59.0625 455.49 69.4575 456.9075 c 0
 84.5775 458.7975 92.1375 456.9075 107.73 446.985 c 0
 118.5975 440.37 130.8825 434.7 134.6625 434.7 c 0
 138.915 434.7 158.2875 440.8425 178.605 448.4025 c 0
 198.45 455.9625 218.295 463.05 222.075 464.4675 c 0
EndSplineSet
Validated: 524321
EndChar

StartChar: s
Encoding: 115 115 16
Width: 433
VWidth: 0
Flags: HW
LayerCount: 2
Fore
SplineSet
109.62 451.2375 m 0
 138.915 464.94 134.6625 463.5225 143.64 460.215 c 0
 147.8925 458.7975 151.2 455.0175 151.2 452.1825 c 0
 151.2 444.15 136.08 429.975 127.1025 429.975 c 0
 120.96 429.975 118.125 424.7775 115.29 408.7125 c 0
 113.8725 396.9 108.2025 379.4175 103.4775 369.9675 c 0
 91.665 347.2875 92.1375 345.87 109.1475 319.8825 c 0
 120.4875 302.4 126.63 297.675 137.025 297.675 c 0
 158.76 297.675 260.3475 214.9875 275.94 184.275 c 0
 278.775 177.66 282.0825 154.5075 283.0275 132.3 c 0
 283.9725 94.0275 283.5 91.1925 269.325 69.93 c 0
 249.9525 40.635 214.0425 9.45 200.34 9.45 c 0
 194.67 9.45 188.055 7.0875 186.6375 4.725 c 0
 182.8575 -1.4175 153.09 -1.4175 142.2225 4.725 c 0
 137.025 7.56 123.795 7.56 108.2025 4.725 c 0
 74.655 -0.4725 54.81 9.45 53.865 32.13 c 0
 53.3925 40.1625 50.5575 50.085 47.25 54.3375 c 0
 42.525 60.48 42.9975 61.425 50.5575 61.425 c 0
 55.755 61.425 61.425 60.0075 63.315 58.1175 c 0
 65.205 56.2275 72.2925 54.81 79.38 54.3375 c 0
 90.2475 54.3375 92.61 51.975 94.5 38.2725 c 0
 96.8625 24.0975 98.7525 22.2075 114.345 20.79 c 0
 136.08 18.9 157.815 34.02 154.035 48.6675 c 0
 153.09 53.3925 153.5625 61.425 155.925 65.6775 c 0
 158.2875 69.93 163.485 83.16 167.265 95.9175 c 0
 177.1875 128.0475 171.045 143.1675 139.86 161.1225 c 0
 108.2025 179.0775 27.405 257.04 15.12 281.1375 c 0
 -1.89 316.1025 -2.3625 327.915 13.7025 356.265 c 0
 21.735 369.9675 31.6575 384.1425 35.4375 387.45 c 0
 39.2175 390.7575 42.525 397.3725 42.525 402.57 c 0
 42.525 412.965 68.04 439.425 77.9625 439.425 c 0
 81.27 439.425 95.445 444.6225 109.62 451.2375 c 0
189 441.7875 m 0
 189 446.04 191.835 447.4575 196.0875 446.04 c 0
 199.8675 444.15 203.175 441.315 203.175 438.9525 c 0
 203.175 436.59 199.8675 434.7 196.0875 434.7 c 0
 192.3075 434.7 189 438.0075 189 441.7875 c 0
205.5375 423.36 m 0
 221.13 434.7 226.8 431.865 221.6025 415.8 c 0
 215.9325 400.2075 204.5925 396.9 199.8675 409.185 c 0
 197.9775 414.3825 200.34 419.58 205.5375 423.36 c 0
226.8 394.5375 m 0
 226.8 398.3175 230.1075 401.625 233.8875 401.625 c 0
 237.6675 401.625 240.975 399.735 240.975 397.3725 c 0
 240.975 395.01 237.6675 392.175 233.8875 390.285 c 0
 229.635 388.8675 226.8 390.285 226.8 394.5375 c 0
15.5925 96.39 m 0
 24.57 110.0925 33.075 108.675 33.075 94.0275 c 0
 33.075 88.83 34.965 80.325 37.8 75.6 c 0
 41.1075 68.985 40.1625 62.8425 34.02 52.4475 c 0
 25.0425 36.3825 22.2075 34.965 15.12 43.9425 c 0
 6.615 54.3375 7.0875 82.6875 15.5925 96.39 c 0
103.95 42.525 m 0
 112.9275 48.195 116.7075 48.195 120.4875 42.9975 c 0
 124.2675 36.3825 114.345 31.6575 104.895 35.4375 c 0
 98.28 37.8 98.28 38.745 103.95 42.525 c 0
EndSplineSet
Validated: 524321
EndChar

StartChar: t
Encoding: 116 116 17
Width: 367
VWidth: 0
Flags: HW
LayerCount: 2
Fore
SplineSet
50.085 481.005 m 0
 69.93 499.905 78.9075 498.96 93.555 477.225 c 0
 105.3675 459.7425 115.29 455.0175 142.2225 454.0725 c 0
 151.6725 453.6 164.9025 449.3475 171.5175 444.15 c 0
 178.1325 438.9525 185.22 434.7 188.055 434.7 c 0
 196.0875 434.7 208.845 416.2725 206.01 408.24 c 0
 203.6475 402.0975 201.7575 401.625 196.56 405.8775 c 0
 188.5275 412.4925 171.5175 403.9875 167.265 391.23 c 0
 165.8475 386.9775 158.2875 380.835 149.7825 378 c 0
 132.7725 372.33 112.455 355.7925 104.895 342.09 c 0
 102.06 336.8925 101.115 320.355 102.5325 304.7625 c 0
 103.95 289.17 102.5325 257.985 100.17 235.305 c 0
 94.9725 196.0875 95.445 192.78 109.1475 149.31 c 0
 120.015 113.4 126.1575 102.06 137.025 93.555 c 0
 144.585 87.885 152.145 79.38 154.035 74.655 c 0
 157.3425 64.26 163.9575 63.7875 184.275 73.71 c 0
 203.6475 83.6325 214.515 77.9625 216.405 57.1725 c 0
 217.8225 45.36 214.515 38.745 201.7575 25.9875 c 0
 181.44 5.67 175.77 5.1975 169.6275 23.625 c 0
 165.375 34.965 163.0125 36.855 155.925 33.075 c 0
 151.6725 30.7125 146.475 22.2075 145.0575 14.175 c 0
 142.2225 0.4725 141.2775 0 113.4 0 c 0
 78.9075 0 62.37 7.56 45.8325 31.6575 c 0
 25.515 61.425 22.2075 75.1275 19.845 146.475 c 0
 16.065 262.2375 16.5375 277.3575 22.68 284.9175 c 0
 29.7675 292.95 25.515 357.21 17.01 368.55 c 0
 -6.615 400.2075 -6.615 428.5575 17.01 449.82 c 0
 26.46 458.325 41.1075 472.5 50.085 481.005 c 0
EndSplineSet
Validated: 524321
EndChar

StartChar: u
Encoding: 117 117 18
Width: 523
VWidth: 0
Flags: HW
LayerCount: 2
Fore
SplineSet
29.295 457.8525 m 0
 56.2275 474.8625 77.0175 468.2475 91.665 437.0625 c 0
 98.28 423.8325 99.6975 408.7125 98.7525 367.1325 c 0
 98.28 337.8375 97.8075 273.105 98.28 222.5475 c 0
 98.7525 133.7175 99.225 130.8825 111.0375 110.565 c 0
 117.6525 99.225 125.2125 89.775 128.0475 89.775 c 0
 130.41 89.775 134.6625 84.5775 137.4975 78.435 c 0
 145.53 61.425 176.715 58.59 215.46 72.2925 c 0
 244.2825 82.215 246.1725 83.6325 253.26 103.95 c 0
 257.04 115.7625 264.6 133.7175 269.7975 144.1125 c 0
 277.3575 159.705 278.775 172.935 278.775 224.4375 c 0
 278.775 258.4575 276.4125 300.9825 273.5775 318.9375 c 0
 271.215 337.365 267.9075 364.77 266.49 380.3625 c 0
 265.0725 395.955 260.3475 415.8 256.095 424.7775 c 2
 248.535 440.37 l 1
 263.655 454.0725 l 2
 284.445 472.5 309.4875 472.9725 329.3325 455.0175 c 0
 361.4625 425.7225 367.1325 395.01 360.045 276.4125 c 0
 356.7375 217.35 357.21 195.615 361.935 174.825 c 0
 370.44 141.2775 375.6375 64.7325 371.385 37.3275 c 0
 367.1325 9.9225 351.0675 0 310.4325 0 c 0
 284.445 0 278.3025 1.89 257.985 16.5375 c 0
 230.58 35.91 211.2075 37.8 179.55 23.1525 c 0
 134.6625 2.3625 77.49 -6.615 56.7 4.725 c 0
 51.975 7.0875 40.635 19.845 31.6575 32.6025 c 0
 16.065 53.865 14.175 60.48 9.45 104.895 c 0
 4.725 151.2 2.3625 403.0425 6.615 416.2725 c 0
 7.56 420.0525 9.9225 428.5575 11.34 435.1725 c 0
 12.7575 442.26 20.79 452.1825 29.295 457.8525 c 0
EndSplineSet
Validated: 524321
EndChar

StartChar: v
Encoding: 118 118 19
Width: 542
VWidth: 0
Flags: HW
LayerCount: 2
Fore
SplineSet
304.29 488.0925 m 0
 328.86 494.7075 362.88 495.6525 381.78 489.51 c 0
 390.7575 486.2025 392.175 482.895 392.175 457.8525 c 0
 392.175 436.59 389.8125 427.6125 383.1975 420.9975 c 0
 370.44 408.24 347.2875 358.155 335.0025 316.575 c 0
 329.3325 297.2025 319.8825 271.6875 313.74 259.875 c 0
 301.455 235.7775 290.115 205.5375 281.1375 174.825 c 0
 277.83 163.0125 268.38 139.86 260.3475 122.85 c 0
 252.315 105.84 245.7 86.4675 245.7 79.38 c 0
 245.7 72.2925 243.81 65.205 240.975 63.7875 c 0
 238.6125 62.37 236.25 54.81 236.25 47.7225 c 0
 236.25 28.35 223.02 5.1975 210.2625 1.89 c 0
 184.275 -4.725 150.7275 38.745 133.245 101.5875 c 0
 128.0475 120.015 120.4875 144.1125 115.7625 155.925 c 0
 111.51 167.7375 104.4225 189 99.6975 203.175 c 0
 94.9725 217.35 86.4675 238.14 81.27 249.0075 c 0
 75.6 259.875 70.875 274.5225 70.875 281.1375 c 0
 70.875 287.7525 65.6775 302.8725 59.0625 315.1575 c 0
 42.525 347.76 28.35 380.3625 28.35 386.505 c 0
 28.35 389.34 24.57 394.065 19.845 396.4275 c 0
 8.9775 402.0975 -1.89 434.7 2.3625 448.875 c 0
 8.0325 467.3025 51.5025 482.895 105.3675 485.73 c 0
 145.0575 487.62 152.6175 486.675 160.65 479.5875 c 0
 172.935 468.2475 172.4625 464.94 155.925 429.03 c 2
 141.2775 398.3175 l 1
 148.365 360.99 l 2
 163.0125 282.555 187.5825 226.8 208.3725 226.8 c 0
 221.6025 226.8 245.7 242.3925 245.7 251.37 c 0
 245.7 255.6225 248.0625 260.82 250.8975 262.2375 c 0
 261.2925 268.8525 280.1925 316.575 277.3575 330.2775 c 0
 275.94 337.365 276.885 345.87 279.72 348.705 c 0
 282.0825 351.0675 286.335 363.825 288.6975 376.11 c 0
 292.4775 396.9 291.5325 400.68 275.94 429.03 c 2
 258.93 459.27 l 1
 269.7975 470.1375 l 2
 275.94 476.28 291.5325 484.3125 304.29 488.0925 c 0
EndSplineSet
Validated: 524321
EndChar

StartChar: w
Encoding: 119 119 20
Width: 830
VWidth: 0
Flags: HW
LayerCount: 2
Fore
SplineSet
617.085 477.6975 m 0
 639.2925 481.95 664.8075 479.5875 673.785 472.0275 c 0
 683.7075 463.995 681.8175 436.59 669.06 401.625 c 0
 630.315 295.3125 595.35 176.715 595.35 149.7825 c 0
 594.8775 127.1025 573.615 58.59 561.33 41.1075 c 0
 547.155 21.2625 533.4525 9.9225 523.0575 9.45 c 0
 505.575 9.45 478.17 47.25 460.6875 96.8625 c 0
 421.9425 203.6475 397.3725 260.82 377.055 289.6425 c 0
 352.9575 323.6625 322.245 289.6425 304.7625 210.2625 c 0
 300.0375 189.4725 292.4775 163.9575 288.225 153.5625 c 0
 283.5 143.1675 278.3025 127.1025 276.4125 118.125 c 0
 271.215 93.0825 236.7225 12.7575 227.745 5.67 c 0
 223.4925 2.835 214.515 0 207.4275 0 c 0
 181.9125 0 164.9025 30.24 106.3125 181.9125 c 0
 94.5 213.0975 69.93 268.8525 51.5025 306.18 c 0
 33.5475 343.035 14.6475 386.0325 9.45 401.625 c 0
 0.4725 427.6125 0.4725 431.3925 7.0875 443.6775 c 0
 16.065 461.6325 38.2725 468.72 82.215 468.72 c 0
 118.5975 468.2475 151.2 458.7975 151.2 447.93 c 0
 151.2 444.6225 146.9475 430.4475 141.75 416.745 c 0
 130.41 386.9775 129.9375 369.0225 139.86 329.805 c 0
 148.8375 294.3675 182.385 209.79 193.2525 195.1425 c 0
 197.505 189.4725 206.01 182.385 212.625 179.55 c 0
 223.02 174.3525 225.855 175.77 240.975 192.3075 c 0
 252.315 204.12 265.0725 228.2175 278.775 262.2375 c 0
 297.675 309.4875 300.0375 318.465 301.455 363.3525 c 0
 303.345 407.7675 302.4 413.4375 292.95 426.195 c 0
 286.335 435.1725 283.5 444.15 285.39 450.765 c 0
 290.115 470.1375 308.07 474.8625 377.5275 474.8625 c 0
 475.335 474.8625 482.895 470.1375 458.325 424.305 c 0
 440.8425 390.7575 440.8425 384.1425 456.435 334.53 c 0
 481.005 256.5675 517.86 193.725 538.1775 193.725 c 0
 542.9025 193.725 551.88 202.23 558.9675 213.0975 c 0
 582.5925 249.0075 599.13 370.9125 589.2075 432.3375 c 0
 584.4825 461.6325 590.625 472.0275 617.085 477.6975 c 0
EndSplineSet
Validated: 524321
EndChar

StartChar: x
Encoding: 120 120 21
Width: 561
VWidth: 0
Flags: HW
LayerCount: 2
Fore
SplineSet
303.345 451.2375 m 0
 317.52 465.4125 320.355 466.3575 352.9575 466.3575 c 0
 371.8575 466.3575 388.8675 464.94 390.285 462.5775 c 0
 391.7025 460.215 396.9 458.325 402.0975 458.325 c 0
 409.6575 458.325 411.075 455.0175 411.075 439.425 c 0
 411.075 422.8875 407.7675 417.2175 391.23 399.735 c 0
 379.89 388.8675 360.99 372.8025 348.705 364.77 c 0
 321.3 345.87 291.06 302.4 291.5325 281.61 c 0
 292.005 203.175 293.4225 194.1975 308.5425 171.5175 c 0
 316.575 159.2325 336.8925 136.08 352.9575 120.015 c 0
 374.22 99.6975 382.725 88.3575 382.725 79.38 c 0
 382.725 63.315 394.5375 52.92 400.68 64.26 c 0
 403.515 69.4575 406.35 70.4025 408.24 67.095 c 0
 412.4925 60.0075 398.3175 38.745 386.9775 35.4375 c 0
 382.2525 33.5475 373.7475 33.5475 368.55 35.4375 c 0
 362.4075 37.3275 356.7375 34.965 351.0675 27.8775 c 0
 331.695 4.2525 325.5525 0 309.96 0 c 0
 301.455 0 288.6975 4.2525 282.0825 9.9225 c 0
 274.995 15.12 266.0175 18.9 261.2925 17.955 c 0
 254.6775 17.01 252.315 21.2625 249.0075 39.2175 c 0
 245.2275 59.0625 245.7 63.315 254.205 72.2925 c 0
 270.7425 90.72 274.5225 102.06 268.8525 115.29 c 0
 265.545 121.905 259.4025 128.52 254.205 129.9375 c 0
 249.48 131.8275 245.7 136.08 245.7 139.3875 c 0
 245.7 143.1675 240.975 151.6725 234.8325 158.76 c 0
 220.185 175.2975 197.505 171.5175 189 150.7275 c 0
 183.33 137.97 178.1325 135.135 153.5625 131.355 c 0
 146.0025 129.9375 143.1675 124.2675 139.86 105.3675 c 0
 136.08 84.105 137.025 79.38 146.0025 68.04 c 0
 151.2 60.9525 155.925 50.5575 155.925 44.415 c 0
 155.925 30.24 147.42 8.0325 140.3325 3.78 c 0
 137.025 1.89 111.9825 0 84.105 0 c 0
 36.3825 0 33.075 0.4725 27.405 10.8675 c 0
 24.0975 16.5375 22.2075 25.515 23.1525 30.24 c 0
 25.0425 41.58 38.2725 60.9525 44.8875 61.425 c 0
 48.6675 61.425 86.94 95.445 136.08 142.695 c 0
 141.75 148.365 147.8925 158.2875 149.31 164.9025 c 0
 150.7275 171.5175 154.035 184.7475 156.87 194.67 c 0
 163.485 217.8225 160.1775 228.69 135.6075 262.2375 c 0
 123.795 277.83 113.8725 294.84 112.9275 299.565 c 0
 111.51 305.235 106.785 309.015 99.6975 309.4875 c 0
 86.4675 310.4325 71.3475 328.86 70.875 343.5075 c 0
 70.875 349.1775 65.205 357.6825 58.59 362.4075 c 0
 15.12 392.6475 -8.0325 424.7775 5.67 437.0625 c 0
 14.6475 445.095 116.7075 458.325 139.86 454.0725 c 0
 150.255 452.1825 163.9575 445.5675 169.6275 439.8975 c 0
 180.9675 428.5575 180.9675 427.6125 164.9025 395.955 c 0
 158.2875 383.1975 159.705 369.9675 170.1 349.65 c 0
 181.44 326.97 216.8775 297.675 231.9975 297.675 c 0
 247.1175 298.1475 262.2375 322.245 266.0175 352.0125 c 0
 267.9075 364.77 270.27 375.6375 271.215 376.5825 c 0
 272.16 377.5275 278.3025 375.6375 285.39 372.8025 c 0
 296.2575 367.605 299.565 368.0775 308.07 376.5825 c 0
 319.8825 388.8675 315.1575 398.79 299.565 395.01 c 0
 288.6975 392.175 288.225 393.12 288.225 414.3825 c 0
 288.225 433.2825 290.5875 438.9525 303.345 451.2375 c 0
318.9375 434.7 m 0
 317.52 437.535 315.1575 439.425 313.74 439.425 c 0
 312.795 439.425 311.85 437.535 311.85 434.7 c 0
 311.85 432.3375 314.2125 429.975 317.0475 429.975 c 0
 319.41 429.975 320.355 432.3375 318.9375 434.7 c 0
EndSplineSet
Validated: 524321
EndChar

StartChar: y
Encoding: 121 121 22
Width: 565
VWidth: 0
Flags: HW
LayerCount: 2
Fore
SplineSet
333.112304688 433.702148438 m 4
 356.737304688 436.065429688 384.142578125 437.482421875 394.537109375 437.009765625 c 6
 413.4375 436.537109375 l 5
 414.85546875 409.60546875 l 6
 416.272460938 386.924804688 413.4375 377.002929688 399.262695312 346.290039062 c 4
 390.28515625 326.4453125 382.724609375 307.544921875 382.724609375 304.709960938 c 4
 382.724609375 298.094726562 351.067382812 221.549804688 345.397460938 214.462890625 c 4
 341.6171875 210.209960938 334.530273438 190.365234375 281.137695312 39.6376953125 c 4
 269.325195312 6.08984375 257.040039062 -27.9296875 254.205078125 -35.962890625 c 4
 237.1953125 -84.1572265625 225.85546875 -119.594726562 219.240234375 -144.637695312 c 4
 214.987304688 -160.23046875 199.8671875 -197.557617188 185.692382812 -227.325195312 c 4
 165.84765625 -268.905273438 153.5625 -288.27734375 133.245117188 -309.067382812 c 6
 106.78515625 -336 l 5
 76.072265625 -336 l 6
 52.447265625 -336 42.052734375 -333.637695312 30.240234375 -325.60546875 c 4
 10.39453125 -311.90234375 0 -293.947265625 0 -273.157226562 c 4
 0 -259.927734375 3.7802734375 -253.3125 18.427734375 -240.08203125 c 4
 34.01953125 -225.907226562 42.052734375 -222.599609375 66.150390625 -219.764648438 c 4
 108.202148438 -215.040039062 120.959960938 -204.172851562 148.365234375 -151.724609375 c 4
 170.099609375 -109.200195312 171.517578125 -104.474609375 171.990234375 -69.037109375 c 4
 172.462890625 -48.2470703125 169.627929688 -18.48046875 166.3203125 -2.8876953125 c 4
 159.232421875 28.2978515625 133.717773438 96.8095703125 125.212890625 108.150390625 c 4
 121.905273438 111.9296875 114.817382812 127.995117188 108.674804688 143.587890625 c 4
 89.775390625 191.782226562 38.7451171875 312.26953125 26.4599609375 337.3125 c 4
 14.6474609375 360.46484375 10.39453125 397.3203125 17.955078125 408.66015625 c 4
 25.5146484375 420.47265625 76.544921875 427.559570312 138.442382812 425.197265625 c 4
 151.200195312 424.724609375 174.825195312 406.297851562 174.825195312 397.3203125 c 4
 174.825195312 394.95703125 168.209960938 384.5625 160.177734375 374.639648438 c 6
 145.530273438 356.212890625 l 5
 148.837890625 311.797851562 l 6
 150.254882812 287.227539062 156.870117188 250.844726562 163.012695312 231.47265625 c 4
 168.682617188 211.627929688 175.297851562 188.474609375 176.71484375 179.497070312 c 4
 180.022460938 160.59765625 207.427734375 121.852539062 223.4921875 113.34765625 c 4
 231.997070312 108.622070312 237.66796875 108.622070312 244.754882812 112.40234375 c 4
 256.094726562 118.544921875 281.137695312 169.575195312 288.224609375 200.287109375 c 4
 291.059570312 212.099609375 297.202148438 232.41796875 302.400390625 246.120117188 c 4
 307.59765625 259.822265625 312.794921875 289.1171875 314.684570312 311.325195312 c 6
 317.9921875 351.487304688 l 5
 295.78515625 377.474609375 l 6
 283.97265625 391.177734375 274.049804688 404.407226562 274.049804688 406.297851562 c 4
 274.049804688 408.1875 277.830078125 414.330078125 282.5546875 420 c 4
 289.169921875 428.504882812 298.147460938 430.8671875 333.112304688 433.702148438 c 4
EndSplineSet
Validated: 524321
EndChar

StartChar: z
Encoding: 122 122 23
Width: 608
VWidth: 0
Flags: HW
LayerCount: 2
Fore
SplineSet
18.4275 480.5325 m 0
 28.35 494.7075 29.295 494.235 61.425 476.7525 c 0
 101.5875 454.0725 135.135 452.1825 153.09 470.1375 c 0
 164.9025 481.95 166.32 482.4225 218.295 480.06 c 0
 252.315 478.17 273.5775 475.335 278.3025 471.0825 c 0
 292.4775 458.7975 316.575 451.71 322.7175 457.8525 c 0
 328.3875 463.5225 381.78 464.94 391.23 459.27 c 0
 395.01 456.435 395.955 448.875 394.065 433.2825 c 0
 391.23 412.965 386.505 406.8225 344.925 363.825 c 0
 304.7625 322.7175 295.785 309.96 276.885 270.27 c 0
 252.315 219.24 249.9525 214.515 227.745 180.0225 c 0
 218.7675 166.7925 209.3175 155.925 206.4825 155.925 c 0
 197.0325 155.925 189.4725 138.915 186.165 112.455 c 0
 183.8025 91.1925 185.22 85.05 194.67 71.3475 c 0
 200.34 62.8425 213.57 51.03 223.02 45.36 c 2
 240.5025 35.4375 l 1
 271.215 46.305 l 2
 288.225 51.975 304.7625 56.7 308.5425 56.7 c 0
 312.3225 56.7 318.465 61.425 322.245 66.6225 c 0
 325.5525 72.2925 336.8925 81.27 347.2875 86.94 c 0
 357.6825 93.0825 367.1325 101.5875 368.55 106.785 c 0
 370.9125 115.29 375.165 121.905 402.0975 152.6175 c 0
 412.02 164.43 416.2725 165.8475 429.03 163.0125 c 0
 438.9525 161.1225 444.15 156.87 444.15 151.6725 c 0
 444.15 147.42 447.4575 139.3875 451.2375 134.19 c 0
 462.105 119.5425 460.6875 52.92 448.875 37.8 c 0
 443.6775 31.185 439.425 23.625 439.425 20.3175 c 0
 439.425 12.285 411.075 8.9775 347.2875 9.9225 c 0
 316.1025 10.395 262.2375 8.505 227.745 5.67 c 0
 180.9675 1.89 157.815 1.89 138.915 6.1425 c 0
 119.07 10.395 111.0375 10.395 103.95 5.67 c 0
 80.325 -8.9775 37.8 4.725 37.8 26.9325 c 0
 37.8 42.9975 51.975 85.05 62.37 100.17 c 0
 67.095 106.785 70.875 115.29 70.875 118.5975 c 0
 70.875 121.4325 85.5225 143.64 103.4775 167.265 c 0
 121.4325 191.3625 139.3875 218.7675 143.64 228.2175 c 0
 147.42 238.14 155.4525 251.8425 160.65 258.4575 c 0
 165.8475 265.0725 170.1 274.05 170.1 278.3025 c 0
 170.1 282.555 185.22 303.8175 203.175 326.025 c 0
 221.6025 348.2325 236.25 368.0775 236.25 369.9675 c 0
 236.25 377.055 207.4275 415.8 198.45 420.525 c 0
 193.725 422.8875 179.55 425.25 167.265 425.25 c 0
 134.19 425.25 93.555 403.0425 60.48 367.1325 c 2
 33.5475 337.8375 l 1
 21.735 349.65 l 2
 -1.89 373.275 -3.78 449.3475 18.4275 480.5325 c 0
349.65 429.5025 m 0
 349.65 435.1725 347.76 439.425 344.925 439.425 c 0
 342.5625 439.425 340.2 436.59 340.2 432.81 c 0
 340.2 429.03 342.5625 424.305 344.925 422.8875 c 0
 347.76 421.47 349.65 424.305 349.65 429.5025 c 0
77.9625 411.075 m 0
 79.38 413.91 77.49 415.8 73.71 415.8 c 0
 69.4575 415.8 66.15 413.91 66.15 411.075 c 0
 66.15 408.7125 68.04 406.35 70.4025 406.35 c 0
 73.2375 406.35 76.545 408.7125 77.9625 411.075 c 0
176.715 34.965 m 0
 173.4075 43.9425 158.76 45.36 161.595 36.855 c 0
 163.0125 33.5475 167.265 30.24 171.5175 29.295 c 0
 177.1875 28.35 178.605 29.7675 176.715 34.965 c 0
EndSplineSet
Validated: 524321
EndChar

StartChar: A
Encoding: 65 65 24
Width: 773
VWidth: 0
Flags: HW
LayerCount: 2
Fore
SplineSet
284.445 713.475 m 0
 307.125 722.4525 326.025 718.6725 346.3425 702.135 c 0
 369.495 683.235 394.5375 636.4575 399.2625 604.8 c 0
 403.515 576.45 412.965 547.6275 431.865 507.9375 c 0
 440.8425 489.9825 454.545 452.655 463.05 425.25 c 0
 479.5875 372.8025 483.84 360.99 490.9275 349.65 c 0
 493.29 345.87 500.3775 329.805 506.0475 314.2125 c 0
 512.19 298.62 518.805 283.9725 520.695 281.1375 c 0
 522.585 278.775 524.475 274.05 524.475 270.27 c 0
 524.475 266.9625 532.98 245.7 543.8475 223.02 c 0
 570.78 165.8475 585.9 128.9925 585.9 120.96 c 0
 585.9 117.18 594.405 104.895 604.8 94.0275 c 0
 637.4025 59.0625 627.9525 36.3825 575.0325 25.0425 c 0
 532.5075 16.5375 500.3775 17.4825 474.39 28.35 c 0
 462.105 34.02 448.875 36.855 445.5675 35.91 c 0
 431.865 30.24 434.2275 47.7225 450.2925 66.6225 c 0
 466.83 85.5225 467.3025 86.4675 464.4675 120.015 c 0
 461.6325 162.54 457.38 175.77 429.975 233.8875 c 2
 407.295 281.61 l 1
 374.6925 292.005 l 2
 348.2325 300.9825 335.475 302.4 302.8725 300.0375 c 0
 281.1375 299.0925 260.82 295.785 257.985 293.895 c 0
 255.15 291.5325 243.3375 288.225 231.9975 286.8075 c 0
 207.4275 283.5 199.8675 275.94 179.55 232.47 c 0
 170.1 211.68 163.485 186.6375 158.2875 147.8925 c 0
 148.8375 80.7975 151.6725 70.4025 182.385 58.59 c 0
 213.0975 46.7775 214.515 42.525 193.725 25.0425 c 0
 170.5725 5.1975 147.42 0.4725 77.9625 0 c 0
 8.9775 0 -2.3625 4.725 2.835 32.13 c 0
 8.0325 60.0075 13.23 66.15 44.8875 80.325 c 0
 60.9525 87.4125 76.0725 96.39 78.435 100.17 c 0
 86.4675 112.455 100.17 154.035 103.95 177.1875 c 0
 105.84 190.4175 111.0375 207.4275 115.29 214.9875 c 0
 119.5425 223.02 122.85 233.8875 122.85 239.5575 c 0
 122.85 245.2275 127.1025 259.4025 131.8275 270.27 c 0
 137.025 281.61 146.9475 309.4875 154.035 332.64 c 0
 161.595 357.6825 171.99 380.835 179.55 389.34 c 0
 189.945 401.1525 193.2525 411.075 196.0875 437.0625 c 0
 197.9775 455.49 203.175 482.895 207.9 498.4875 c 0
 213.0975 514.08 222.5475 546.21 229.1625 569.3625 c 0
 265.545 696.9375 269.7975 707.3325 284.445 713.475 c 0
305.7075 537.705 m 0
 300.51 543.375 292.005 548.1 287.7525 548.1 c 0
 278.775 548.1 269.325 534.87 269.325 522.585 c 0
 269.325 518.3325 267.435 511.245 265.0725 506.52 c 0
 246.1725 469.665 235.7775 443.6775 238.14 439.8975 c 0
 240.03 437.535 239.085 426.195 236.7225 414.855 c 0
 229.635 385.0875 237.195 377.055 279.2475 367.1325 c 0
 318.465 358.155 343.035 356.7375 347.2875 363.825 c 0
 348.705 366.66 354.8475 368.55 360.045 368.55 c 0
 369.0225 368.55 369.495 370.44 367.605 398.79 c 0
 366.1875 415.3275 361.4625 434.2275 357.21 439.8975 c 0
 352.9575 446.04 349.65 454.545 349.65 458.325 c 0
 349.65 462.5775 343.5075 474.39 335.9475 484.785 c 0
 328.3875 494.7075 320.8275 508.41 318.9375 515.025 c 0
 317.0475 521.64 310.905 531.5625 305.7075 537.705 c 0
EndSplineSet
Validated: 524321
EndChar

StartChar: B
Encoding: 66 66 25
Width: 735
VWidth: 0
Flags: HW
LayerCount: 2
Fore
SplineSet
231.525 750.8025 m 0
 254.205 756.4725 267.9075 756.4725 292.95 750.8025 c 0
 304.7625 747.9675 333.585 745.1325 357.6825 744.66 c 0
 388.395 743.715 404.46 740.88 412.965 735.21 c 0
 419.58 730.9575 427.6125 727.65 431.3925 727.65 c 0
 434.7 727.65 444.15 720.09 451.71 711.1125 c 0
 459.27 702.135 467.775 694.575 470.61 694.575 c 0
 478.6425 694.575 517.3875 671.895 525.42 662.9175 c 0
 549.5175 634.5675 554.715 580.23 536.2875 550.4625 c 0
 530.145 540.0675 524.475 527.31 524.475 521.64 c 0
 524.475 509.355 496.125 476.28 470.1375 458.325 c 0
 454.0725 447.4575 446.5125 445.095 435.1725 446.985 c 0
 415.3275 451.2375 406.35 442.7325 406.35 420.525 c 0
 406.35 404.9325 409.185 399.735 425.7225 385.56 c 0
 436.59 376.5825 447.93 370.44 451.71 371.8575 c 0
 455.49 373.275 459.7425 369.495 462.5775 362.4075 c 0
 468.72 346.3425 473.445 344.4525 490.9275 350.595 c 0
 505.1025 356.265 506.52 355.7925 532.035 330.75 c 0
 546.6825 316.575 564.6375 295.3125 572.1975 283.9725 c 0
 584.955 264.1275 585.9 259.875 585.9 213.0975 c 0
 585.9 146.9475 572.1975 102.5325 542.9025 68.985 c 0
 520.695 43.47 483.84 23.625 459.7425 23.625 c 0
 451.2375 23.625 430.92 18.4275 414.855 11.8125 c 2
 385.0875 0 l 1
 199.8675 1.4175 l 2
 20.79 2.3625 14.175 2.835 7.56 11.8125 c 0
 3.3075 17.01 0 23.625 0 26.9325 c 0
 0 34.4925 44.415 77.9625 60.9525 85.995 c 0
 85.05 97.335 95.9175 115.7625 94.9725 142.695 c 0
 94.9725 155.925 97.8075 178.1325 102.06 192.3075 c 0
 105.84 206.01 110.0925 237.195 110.565 261.2925 c 0
 111.51 284.9175 114.8175 317.0475 117.6525 332.1675 c 0
 122.3775 355.7925 122.3775 362.4075 115.7625 379.89 c 0
 108.675 397.845 108.675 406.35 113.4 446.5125 c 0
 116.235 471.555 117.6525 497.5425 115.7625 504.1575 c 0
 114.345 510.7725 115.29 523.0575 118.125 532.035 c 0
 121.905 543.375 121.905 550.4625 118.125 557.55 c 0
 113.8725 565.5825 114.345 569.3625 120.015 575.9775 c 0
 128.52 585.4275 130.8825 635.5125 122.85 640.2375 c 0
 120.015 642.1275 119.07 644.9625 120.4875 647.325 c 0
 126.63 657.2475 74.655 681.8175 34.02 688.4325 c 0
 14.175 691.74 6.1425 705.4425 16.065 720.09 c 0
 26.46 736.6275 60.0075 743.2425 141.75 744.66 c 0
 181.9125 745.605 222.5475 748.44 231.525 750.8025 c 0
342.09 710.64 m 0
 329.805 714.8925 309.96 718.2 297.675 718.2 c 0
 279.2475 718.2 273.5775 715.8375 261.2925 703.08 c 0
 244.2825 685.125 226.8 646.8525 226.8 628.425 c 0
 226.8 621.3375 223.4925 605.2725 219.7125 592.515 c 0
 211.2075 565.11 210.735 542.9025 217.8225 517.86 c 0
 221.6025 504.63 221.13 490.9275 217.35 468.72 c 0
 212.1525 438.48 212.1525 438.0075 225.3825 424.305 c 0
 239.085 410.13 240.5025 409.6575 275.4675 418.635 c 0
 285.39 420.9975 288.225 420.0525 288.225 413.4375 c 0
 288.225 409.185 283.9725 404.46 278.775 403.0425 c 0
 273.5775 401.625 269.325 396.4275 269.325 391.7025 c 0
 269.325 386.0325 266.0175 382.725 260.82 382.725 c 0
 249.9525 382.725 228.69 351.0675 221.6025 324.6075 c 0
 213.57 294.3675 208.845 200.34 213.57 163.0125 c 0
 215.9325 145.0575 222.075 120.96 227.2725 109.62 c 0
 232.47 98.28 237.6675 83.16 239.085 75.6 c 0
 241.4475 65.205 246.645 60.48 261.765 54.81 c 0
 300.9825 39.69 363.825 49.14 399.2625 75.6 c 0
 426.6675 95.9175 429.975 101.115 448.875 160.65 c 0
 465.4125 211.2075 470.61 265.545 460.6875 281.1375 c 0
 456.9075 286.335 452.655 298.1475 451.2375 307.5975 c 0
 448.875 319.8825 441.315 331.695 425.25 346.815 c 0
 412.965 358.6275 400.2075 368.55 397.3725 368.55 c 0
 394.5375 368.55 383.67 373.7475 373.275 380.3625 c 0
 362.88 386.9775 352.485 392.175 350.595 392.175 c 0
 339.7275 392.175 316.1025 408.24 317.52 414.3825 c 0
 318.465 418.1625 333.585 427.6125 352.0125 434.7 c 0
 391.23 450.2925 408.24 468.2475 426.195 511.7175 c 0
 437.0625 537.705 438.0075 545.265 434.2275 558.495 c 0
 431.3925 567 429.03 591.0975 428.5575 611.415 c 0
 427.14 647.7975 426.6675 649.215 409.185 666.6975 c 0
 399.2625 677.0925 386.0325 686.5425 380.3625 687.96 c 0
 374.22 689.3775 368.0775 693.63 366.66 696.9375 c 0
 365.715 700.245 354.375 706.3875 342.09 710.64 c 0
EndSplineSet
Validated: 524321
EndChar

StartChar: C
Encoding: 67 67 26
Width: 825
VWidth: 0
Flags: HW
LayerCount: 2
Fore
SplineSet
309.4875 768.7575 m 0
 323.19 773.01 354.375 774.4275 423.8325 773.4825 c 0
 506.52 772.5375 520.2225 771.12 527.7825 764.0325 c 0
 532.98 759.78 538.1775 756 540.0675 756 c 0
 541.485 756 551.88 749.8575 563.22 742.2975 c 0
 574.56 735.21 591.57 726.2325 601.4925 722.925 c 0
 611.8875 719.6175 631.7325 705.4425 647.7975 689.85 c 2
 676.1475 662.9175 l 1
 674.73 616.14 l 2
 673.3125 572.1975 672.84 569.3625 661.5 563.6925 c 0
 646.8525 556.605 639.765 561.8025 635.985 583.065 c 0
 634.095 593.9325 627.9525 602.4375 616.6125 609.9975 c 0
 607.635 616.14 595.8225 629.37 589.68 638.82 c 0
 583.5375 648.7425 569.3625 662.445 557.55 669.06 c 0
 545.7375 676.1475 532.035 685.125 526.8375 689.85 c 0
 518.3325 696.9375 501.795 703.5525 449.82 719.145 c 0
 437.0625 722.925 430.4475 721.98 412.965 713.475 c 0
 400.68 707.3325 387.45 704.025 381.3075 705.915 c 0
 375.6375 707.3325 354.375 704.025 334.0575 698.8275 c 0
 303.345 691.2675 293.895 690.3225 280.1925 695.0475 c 0
 266.49 699.3 262.71 698.8275 254.6775 691.74 c 0
 249.9525 687.4875 245.7 680.8725 245.7 677.565 c 0
 245.7 674.2575 241.92 668.5875 237.195 665.28 c 0
 223.965 655.83 207.9 630.315 207.9 619.4475 c 0
 207.9 614.25 201.7575 602.91 194.67 594.405 c 0
 170.1 565.5825 165.375 556.1325 165.375 532.5075 c 0
 165.375 520.2225 162.0675 502.2675 158.2875 492.8175 c 0
 154.035 483.3675 149.7825 456.435 148.365 432.81 c 0
 146.9475 409.185 142.695 379.89 138.915 367.605 c 0
 131.8275 345.87 131.8275 345.3975 146.0025 325.5525 c 0
 154.035 314.685 160.65 302.8725 160.65 299.565 c 0
 160.65 296.2575 165.8475 281.1375 172.4625 266.49 c 0
 179.0775 251.8425 184.275 234.8325 184.275 228.2175 c 0
 184.275 214.515 195.1425 192.78 213.57 169.155 c 0
 223.965 155.925 227.2725 147.42 225.855 136.08 c 0
 224.4375 120.96 224.91 120.4875 243.3375 119.07 c 0
 258.4575 117.6525 266.49 112.9275 285.39 94.0275 c 0
 303.8175 75.6 311.3775 70.875 324.135 70.875 c 0
 341.6175 70.875 378 58.1175 378 51.975 c 0
 378 49.6125 375.6375 46.305 373.275 44.8875 c 0
 366.1875 40.635 372.33 33.075 382.2525 33.075 c 0
 387.45 33.075 392.175 37.3275 393.5925 42.9975 c 0
 396.4275 52.92 398.3175 53.3925 432.3375 50.5575 c 0
 467.775 48.195 469.1925 48.195 489.0375 63.315 c 0
 499.905 71.82 518.3325 81.27 529.6725 84.5775 c 0
 547.6275 89.3025 555.66 96.39 588.2625 135.135 c 0
 609.0525 160.1775 627.48 184.275 629.37 189.4725 c 0
 634.095 201.7575 650.16 200.8125 658.665 188.055 c 0
 666.6975 175.2975 669.5325 140.3325 663.8625 120.4875 c 0
 659.1375 101.5875 629.37 62.37 602.91 39.69 c 0
 578.8125 19.3725 557.0775 13.7025 468.72 4.2525 c 0
 426.195 0 418.635 0 408.24 7.0875 c 0
 398.3175 13.23 393.5925 13.7025 380.3625 9.45 c 0
 362.88 3.78 319.8825 7.56 324.135 14.6475 c 0
 329.805 24.0975 320.355 28.8225 311.3775 20.79 c 0
 302.8725 13.23 300.51 13.23 266.49 21.2625 c 0
 237.195 27.8775 230.1075 31.6575 226.3275 41.1075 c 0
 221.6025 53.3925 205.065 61.425 183.8025 61.425 c 0
 165.375 61.425 145.0575 72.2925 135.6075 86.94 c 0
 131.355 93.0825 117.18 104.4225 103.95 111.51 c 0
 85.05 121.905 77.9625 128.9925 70.4025 146.0025 c 0
 65.205 157.3425 53.865 178.1325 44.8875 191.835 c 0
 35.91 205.5375 28.35 221.6025 28.35 228.2175 c 0
 28.35 234.36 25.0425 249.0075 21.2625 259.875 c 0
 16.5375 273.5775 14.175 298.1475 14.175 335.475 c 0
 14.175 375.6375 12.285 395.955 6.615 409.185 c 0
 -2.835 431.3925 -0.4725 449.82 17.4825 497.5425 c 0
 27.405 524.475 37.3275 541.0125 52.92 557.0775 c 0
 64.26 568.89 77.0175 584.01 80.325 590.625 c 0
 88.3575 605.745 103.95 618.5025 114.8175 618.975 c 0
 120.96 618.975 122.85 623.2275 122.85 636.93 c 0
 122.85 662.9175 131.8275 675.675 161.1225 691.74 c 0
 175.77 699.7725 194.67 711.1125 203.6475 716.7825 c 0
 212.625 722.925 224.4375 727.65 229.635 727.65 c 0
 235.305 727.65 242.3925 730.9575 246.1725 735.21 c 0
 253.26 744.1875 283.5 759.78 309.4875 768.7575 c 0
EndSplineSet
Validated: 524321
EndChar

StartChar: D
Encoding: 68 68 27
Width: 901
VWidth: 0
Flags: HW
LayerCount: 2
Fore
SplineSet
94.0275 774.9 m 0
 116.235 776.79 146.475 777.2625 160.65 775.845 c 0
 174.825 774.4275 194.1975 773.01 203.175 772.5375 c 0
 212.1525 772.065 227.745 769.7025 237.6675 767.8125 c 0
 249.0075 765.45 255.15 765.9225 255.15 769.23 c 0
 255.15 777.2625 286.8075 781.515 301.455 775.3725 c 0
 316.1025 769.23 333.585 768.7575 361.935 773.01 c 0
 375.6375 774.9 386.0325 773.4825 395.955 768.285 c 0
 403.9875 764.0325 421.9425 760.725 436.1175 760.725 c 0
 450.765 760.725 464.94 757.89 470.61 753.6375 c 0
 475.335 749.8575 483.3675 746.55 488.0925 746.55 c 0
 498.96 746.55 538.65 723.3975 538.65 717.7275 c 0
 538.65 715.365 543.8475 714.42 550.4625 716.31 c 0
 557.0775 717.7275 565.11 717.255 568.4175 714.42 c 0
 571.2525 712.0575 581.6475 708.75 591.0975 706.86 c 0
 615.195 702.6075 689.85 626.535 689.85 606.2175 c 0
 689.85 597.24 695.52 585.4275 705.4425 573.615 c 0
 714.42 563.6925 723.87 548.1 726.705 539.595 c 0
 729.54 531.09 736.155 517.86 741.825 510.7725 c 0
 755.5275 490.9275 755.5275 394.065 741.3525 346.815 c 0
 717.255 266.0175 709.2225 237.6675 706.86 221.6025 c 0
 700.7175 186.165 657.2475 137.025 624.1725 128.9925 c 0
 613.305 126.63 583.065 104.895 563.22 86.4675 c 0
 559.9125 83.16 551.4075 78.9075 544.32 77.49 c 0
 537.2325 75.6 525.42 69.4575 517.3875 63.7875 c 0
 498.015 49.6125 445.095 31.6575 431.3925 35.4375 c 0
 425.7225 36.855 412.4925 34.4925 403.0425 30.24 c 0
 393.12 25.515 373.275 21.735 359.1 21.2625 c 0
 344.925 20.79 323.19 18.9 310.4325 16.5375 c 0
 292.005 13.7025 286.335 14.175 278.775 21.2625 c 0
 266.49 32.6025 229.635 27.8775 218.295 14.175 c 0
 210.735 5.1975 204.12 4.2525 137.97 2.835 c 0
 65.6775 1.4175 65.6775 1.4175 58.1175 12.7575 c 0
 51.5025 22.68 47.7225 24.0975 34.4925 21.2625 c 0
 20.79 18.9 18.4275 19.845 14.175 30.24 c 0
 11.8125 36.855 10.8675 46.305 12.285 50.5575 c 0
 19.3725 71.3475 36.3825 103.4775 50.5575 123.795 c 0
 73.2375 154.98 80.325 187.11 78.435 247.1175 c 0
 77.0175 288.6975 77.9625 297.675 83.6325 300.0375 c 0
 89.775 301.9275 90.2475 307.125 87.4125 325.08 c 0
 85.5225 337.365 83.16 395.01 82.215 453.6 c 0
 79.8525 605.745 77.49 653.94 71.3475 665.7525 c 0
 66.6225 673.785 61.425 675.675 40.635 675.675 c 0
 8.505 675.675 -2.3625 685.5975 2.3625 712.0575 c 0
 5.1975 730.485 24.57 755.5275 42.525 765.45 c 0
 48.195 768.7575 71.3475 772.5375 94.0275 774.9 c 0
329.805 702.135 m 0
 300.9825 709.695 270.27 710.64 258.93 704.025 c 0
 231.525 687.96 213.0975 664.335 203.6475 633.6225 c 0
 194.67 604.3275 194.67 599.6025 200.8125 546.6825 c 0
 206.4825 498.015 206.4825 489.0375 200.34 474.39 c 0
 190.89 452.1825 190.89 426.195 199.8675 382.725 c 0
 209.79 333.1125 214.9875 247.1175 208.845 225.855 c 0
 205.065 212.1525 206.01 200.34 211.68 175.2975 c 0
 220.185 141.75 230.58 128.0475 254.205 120.96 c 0
 259.875 119.07 264.6 114.345 264.6 110.565 c 0
 264.6 106.3125 269.7975 103.95 278.775 103.95 c 0
 286.8075 103.95 297.2025 101.5875 302.4 99.225 c 0
 307.5975 96.39 316.1025 92.61 321.3 89.775 c 0
 335.0025 82.6875 373.7475 84.105 382.2525 91.665 c 0
 386.505 95.445 400.68 99.225 413.4375 99.6975 c 0
 446.5125 101.5875 455.9625 106.785 475.335 135.6075 c 0
 485.2575 149.31 494.7075 160.65 496.5975 160.65 c 0
 503.2125 160.65 554.715 214.515 562.275 229.1625 c 0
 566.055 237.195 574.0875 249.9525 579.285 258.4575 c 0
 584.955 266.49 590.625 282.555 592.515 293.4225 c 0
 594.405 304.7625 597.7125 316.1025 600.5475 319.41 c 0
 603.855 323.19 602.91 337.8375 598.185 363.825 c 0
 593.9325 385.0875 590.625 412.02 590.625 423.8325 c 0
 590.625 435.1725 587.3175 451.2375 583.065 459.27 c 0
 575.505 473.9175 564.6375 507.9375 557.55 541.0125 c 0
 547.6275 585.9 545.265 592.9875 538.1775 592.9875 c 0
 534.3975 592.9875 522.585 601.02 512.6625 610.47 c 0
 502.2675 620.3925 492.345 628.425 490.455 628.425 c 0
 488.565 628.425 483.84 635.04 479.5875 642.6 c 0
 475.335 650.6325 470.1375 656.775 467.3025 656.775 c 0
 464.4675 656.775 454.0725 663.39 444.15 670.95 c 0
 433.755 679.455 420.525 685.125 412.4925 685.125 c 0
 404.9325 685.125 394.065 688.4325 388.395 692.685 c 0
 382.2525 696.9375 372.33 699.3 366.1875 697.8825 c 0
 359.5725 696.9375 343.5075 698.8275 329.805 702.135 c 0
108.675 174.825 m 0
 108.675 177.66 106.785 179.55 103.95 179.55 c 0
 101.5875 179.55 99.225 177.66 99.225 174.825 c 0
 99.225 172.4625 101.5875 170.1 103.95 170.1 c 0
 106.785 170.1 108.675 172.4625 108.675 174.825 c 0
498.015 81.27 m 0
 495.6525 85.05 475.8075 85.5225 461.6325 81.7425 c 0
 449.3475 78.435 454.545 68.04 467.775 69.93 c 0
 473.445 70.875 480.06 68.985 482.4225 65.205 c 0
 485.2575 60.48 487.62 60.9525 493.29 68.5125 c 0
 497.07 73.71 498.96 79.38 498.015 81.27 c 0
137.025 47.25 m 0
 137.025 55.2825 133.7175 56.7 113.4 56.7 c 0
 88.83 56.7 80.7975 50.5575 86.94 35.4375 c 0
 88.83 30.24 93.555 28.8225 101.5875 30.7125 c 0
 108.2025 32.13 118.5975 34.02 125.2125 35.4375 c 0
 133.245 37.3275 137.025 41.1075 137.025 47.25 c 0
EndSplineSet
Validated: 524321
EndChar

StartChar: E
Encoding: 69 69 28
Width: 712
VWidth: 0
Flags: HW
LayerCount: 2
Fore
SplineSet
81.7425 756.4725 m 0
 105.84 757.89 127.575 759.3075 130.41 759.78 c 0
 133.7175 760.2525 141.75 757.4175 149.31 753.6375 c 0
 161.1225 747.495 163.9575 747.495 174.3525 754.5825 c 0
 186.165 762.1425 194.1975 762.1425 309.4875 754.11 c 0
 339.7275 752.22 406.8225 750.8025 464.94 750.8025 c 0
 507.465 750.8025 526.8375 735.6825 539.1225 692.685 c 0
 544.7925 673.785 535.3425 620.3925 525.8925 617.085 c 0
 515.4975 612.8325 510.3 618.03 510.3 633.15 c 0
 510.3 643.545 506.52 648.7425 493.7625 656.775 c 0
 484.785 661.9725 473.9175 671.895 469.1925 678.51 c 0
 462.5775 687.4875 454.0725 691.2675 431.3925 694.575 c 0
 415.8 696.465 398.79 700.245 394.065 702.6075 c 0
 388.8675 704.97 369.0225 706.3875 349.65 705.4425 c 0
 251.37 701.6625 204.5925 695.0475 198.45 684.6525 c 0
 190.89 672.84 188.055 637.4025 194.1975 630.315 c 0
 201.285 621.3375 201.7575 619.92 203.175 503.685 c 2
 205.065 409.6575 l 1
 245.2275 413.91 l 2
 267.435 415.8 312.3225 418.1625 344.925 418.1625 c 0
 377.5275 418.635 409.6575 420.525 416.2725 421.9425 c 0
 423.8325 423.8325 436.59 435.645 448.4025 451.2375 c 0
 485.2575 499.4325 498.015 476.28 494.7075 368.55 c 0
 492.8175 293.895 490.455 283.5 476.28 283.5 c 0
 467.3025 283.5 449.3475 300.51 448.875 309.015 c 0
 448.875 316.1025 433.755 330.75 426.6675 330.75 c 0
 423.36 330.75 412.4925 335.9475 402.57 342.09 c 0
 383.67 354.375 375.6375 354.8475 294.3675 346.815 c 0
 270.7425 344.4525 256.095 345.3975 245.7 349.65 c 0
 232.9425 354.8475 229.1625 354.375 214.515 346.815 c 0
 194.1975 335.9475 182.8575 304.29 190.4175 281.1375 c 0
 201.285 247.1175 204.5925 211.68 199.395 189.4725 c 0
 192.78 163.485 195.1425 87.4125 202.7025 78.435 c 0
 209.3175 70.4025 277.83 57.1725 311.85 57.1725 c 0
 360.045 57.645 426.195 70.875 455.49 85.995 c 0
 472.5 94.9725 502.74 123.795 516.4425 145.0575 c 0
 524.0025 156.3975 532.5075 165.375 535.815 165.375 c 0
 545.265 165.375 562.275 121.905 562.275 97.8075 c 0
 562.275 67.095 554.715 53.865 527.31 36.855 c 0
 514.08 28.8225 497.07 17.4825 489.9825 11.34 c 0
 476.7525 0.4725 475.8075 0.4725 381.3075 2.3625 c 0
 328.86 3.3075 278.3025 6.1425 269.325 8.9775 c 0
 245.7 16.5375 190.89 15.5925 175.77 7.56 c 0
 166.32 2.835 145.53 0.945 103.005 0.945 c 0
 52.92 0.945 41.1075 2.3625 28.8225 9.9225 c 0
 7.0875 23.1525 8.9775 38.745 37.8 72.2925 c 0
 51.03 87.4125 62.8425 105.84 64.26 112.455 c 0
 65.6775 119.5425 71.3475 142.2225 76.545 163.0125 c 0
 87.885 207.9 98.7525 295.3125 96.39 328.3875 c 0
 95.9175 341.145 97.335 368.55 100.17 388.8675 c 0
 104.895 420.0525 104.4225 429.975 97.335 454.545 c 0
 86.94 492.8175 82.215 580.7025 89.3025 613.305 c 0
 94.5 637.875 94.0275 639.2925 79.38 661.9725 c 0
 71.3475 674.73 61.8975 685.125 58.1175 685.125 c 0
 50.5575 685.125 5.67 708.2775 1.89 713.9475 c 0
 -1.4175 719.6175 8.505 737.1 15.12 737.1 c 0
 17.955 737.1 24.57 740.88 29.7675 745.605 c 0
 36.3825 751.275 50.085 754.5825 81.7425 756.4725 c 0
EndSplineSet
Validated: 524321
EndChar

StartChar: F
Encoding: 70 70 29
Width: 613
VWidth: 0
Flags: HW
LayerCount: 2
Fore
SplineSet
56.7 769.23 m 0
 72.765 786.7125 94.0275 789.075 127.575 777.2625 c 0
 138.4425 773.4825 154.5075 770.175 163.485 770.175 c 0
 178.605 770.175 179.0775 769.7025 178.1325 751.275 c 0
 177.66 736.155 175.77 732.375 168.6825 732.375 c 0
 163.9575 732.375 160.65 729.54 161.595 726.705 c 0
 162.0675 723.3975 158.76 710.64 154.035 698.355 c 0
 146.475 678.51 145.53 666.225 148.365 588.735 c 0
 151.2 496.5975 148.8375 478.17 132.3 473.9175 c 0
 121.905 471.0825 120.96 468.72 127.1025 458.7975 c 0
 129.465 455.0175 133.7175 454.0725 137.025 455.9625 c 0
 144.585 460.6875 151.2 450.2925 151.2 433.755 c 0
 151.2 425.7225 154.98 419.1075 161.1225 415.8 c 0
 171.99 409.6575 217.8225 411.5475 278.775 420.525 c 0
 300.9825 423.8325 331.695 427.14 347.2875 427.14 c 0
 373.275 427.6125 375.6375 426.6675 377.055 416.745 c 0
 378.945 403.9875 390.285 403.0425 396.9 415.3275 c 0
 400.2075 421.9425 399.735 426.195 395.4825 430.92 c 0
 378.945 448.4025 378 487.1475 394.5375 500.85 c 0
 399.735 505.1025 403.9875 504.63 415.8 496.125 c 0
 431.865 484.785 432.81 477.6975 422.8875 448.4025 c 0
 418.1625 435.1725 416.2725 420.0525 418.1625 406.35 c 0
 422.415 374.6925 421.9425 372.33 415.8 354.375 c 0
 412.02 345.3975 406.35 328.86 402.57 318.465 c 0
 391.23 285.39 360.045 277.3575 365.715 309.015 c 0
 368.55 323.19 367.1325 325.08 348.705 335.475 c 0
 337.365 341.6175 325.08 347.2875 321.3 347.2875 c 0
 317.52 347.76 302.4 349.65 287.7525 351.54 c 0
 265.545 354.375 259.875 353.43 249.48 344.925 c 0
 233.8875 333.1125 225.855 333.1125 218.295 344.925 c 0
 211.2075 356.7375 204.12 356.7375 191.835 345.3975 c 0
 186.165 340.6725 177.1875 335.0025 171.5175 333.1125 c 0
 162.54 330.75 160.65 332.1675 160.65 339.7275 c 0
 160.65 344.925 158.2875 350.595 155.4525 352.0125 c 0
 152.6175 353.9025 152.145 360.99 153.5625 369.0225 c 0
 157.3425 385.0875 147.8925 387.9225 132.7725 375.165 c 0
 104.4225 350.595 99.225 344.4525 99.225 333.1125 c 0
 99.225 318.9375 100.6425 318.465 121.4325 331.2225 c 0
 141.75 343.98 143.64 341.6175 150.7275 293.4225 c 0
 156.3975 254.6775 154.5075 212.625 146.475 191.835 c 0
 137.97 169.155 140.805 153.09 154.035 144.1125 c 0
 163.9575 137.97 165.8475 133.245 164.43 119.5425 c 0
 163.485 103.95 164.43 102.06 176.2425 98.7525 c 0
 183.8025 96.8625 192.3075 93.0825 195.1425 90.72 c 0
 198.45 87.885 206.01 85.05 212.625 84.105 c 0
 230.58 81.7425 238.14 61.8975 228.69 42.9975 c 0
 218.295 22.68 206.4825 17.01 177.1875 20.79 c 0
 156.87 23.1525 150.255 21.735 140.805 14.175 c 0
 134.19 8.9775 122.85 4.725 115.29 4.725 c 0
 107.73 4.725 79.38 4.2525 51.975 3.3075 c 0
 7.56 2.3625 2.3625 3.3075 0.945 10.8675 c 0
 0 15.5925 1.89 22.68 5.1975 26.46 c 0
 8.505 30.24 11.8125 50.5575 12.7575 72.2925 c 0
 16.5375 170.1 17.955 184.275 23.1525 190.89 c 0
 30.7125 199.8675 31.185 278.775 24.0975 292.4775 c 0
 20.3175 298.62 18.9 334.53 19.3725 393.12 c 0
 19.845 479.115 20.3175 485.2575 31.185 506.52 c 0
 42.9975 529.6725 41.58 544.32 26.46 562.275 c 0
 22.68 566.055 18.9 583.065 17.01 600.075 c 0
 15.5925 617.085 12.7575 641.1825 11.34 653.94 c 0
 9.45 666.6975 10.8675 690.3225 14.175 709.2225 c 0
 18.9 734.265 19.3725 743.2425 15.12 747.495 c 0
 11.8125 750.8025 9.45 756 9.45 759.3075 c 0
 9.45 766.8675 29.295 767.34 36.855 759.78 c 0
 41.58 755.055 45.8325 757.4175 56.7 769.23 c 0
68.5125 463.05 m 0
 63.315 471.0825 56.7 468.2475 51.03 455.49 c 0
 46.7775 446.04 46.7775 442.7325 51.5025 439.8975 c 0
 55.2825 437.535 57.645 424.305 58.1175 402.57 c 0
 58.59 372.8025 59.535 368.55 69.4575 364.2975 c 0
 82.6875 358.155 103.95 365.2425 103.95 375.6375 c 0
 103.95 379.4175 110.0925 389.34 118.125 397.3725 c 0
 132.7725 412.965 132.7725 420.525 118.5975 420.525 c 0
 108.675 420.525 96.8625 432.81 92.61 447.93 c 0
 90.72 453.6 85.5225 458.325 80.325 458.325 c 0
 75.6 458.325 69.93 460.6875 68.5125 463.05 c 0
315.63 385.0875 m 0
 309.4875 398.3175 306.6525 399.2625 298.62 391.23 c 0
 289.17 381.78 292.4775 375.165 307.125 374.22 c 0
 320.355 373.275 320.8275 373.7475 315.63 385.0875 c 0
122.85 255.6225 m 0
 122.85 259.875 118.5975 268.38 113.4 274.5225 c 0
 106.3125 283.5 104.4225 283.9725 103.95 278.3025 c 0
 103.95 274.05 108.2025 265.545 113.4 259.4025 c 0
 120.4875 250.425 122.3775 249.9525 122.85 255.6225 c 0
85.05 249.9525 m 0
 85.05 260.82 73.2375 272.16 68.5125 264.6 c 0
 63.7875 257.04 70.4025 240.975 78.435 240.975 c 0
 82.215 240.975 85.05 244.755 85.05 249.9525 c 0
134.6625 231.9975 m 0
 130.41 238.6125 127.575 237.195 127.575 228.69 c 0
 127.575 224.91 129.9375 223.02 132.3 224.4375 c 0
 135.135 226.3275 136.08 229.635 134.6625 231.9975 c 0
283.5 772.065 m 0
 287.7525 783.8775 288.225 783.8775 329.3325 781.515 c 0
 352.0125 780.0975 375.165 778.2075 379.89 777.2625 c 0
 385.0875 776.3175 398.3175 777.735 409.185 780.57 c 0
 427.14 785.295 430.92 785.295 439.425 777.2625 c 0
 450.765 767.34 451.71 750.33 441.7875 741.825 c 0
 437.535 738.045 434.7 728.1225 434.7 715.365 c 0
 434.7 697.41 436.59 694.1025 448.875 687.4875 c 0
 460.215 681.8175 463.05 677.0925 463.05 665.28 c 0
 463.05 647.7975 452.1825 638.3475 432.3375 637.875 c 0
 422.415 637.875 410.6025 644.49 391.23 660.555 c 0
 354.8475 690.795 323.6625 713.475 318.465 713.475 c 0
 316.1025 713.475 306.18 715.8375 296.73 718.6725 c 0
 278.3025 723.3975 272.6325 735.21 285.8625 739.935 c 0
 289.6425 741.825 292.95 744.66 292.95 747.0225 c 0
 292.95 749.385 289.6425 751.275 285.8625 751.275 c 0
 277.83 751.275 276.885 755.5275 283.5 772.065 c 0
EndSplineSet
Validated: 524321
EndChar

StartChar: G
Encoding: 71 71 30
Width: 939
VWidth: 0
Flags: HW
LayerCount: 2
Fore
SplineSet
441.315 778.2075 m 0
 466.83 787.6575 504.1575 787.6575 526.8375 777.2625 c 0
 534.87 773.4825 564.6375 764.9775 592.9875 757.89 c 0
 648.27 744.66 670.95 736.6275 670.95 731.43 c 0
 670.95 728.1225 709.2225 708.75 716.31 708.75 c 0
 718.6725 708.75 723.87 703.5525 728.1225 696.9375 c 0
 733.7925 687.4875 734.7375 678.0375 731.43 650.6325 c 0
 727.65 612.8325 721.035 596.7675 707.805 592.515 c 0
 688.4325 586.3725 670.95 595.8225 642.1275 628.8975 c 0
 626.0625 646.8525 609.9975 661.5 606.69 661.5 c 0
 603.3825 661.5 593.46 670.005 584.4825 680.4 c 0
 575.505 690.795 566.055 699.3 563.22 699.3 c 0
 560.385 699.3 546.21 705.915 532.035 713.9475 c 0
 517.3875 721.5075 503.685 727.1775 501.3225 725.76 c 0
 498.96 723.87 486.675 728.1225 473.9175 734.265 c 0
 453.6 744.66 447.93 745.605 423.36 741.825 c 0
 406.8225 739.4625 391.7025 733.7925 385.56 728.1225 c 0
 380.3625 722.925 362.88 712.0575 347.2875 704.025 c 0
 331.695 695.9925 310.4325 681.345 300.0375 671.4225 c 0
 289.6425 661.5 270.7425 648.7425 257.985 642.1275 c 0
 236.7225 631.7325 201.7575 602.4375 162.54 562.275 c 2
 146.475 546.21 l 1
 148.365 451.2375 l 2
 150.7275 358.155 157.3425 289.17 165.8475 273.105 c 0
 168.21 268.8525 170.1 259.875 170.1 253.7325 c 0
 170.1 247.59 173.88 237.195 178.605 231.0525 c 0
 183.33 224.91 193.2525 209.3175 200.8125 196.56 c 0
 207.9 183.33 220.6575 167.7375 228.69 161.1225 c 0
 236.25 154.035 245.2275 146.0025 247.59 142.695 c 0
 271.6875 111.9825 323.19 76.545 356.7375 67.095 c 0
 408.24 52.92 432.3375 49.6125 453.6 53.865 c 0
 460.215 54.81 486.675 58.59 513.135 61.8975 c 2
 560.8575 67.5675 l 1
 586.3725 92.61 l 2
 632.205 137.4975 630.315 133.245 631.26 188.5275 c 0
 632.205 237.195 631.7325 238.6125 615.195 268.38 c 0
 601.965 292.4775 594.8775 300.51 579.285 307.5975 c 0
 568.4175 312.3225 553.2975 316.575 545.7375 316.575 c 0
 528.7275 316.575 518.3325 330.2775 522.585 347.2875 c 0
 524.0025 353.9025 525.8925 359.1 526.365 359.1 c 0
 627.48 370.9125 721.5075 372.33 740.88 362.88 c 0
 749.385 358.6275 754.11 358.6275 760.725 362.88 c 0
 780.57 375.165 789.075 367.605 789.075 338.7825 c 0
 789.075 326.97 785.295 321.3 772.5375 312.795 c 0
 744.66 293.4225 740.4075 283.0275 745.605 244.2825 c 0
 755.055 171.99 742.77 66.15 724.3425 66.15 c 0
 721.035 66.15 718.2 64.26 718.2 61.8975 c 0
 718.2 52.92 671.895 29.295 640.2375 21.735 c 0
 569.835 5.1975 477.225 -2.3625 407.295 2.3625 c 0
 367.1325 5.1975 356.265 7.56 341.6175 17.4825 c 0
 328.86 25.9875 320.8275 28.35 310.4325 26.46 c 0
 302.4 25.0425 293.895 25.515 291.06 27.8775 c 0
 288.225 29.7675 275.4675 35.4375 262.2375 39.69 c 0
 229.1625 50.5575 220.185 58.1175 223.965 72.765 c 0
 226.3275 82.215 224.4375 85.5225 211.68 91.665 c 0
 203.6475 95.9175 192.78 99.225 187.5825 99.225 c 0
 178.605 99.225 178.605 98.7525 185.6925 90.72 c 0
 190.4175 85.995 193.725 79.38 193.725 76.545 c 0
 193.725 67.5675 180.495 69.93 173.4075 80.325 c 0
 170.1 85.05 161.1225 91.665 154.035 94.5 c 0
 142.695 98.7525 141.2775 101.115 144.1125 113.4 c 0
 146.9475 126.1575 146.0025 127.575 135.135 127.575 c 0
 128.9925 127.575 122.3775 125.685 120.4875 123.3225 c 0
 111.51 108.2025 49.14 162.54 34.4925 198.45 c 0
 30.7125 207.4275 24.57 218.295 20.79 222.075 c 0
 3.3075 242.3925 -3.3075 307.5975 10.8675 325.08 c 0
 14.175 329.3325 13.7025 334.53 9.9225 341.6175 c 0
 3.3075 353.9025 2.835 378 6.615 446.04 c 0
 9.9225 502.74 14.6475 521.64 33.075 548.5725 c 0
 40.635 559.9125 47.25 572.1975 47.25 575.505 c 0
 47.25 578.34 49.14 581.175 51.03 581.175 c 0
 52.92 581.175 65.205 594.8775 77.9625 610.9425 c 0
 91.1925 627.48 114.8175 650.6325 130.8825 661.9725 c 0
 147.42 673.3125 160.65 685.5975 160.65 688.905 c 0
 160.65 691.74 163.0125 694.575 165.375 694.575 c 0
 168.21 694.575 170.1 698.8275 170.1 704.025 c 0
 170.1 710.1675 173.4075 713.475 179.0775 713.475 c 0
 184.275 713.475 189 715.8375 189.945 718.6725 c 0
 190.89 721.5075 198.45 726.705 206.955 730.485 c 0
 219.7125 735.6825 222.075 735.6825 222.075 730.0125 c 0
 222.075 720.09 225.855 721.035 246.1725 735.21 c 0
 271.215 752.6925 321.7725 764.0325 356.7375 760.2525 c 0
 375.6375 757.89 390.7575 758.835 401.625 763.0875 c 0
 410.6025 766.395 428.5575 773.01 441.315 778.2075 c 0
685.125 623.7 m 0
 685.125 626.535 683.235 628.425 680.4 628.425 c 0
 678.0375 628.425 675.675 626.535 675.675 623.7 c 0
 675.675 621.3375 678.0375 618.975 680.4 618.975 c 0
 683.235 618.975 685.125 621.3375 685.125 623.7 c 0
569.835 34.4925 m 0
 585.9 48.195 584.01 53.3925 567 43.9425 c 0
 560.385 40.635 553.2975 37.3275 550.4625 35.91 c 0
 547.6275 34.965 547.6275 32.13 550.935 28.8225 c 0
 555.1875 24.0975 559.44 25.515 569.835 34.4925 c 0
EndSplineSet
Validated: 524321
EndChar

StartChar: H
Encoding: 72 72 31
Width: 797
VWidth: 0
Flags: HW
LayerCount: 2
Fore
SplineSet
127.575 714.8925 m 0
 141.2775 718.6725 226.8 713.9475 236.25 708.75 c 0
 251.37 700.7175 247.1175 691.74 225.855 685.125 c 0
 201.7575 677.0925 167.265 645.9075 160.65 626.0625 c 0
 157.815 618.03 154.98 590.625 154.035 565.11 c 0
 152.145 516.915 147.8925 504.63 137.025 517.3875 c 0
 128.9925 527.31 116.7075 526.8375 120.015 516.4425 c 0
 120.96 511.7175 123.795 498.4875 125.2125 487.62 c 0
 128.0475 470.61 129.9375 467.3025 137.025 469.1925 c 0
 144.1125 471.0825 146.0025 467.775 148.8375 450.765 c 0
 150.7275 437.535 149.7825 427.14 145.53 420.525 c 0
 139.86 411.5475 140.805 409.6575 152.6175 401.1525 c 0
 160.65 395.01 165.375 386.9775 165.375 379.4175 c 0
 165.375 369.9675 167.265 368.0775 173.88 370.9125 c 0
 189.945 378 289.6425 382.725 323.6625 378.4725 c 0
 342.5625 376.11 367.605 375.6375 379.89 376.5825 c 0
 398.79 378.945 402.0975 378 405.405 369.0225 c 0
 408.7125 359.1 408.7125 359.1 422.415 370.9125 c 0
 434.2275 380.835 440.8425 382.725 468.72 382.725 c 0
 492.345 382.725 506.52 385.56 520.695 392.6475 c 2
 539.595 402.57 l 1
 536.76 455.0175 l 2
 535.3425 484.3125 531.5625 521.64 528.7275 538.65 c 0
 525.42 555.66 522.585 586.3725 522.585 607.1625 c 0
 522.1125 649.215 513.135 670.95 495.6525 670.95 c 0
 488.0925 670.95 486.675 672.84 489.0375 680.4 c 0
 490.9275 686.07 489.9825 693.1575 487.1475 696.465 c 0
 483.3675 701.19 483.84 704.025 488.565 708.2775 c 0
 498.015 716.31 548.1 710.1675 548.1 701.6625 c 0
 548.1 697.8825 552.825 693.63 558.495 692.2125 c 0
 564.6375 690.3225 572.67 684.18 577.395 678.9825 c 0
 584.4825 670.005 586.3725 669.5325 596.7675 675.2025 c 0
 603.3825 678.9825 612.36 680.4 616.14 678.9825 c 0
 620.3925 677.0925 628.8975 678.0375 635.5125 680.4 c 0
 645.9075 684.18 647.325 683.7075 647.325 674.2575 c 0
 647.325 668.115 643.545 659.1375 638.82 653.94 c 0
 631.7325 646.8525 630.315 636.93 630.315 602.4375 c 0
 630.7875 554.715 626.0625 488.565 617.085 418.1625 c 0
 613.7775 392.175 611.8875 356.265 612.8325 337.8375 c 0
 613.305 319.8825 611.8875 297.675 609.525 288.225 c 0
 606.69 277.83 606.69 256.5675 609.9975 229.1625 c 0
 612.36 206.01 615.195 151.6725 615.6675 109.1475 c 2
 616.6125 31.6575 l 1
 600.075 18.4275 l 2
 584.4825 6.1425 580.23 4.725 531.5625 2.835 c 0
 488.565 0.945 478.17 1.89 471.555 8.0325 c 0
 459.7425 18.4275 461.16 30.7125 473.9175 39.2175 c 0
 480.06 42.9975 493.29 54.3375 504.1575 64.7325 c 0
 527.31 86.94 536.2875 118.5975 532.5075 163.9575 c 0
 531.09 182.8575 532.5075 200.8125 535.815 209.79 c 0
 539.1225 217.8225 541.485 238.6125 541.0125 256.095 c 0
 540.54 282.555 538.1775 290.5875 526.8375 307.125 c 0
 508.41 333.585 501.795 335.9475 463.5225 332.64 c 0
 441.7875 330.2775 428.085 331.2225 423.8325 334.53 c 0
 412.4925 343.98 373.275 340.2 354.8475 327.4425 c 0
 343.98 319.8825 335.0025 317.0475 328.3875 318.9375 c 0
 323.19 320.8275 312.795 322.7175 304.7625 323.19 c 0
 297.2025 324.135 279.2475 326.97 265.545 330.75 c 0
 251.37 334.0575 231.525 335.475 221.13 334.0575 c 0
 210.2625 332.64 197.505 333.1125 191.835 335.475 c 0
 175.2975 341.6175 155.925 335.475 150.7275 322.7175 c 0
 148.365 315.63 148.365 298.1475 151.6725 276.4125 c 0
 155.4525 252.7875 155.4525 239.085 152.6175 234.8325 c 0
 149.7825 231.9975 145.0575 221.13 142.2225 211.68 c 0
 137.4975 197.505 137.4975 192.3075 143.1675 183.33 c 0
 146.9475 177.1875 152.6175 164.43 155.925 154.5075 c 0
 160.65 138.915 160.65 135.135 154.035 128.0475 c 0
 144.585 117.6525 144.1125 102.06 153.09 94.9725 c 0
 156.87 91.665 161.1225 83.6325 162.54 76.545 c 0
 168.21 53.865 180.9675 33.5475 192.3075 30.7125 c 0
 198.45 29.295 203.175 25.9875 203.175 23.625 c 0
 203.175 17.01 192.3075 17.4825 185.22 24.57 c 0
 180.9675 28.8225 177.66 27.8775 170.5725 21.735 c 0
 161.1225 13.23 128.9925 6.615 71.82 1.4175 c 0
 42.9975 -0.945 35.91 0 28.35 7.0875 c 0
 23.1525 11.8125 18.9 20.3175 18.9 25.9875 c 0
 18.9 39.2175 32.6025 80.7975 40.1625 89.775 c 0
 43.47 93.555 47.7225 110.565 49.6125 126.63 c 0
 52.92 154.5075 54.3375 157.3425 66.6225 161.595 c 0
 82.215 166.7925 81.7425 165.8475 75.6 181.44 c 0
 67.5675 203.175 90.72 231.525 110.0925 223.965 c 0
 121.4325 219.7125 128.52 233.8875 123.795 250.8975 c 0
 119.5425 267.9075 110.0925 272.6325 79.38 273.5775 c 0
 64.7325 274.05 60.48 276.4125 53.865 288.6975 c 0
 49.14 298.1475 47.25 309.015 49.14 317.9925 c 0
 50.5575 326.025 49.6125 338.7825 46.7775 346.815 c 0
 42.9975 358.155 42.9975 365.715 48.6675 381.78 c 0
 52.4475 392.6475 53.865 403.0425 51.5025 404.46 c 0
 49.14 405.405 47.25 415.8 47.25 426.6675 c 0
 45.8325 571.2525 39.2175 609.0525 10.8675 644.0175 c 0
 4.725 651.5775 0 662.445 0 668.115 c 0
 0 680.8725 21.735 698.355 40.635 700.245 c 0
 54.81 701.6625 60.0075 692.685 60.9525 663.39 c 0
 61.425 649.215 62.8425 648.27 83.16 644.9625 c 0
 94.9725 643.545 105.3675 642.6 105.3675 643.545 c 0
 105.84 644.49 109.1475 649.6875 112.455 655.83 c 0
 116.7075 662.9175 116.7075 669.06 113.8725 675.2025 c 0
 107.73 686.07 116.7075 712.53 127.575 714.8925 c 0
567 361.935 m 0
 567 365.715 564.6375 368.55 562.275 368.55 c 0
 556.605 368.55 550.4625 355.32 554.2425 351.54 c 0
 558.495 347.2875 567 354.375 567 361.935 c 0
534.87 334.53 m 0
 539.1225 338.7825 538.1775 340.2 529.2 340.2 c 0
 520.2225 340.2 519.2775 338.7825 523.53 334.53 c 0
 527.7825 330.2775 530.6175 330.2775 534.87 334.53 c 0
122.85 179.55 m 0
 122.85 182.385 120.96 184.275 118.125 184.275 c 0
 115.7625 184.275 113.4 182.385 113.4 179.55 c 0
 113.4 177.1875 115.7625 174.825 118.125 174.825 c 0
 120.96 174.825 122.85 177.1875 122.85 179.55 c 0
81.27 240.03 m 0
 84.105 242.865 87.4125 244.755 88.3575 243.81 c 0
 91.1925 240.975 84.105 226.8 79.8525 226.8 c 0
 73.71 226.8 74.655 233.415 81.27 240.03 c 0
EndSplineSet
Validated: 524321
EndChar

StartChar: I
Encoding: 73 73 32
Width: 461
VWidth: 0
Flags: HW
LayerCount: 2
Fore
SplineSet
31.185 723.3975 m 0
 39.69 732.8475 44.415 732.8475 163.485 731.43 c 0
 231.525 730.485 288.6975 728.595 290.115 727.1775 c 0
 291.5325 725.76 293.4225 714.42 293.895 701.6625 c 0
 294.3675 683.235 292.4775 677.565 285.39 673.785 c 0
 267.435 663.39 245.7 636.93 240.975 618.975 c 0
 234.36 594.405 231.0525 424.7775 236.7225 395.4825 c 0
 239.5575 380.835 239.085 364.77 235.7775 350.595 c 0
 232.9425 338.31 230.1075 309.4875 229.1625 285.8625 c 0
 228.2175 262.71 226.3275 223.02 224.4375 198.45 c 0
 219.24 128.0475 233.415 86.94 266.49 75.6 c 0
 274.5225 72.765 287.7525 65.6775 296.2575 60.0075 c 0
 309.015 51.5025 311.85 46.305 311.85 33.075 c 2
 311.85 16.5375 l 1
 274.995 8.505 l 2
 245.2275 1.4175 220.6575 0.4725 137.025 1.4175 c 0
 33.075 2.835 19.845 5.1975 6.1425 23.1525 c 0
 -8.505 42.525 6.1425 59.535 52.4475 76.0725 c 0
 67.5675 81.7425 82.6875 89.3025 85.995 93.0825 c 0
 94.5 103.4775 99.6975 235.305 93.555 281.1375 c 0
 88.3575 319.8825 94.9725 472.0275 104.4225 520.695 c 0
 106.785 534.3975 106.3125 558.0225 103.4775 584.01 c 0
 97.335 631.26 91.1925 642.6 53.3925 671.4225 c 0
 25.0425 692.685 17.955 708.75 31.185 723.3975 c 0
EndSplineSet
Validated: 524321
EndChar

StartChar: L
Encoding: 76 76 33
Width: 740
VWidth: 0
Flags: HW
LayerCount: 2
Fore
SplineSet
182.8575 788.6025 m 0
 193.725 794.745 197.0325 794.745 201.285 788.6025 c 0
 203.175 785.295 210.735 784.8225 221.6025 786.7125 c 0
 246.1725 790.965 273.105 791.4375 298.1475 787.185 c 0
 325.08 783.405 357.6825 757.4175 352.9575 744.66 c 0
 350.595 738.5175 347.76 737.5725 340.6725 741.825 c 0
 333.585 745.1325 329.805 744.66 324.135 738.99 c 0
 319.8825 735.21 316.575 729.54 316.575 727.1775 c 0
 316.575 724.3425 309.4875 722.925 301.455 723.87 c 0
 288.6975 724.815 285.8625 723.3975 285.39 715.365 c 0
 284.445 698.8275 269.325 680.4 256.5675 680.4 c 0
 247.1175 680.4 245.2275 678.9825 248.535 672.3675 c 0
 250.425 667.6425 252.7875 654.4125 253.7325 642.6 c 0
 254.6775 630.7875 257.5125 599.13 259.875 571.725 c 0
 262.71 539.595 262.71 515.4975 259.875 503.2125 c 0
 253.26 476.7525 245.7 363.3525 243.3375 259.875 c 0
 240.975 166.7925 244.755 143.1675 266.0175 119.5425 c 0
 278.775 104.895 311.85 98.7525 363.825 101.115 c 0
 416.2725 103.4775 420.0525 104.895 451.71 128.52 c 0
 464.94 138.4425 478.6425 146.475 482.4225 146.475 c 0
 486.2025 146.475 502.74 159.2325 519.2775 174.825 c 0
 536.2875 190.4175 553.2975 203.175 557.55 203.175 c 0
 561.8025 203.175 570.3075 197.505 576.9225 190.89 c 0
 587.3175 180.0225 588.2625 174.3525 589.68 130.8825 c 0
 591.0975 72.2925 581.175 36.3825 563.22 34.02 c 0
 557.0775 33.075 550.4625 27.405 548.1 20.79 c 0
 543.8475 10.395 541.0125 9.45 514.08 9.45 c 0
 497.5425 8.9775 446.04 8.0325 399.2625 7.0875 c 0
 350.1225 5.67 304.29 6.615 290.5875 9.45 c 0
 272.6325 13.23 249.0075 12.7575 198.45 7.0875 c 0
 115.29 -1.4175 24.57 -1.89 13.7025 6.1425 c 0
 3.78 13.7025 -0.4725 37.3275 5.67 49.6125 c 0
 8.505 54.81 22.68 71.82 37.8 87.4125 c 0
 52.4475 103.005 71.82 125.685 80.325 137.97 c 0
 94.9725 158.76 95.445 162.0675 96.8625 211.2075 c 0
 97.335 239.085 99.6975 266.0175 101.5875 270.27 c 0
 103.4775 274.5225 102.5325 289.17 99.6975 302.4 c 0
 95.445 321.3 95.9175 330.2775 101.5875 345.87 c 0
 106.785 360.99 107.73 379.89 105.3675 427.6125 c 0
 103.005 475.8075 103.95 494.7075 109.62 510.7725 c 0
 113.8725 524.475 115.29 537.2325 112.9275 548.1 c 0
 111.0375 557.55 111.51 573.1425 114.345 584.01 c 0
 119.07 601.02 118.5975 607.1625 110.0925 626.535 c 0
 104.4225 639.2925 98.7525 656.775 96.8625 665.28 c 0
 94.9725 673.785 85.5225 689.3775 75.1275 699.7725 c 0
 57.645 717.7275 55.755 718.2 40.1625 713.9475 c 0
 30.24 711.1125 23.625 711.1125 23.625 713.9475 c 0
 23.625 716.31 19.3725 718.2 14.6475 718.2 c 0
 7.56 718.2 5.67 721.5075 5.67 735.21 c 0
 5.67 755.055 16.5375 770.175 30.7125 770.175 c 0
 35.91 770.175 45.36 773.4825 51.5025 777.735 c 0
 59.535 783.8775 64.7325 784.35 73.2375 780.57 c 0
 85.995 774.9 169.155 780.57 182.8575 788.6025 c 0
537.705 85.05 m 0
 522.585 98.7525 510.3 103.005 510.3 95.445 c 0
 510.3 93.0825 515.4975 88.83 522.1125 85.995 c 0
 533.925 80.325 535.815 76.545 533.925 60.0075 c 0
 533.4525 52.4475 534.3975 52.4475 542.9025 57.645 c 0
 556.1325 65.6775 555.66 68.5125 537.705 85.05 c 0
439.425 66.15 m 0
 439.425 68.985 437.535 70.875 434.7 70.875 c 0
 432.3375 70.875 429.975 68.985 429.975 66.15 c 0
 429.975 63.7875 432.3375 61.425 434.7 61.425 c 0
 437.535 61.425 439.425 63.7875 439.425 66.15 c 0
84.105 24.57 m 0
 82.6875 27.8775 77.9625 31.6575 73.71 32.13 c 0
 68.04 33.5475 65.6775 31.6575 67.095 27.405 c 0
 68.5125 24.0975 73.2375 20.3175 77.49 19.845 c 0
 83.16 18.4275 85.5225 20.3175 84.105 24.57 c 0
EndSplineSet
Validated: 524321
EndChar

StartChar: M
Encoding: 77 77 34
Width: 957
VWidth: 0
Flags: HW
LayerCount: 2
Fore
SplineSet
713.9475 739.4625 m 0
 725.2875 743.2425 735.21 746.0775 735.6825 746.0775 c 0
 736.155 746.55 748.9125 743.2425 763.56 739.4625 c 0
 812.7 726.705 819.315 709.2225 789.075 675.675 c 0
 778.2075 663.8625 768.7575 650.16 767.8125 644.9625 c 0
 748.44 547.155 739.935 406.8225 746.55 281.1375 c 0
 752.6925 164.9025 758.3625 136.08 779.625 110.0925 c 0
 802.7775 82.215 806.5575 50.5575 790.4925 21.2625 c 2
 780.0975 1.89 l 1
 716.7825 0.945 l 2
 667.17 -0.4725 649.215 0.945 632.6775 7.0875 c 0
 621.3375 11.34 605.745 16.065 597.7125 17.4825 c 0
 579.7575 20.79 562.275 32.13 562.275 40.1625 c 0
 562.275 47.25 581.175 63.315 609.9975 80.325 c 0
 631.26 93.0825 645.9075 118.5975 652.5225 153.5625 c 0
 654.4125 163.9575 657.72 180.495 659.61 190.4175 c 0
 661.5 202.23 660.555 212.1525 656.775 219.7125 c 0
 653.4675 226.3275 652.05 237.195 653.94 246.645 c 0
 655.83 255.15 658.1925 282.0825 659.61 306.6525 c 0
 661.9725 347.2875 661.0275 352.485 652.05 365.2425 c 0
 642.1275 378 641.655 382.2525 644.9625 422.415 c 0
 648.27 465.885 648.27 466.3575 635.5125 474.39 c 0
 624.1725 481.95 622.2825 481.95 611.415 474.8625 c 0
 604.8 470.61 597.7125 462.5775 594.8775 456.9075 c 0
 592.515 451.2375 585.4275 438.0075 578.8125 427.6125 c 0
 558.495 395.01 548.1 373.7475 548.1 365.2425 c 0
 548.1 360.5175 539.595 339.7275 529.2 318.9375 c 0
 518.805 298.1475 510.3 278.3025 510.3 274.05 c 0
 510.3 270.27 505.1025 257.5125 498.4875 246.645 c 0
 491.8725 235.305 483.3675 214.0425 479.5875 199.395 c 0
 466.83 151.2 437.0625 68.985 426.6675 50.5575 c 0
 420.9975 41.1075 410.6025 30.24 403.515 27.405 c 0
 392.175 22.2075 389.8125 23.1525 375.165 38.745 c 0
 366.66 48.6675 358.155 62.37 356.265 69.4575 c 0
 354.8475 76.545 349.65 93.555 345.3975 106.3125 c 0
 340.6725 119.5425 334.0575 138.4425 331.2225 148.8375 c 0
 327.915 159.2325 323.6625 171.99 321.7725 177.1875 c 0
 310.4325 204.5925 302.4 226.8 295.3125 249.0075 c 0
 291.06 262.71 285.39 274.995 283.0275 276.4125 c 0
 280.665 278.3025 278.775 283.5 278.775 288.225 c 0
 278.775 293.4225 274.5225 299.565 269.7975 302.4 c 0
 264.6 304.7625 258.93 311.85 257.04 317.52 c 0
 246.645 351.0675 229.635 378 201.7575 404.46 c 0
 185.22 420.0525 170.5725 436.59 168.6825 440.8425 c 0
 163.9575 453.1275 145.53 458.7975 137.025 450.765 c 0
 126.63 440.8425 125.2125 378.945 135.135 368.0775 c 0
 139.86 362.4075 142.2225 354.8475 140.3325 346.815 c 0
 138.915 337.8375 141.2775 329.3325 148.365 319.8825 c 0
 156.87 308.5425 158.2875 300.51 157.3425 268.8525 c 0
 156.87 247.59 153.09 221.13 148.365 206.955 c 0
 139.3875 180.9675 139.3875 162.54 147.42 152.6175 c 0
 150.255 149.31 150.7275 141.2775 149.31 135.135 c 0
 147.8925 128.52 149.7825 113.8725 153.5625 103.005 c 0
 157.3425 91.665 160.65 79.8525 160.65 76.0725 c 0
 160.65 72.2925 168.21 60.48 177.1875 49.14 c 0
 196.56 25.9875 197.0325 23.625 183.8025 23.625 c 0
 178.605 23.625 162.54 17.955 148.365 11.34 c 0
 126.63 0.945 118.5975 -0.4725 97.8075 2.3625 c 0
 84.105 4.2525 70.875 7.56 68.5125 9.45 c 0
 65.6775 11.8125 53.865 11.34 41.58 8.9775 c 0
 9.9225 1.89 1.4175 8.0325 0.945 36.855 c 0
 0 58.59 1.4175 60.48 35.4375 97.8075 c 0
 69.93 135.135 70.875 137.025 70.875 160.1775 c 0
 70.875 173.88 73.71 191.835 77.49 200.34 c 0
 81.27 208.845 82.6875 222.075 81.27 229.635 c 0
 78.9075 242.3925 79.38 242.865 86.94 236.25 c 0
 91.665 232.47 97.335 224.4375 99.6975 218.295 c 0
 105.84 201.7575 108.2025 206.4825 109.1475 237.6675 c 0
 110.0925 267.435 106.3125 275.94 97.335 263.1825 c 0
 88.3575 251.8425 85.05 253.26 85.05 268.8525 c 0
 85.05 287.28 101.115 307.125 109.1475 298.62 c 0
 118.5975 289.6425 125.685 291.5325 131.355 304.7625 c 0
 139.3875 322.245 138.4425 329.805 127.1025 333.1125 c 0
 119.07 335.9475 118.125 338.7825 120.4875 350.595 c 0
 122.85 360.5175 122.3775 363.825 118.5975 361.935 c 0
 115.7625 360.045 113.4 355.32 113.4 351.54 c 0
 113.4 347.76 111.51 344.925 108.675 344.925 c 0
 96.8625 344.925 93.0825 369.0225 91.665 452.1825 c 0
 91.1925 499.905 88.83 541.0125 87.4125 543.375 c 0
 85.995 546.21 82.6875 558.0225 80.325 570.78 c 0
 75.6 597.24 55.755 655.3575 46.7775 669.5325 c 0
 43.47 675.2025 36.855 680.8725 32.13 681.8175 c 0
 27.405 683.235 21.2625 689.85 17.955 696.9375 c 0
 12.7575 708.75 13.23 711.1125 27.8775 723.87 c 0
 41.1075 735.6825 45.8325 737.5725 58.59 734.7375 c 0
 66.6225 732.375 90.2475 730.485 111.51 730.0125 c 0
 161.1225 729.0675 195.1425 713.9475 197.505 692.2125 c 0
 198.45 684.6525 204.12 672.3675 210.2625 665.28 c 0
 217.35 657.2475 220.185 648.7425 218.7675 642.6 c 0
 216.8775 636.4575 219.7125 628.8975 225.855 622.2825 c 0
 231.525 616.6125 240.975 600.075 247.59 585.9 c 0
 254.205 571.725 266.0175 548.5725 274.05 534.87 c 0
 281.61 521.1675 288.225 503.685 288.225 496.5975 c 0
 288.225 489.0375 291.5325 481.95 295.3125 480.5325 c 0
 303.345 477.225 321.3 443.6775 321.3 431.865 c 0
 321.3 427.14 325.5525 414.855 330.75 403.9875 c 0
 335.9475 393.5925 344.925 370.44 351.0675 352.9575 c 0
 359.1 330.2775 371.385 309.96 392.6475 283.5 c 0
 409.185 263.1825 426.195 245.2275 429.975 243.3375 c 0
 438.9525 239.5575 458.7975 254.6775 470.61 275.4675 c 0
 475.8075 284.9175 482.895 310.4325 486.675 331.695 c 0
 489.9825 353.43 499.905 388.395 508.8825 410.13 c 0
 517.3875 431.865 524.475 451.71 524.475 454.545 c 0
 524.475 464.4675 549.045 508.41 562.7475 522.1125 c 0
 571.2525 531.5625 576.45 541.9575 576.45 550.4625 c 0
 576.9225 558.495 589.2075 593.46 604.3275 628.425 c 0
 630.315 689.3775 632.6775 692.685 652.5225 703.08 c 0
 663.8625 709.2225 678.0375 718.6725 683.235 723.87 c 0
 688.905 729.0675 702.6075 736.155 713.9475 739.4625 c 0
EndSplineSet
Validated: 524321
EndChar

StartChar: N
Encoding: 78 78 35
Width: 986
VWidth: 0
Flags: HW
LayerCount: 2
Fore
SplineSet
584.4825 842.94 m 0
 589.68 848.1375 664.335 840.105 675.675 833.0175 c 0
 688.4325 825.4575 691.74 825.4575 730.9575 833.0175 c 0
 787.6575 843.885 800.8875 843.4125 820.26 828.765 c 0
 834.435 817.8975 836.325 813.645 836.325 795.2175 c 0
 836.325 775.845 834.9075 773.955 820.26 767.8125 c 0
 810.3375 763.56 801.8325 755.055 796.635 744.1875 c 0
 792.3825 735.21 785.7675 720.5625 781.515 711.585 c 0
 776.3175 700.245 775.3725 688.905 777.2625 674.73 c 0
 779.625 660.0825 777.2625 642.6 769.7025 614.25 c 0
 760.2525 579.285 758.835 565.11 760.2525 505.575 c 0
 761.1975 467.775 761.1975 405.405 760.2525 366.1875 c 0
 758.835 270.7425 758.835 270.7425 764.505 203.175 c 0
 768.7575 155.925 768.285 137.97 763.0875 113.4 c 0
 754.5825 73.71 751.7475 66.15 744.1875 66.15 c 0
 740.88 66.15 737.1 64.26 736.155 61.8975 c 0
 735.6825 59.535 721.5075 57.1725 705.4425 55.755 c 0
 679.455 53.865 675.675 54.81 675.675 61.8975 c 0
 675.675 66.6225 673.785 71.82 670.95 73.2375 c 0
 668.5875 74.655 666.225 80.325 666.225 85.5225 c 0
 666.225 90.72 662.445 96.39 658.1925 97.8075 c 0
 653.4675 99.6975 643.0725 105.84 635.04 111.9825 c 0
 627.0075 118.125 618.03 122.85 615.195 122.85 c 0
 600.5475 122.85 571.2525 149.7825 557.0775 176.715 c 0
 548.5725 192.3075 533.925 213.0975 524.9475 222.5475 c 0
 515.4975 231.9975 502.2675 245.7 494.7075 253.26 c 0
 471.555 277.83 461.6325 284.9175 446.985 287.7525 c 0
 436.59 290.115 431.865 294.3675 429.975 302.8725 c 0
 427.6125 314.2125 422.415 321.3 396.4275 348.705 c 0
 378.4725 367.605 363.825 390.285 363.825 398.79 c 0
 363.825 412.4925 348.705 429.975 331.2225 437.535 c 0
 312.3225 445.5675 293.4225 465.885 292.95 478.17 c 0
 292.95 487.1475 234.36 538.65 224.4375 538.65 c 0
 206.955 538.65 195.1425 529.2 190.4175 511.7175 c 0
 183.33 487.62 185.6925 356.7375 193.725 335.9475 c 0
 199.395 320.8275 197.9775 237.195 191.3625 200.8125 c 0
 189 189 191.835 182.8575 209.79 162.54 c 0
 226.3275 143.64 236.7225 136.5525 257.04 130.41 c 0
 292.005 119.07 316.575 95.445 316.575 72.2925 c 0
 316.575 54.3375 301.9275 33.075 290.115 33.075 c 0
 286.8075 33.075 274.05 26.46 261.765 17.955 c 2
 239.5575 3.3075 l 1
 157.3425 0.945 l 1
 75.1275 -1.4175 l 1
 52.92 14.175 l 2
 25.515 32.6025 19.845 44.8875 19.3725 83.16 c 0
 19.3725 109.1475 20.79 113.4 33.5475 126.63 c 0
 42.9975 136.5525 52.92 141.75 61.425 141.75 c 0
 68.5125 141.75 76.545 144.585 78.9075 147.8925 c 0
 84.105 154.5075 93.555 191.835 93.555 205.5375 c 0
 93.555 210.735 95.9175 224.4375 99.225 236.25 c 0
 103.005 250.8975 103.005 263.1825 99.6975 276.4125 c 0
 89.775 315.63 89.775 321.3 96.8625 335.9475 c 0
 103.005 347.76 103.4775 352.9575 98.7525 365.715 c 0
 94.5 377.5275 94.5 385.0875 98.7525 396.9 c 0
 107.2575 421.47 104.895 467.3025 94.0275 500.85 c 0
 84.5775 527.31 84.105 533.925 89.3025 559.9125 c 0
 96.39 598.6575 95.9175 618.975 87.885 633.15 c 0
 71.82 661.5 61.425 687.4875 61.425 699.3 c 0
 61.425 713.0025 46.7775 729.54 29.7675 734.265 c 0
 16.065 738.5175 9.45 747.9675 4.725 768.285 c 0
 0.4725 786.24 6.615 803.25 17.01 803.25 c 0
 19.845 803.25 26.9325 808.92 33.5475 815.535 c 0
 50.5575 834.435 68.5125 840.5775 91.1925 835.38 c 0
 102.06 833.0175 119.5425 829.2375 129.9375 827.3475 c 0
 140.3325 825.4575 157.815 819.315 168.6825 813.645 c 0
 179.55 807.975 191.3625 803.25 194.67 803.25 c 0
 198.45 803.25 205.065 795.69 209.79 786.7125 c 0
 218.7675 770.6475 245.2275 746.55 254.205 746.55 c 0
 256.5675 746.55 264.1275 738.045 271.215 728.1225 c 0
 278.3025 717.7275 298.1475 695.9925 315.1575 679.9275 c 0
 346.815 649.215 376.11 613.305 388.8675 588.2625 c 0
 394.5375 577.395 440.37 525.42 462.105 504.63 c 0
 463.995 503.2125 494.235 473.9175 529.2 439.425 c 0
 597.24 373.275 607.635 365.715 635.985 361.4625 c 0
 666.6975 357.21 672.3675 365.2425 673.3125 416.745 c 0
 673.785 440.8425 671.4225 469.1925 668.115 479.5875 c 0
 657.2475 515.025 655.83 529.2 661.5 555.1875 c 0
 665.7525 575.0325 665.7525 590.1525 661.5 615.6675 c 0
 652.5225 671.895 646.8525 679.9275 616.14 680.4 c 0
 606.2175 680.4 581.175 705.915 581.175 715.8375 c 0
 581.175 722.4525 554.715 751.275 548.5725 751.275 c 0
 546.21 751.275 537.705 756.4725 529.6725 763.0875 c 0
 517.3875 773.4825 515.97 777.2625 518.3325 792.855 c 0
 521.64 816.48 541.485 836.325 564.6375 839.16 c 0
 575.0325 840.5775 583.5375 841.995 584.4825 842.94 c 0
798.525 789.075 m 0
 804.195 792.3825 804.195 794.745 799.9425 798.9975 c 0
 795.2175 803.7225 793.3275 803.25 790.965 796.635 c 0
 787.185 786.24 790.02 783.8775 798.525 789.075 c 0
385.0875 463.05 m 0
 383.67 465.885 381.3075 467.775 379.89 467.775 c 0
 378.945 467.775 378 465.885 378 463.05 c 0
 378 460.6875 380.3625 458.325 383.1975 458.325 c 0
 385.56 458.325 386.505 460.6875 385.0875 463.05 c 0
148.365 142.2225 m 0
 145.0575 147.8925 127.575 147.8925 127.575 142.2225 c 0
 127.575 139.3875 129.465 136.5525 131.8275 135.135 c 0
 137.97 131.355 151.6725 137.025 148.365 142.2225 c 0
190.89 129.465 m 0
 179.0775 133.7175 173.88 132.7725 175.77 126.63 c 0
 178.1325 119.5425 198.45 115.29 198.45 121.905 c 0
 198.45 124.74 195.1425 128.0475 190.89 129.465 c 0
233.8875 108.675 m 0
 231.9975 108.675 227.2725 112.455 223.965 117.18 c 0
 218.295 124.2675 217.8225 124.2675 217.35 117.6525 c 0
 217.35 107.73 228.2175 103.005 251.8425 102.06 c 0
 270.27 101.115 274.5225 107.73 262.2375 118.125 c 0
 256.095 122.85 253.26 122.85 246.645 116.235 c 0
 241.92 111.9825 236.25 108.675 233.8875 108.675 c 0
259.875 82.6875 m 0
 259.875 86.4675 256.5675 89.775 252.7875 89.775 c 0
 249.0075 89.775 245.7 86.4675 245.7 82.6875 c 0
 245.7 78.9075 249.0075 75.6 252.7875 75.6 c 0
 256.5675 75.6 259.875 78.9075 259.875 82.6875 c 0
EndSplineSet
Validated: 524321
EndChar

StartChar: O
Encoding: 79 79 36
Width: 915
VWidth: 0
Flags: HW
LayerCount: 2
Fore
SplineSet
318.9375 738.5175 m 0
 329.3325 742.2975 342.09 744.1875 347.2875 742.2975 c 0
 352.485 740.88 378 740.4075 404.46 740.88 c 0
 446.5125 741.825 455.0175 740.4075 479.115 730.0125 c 0
 493.7625 723.3975 512.19 718.2 520.2225 718.2 c 0
 531.09 718.2 539.595 713.0025 554.715 696.9375 c 0
 569.835 681.345 577.395 676.62 584.955 678.9825 c 0
 592.515 680.8725 599.13 676.62 612.36 661.9725 c 0
 622.2825 651.105 634.095 642.6 638.82 642.6 c 0
 653.94 642.6 689.85 600.075 709.2225 558.9675 c 0
 719.145 538.1775 729.54 519.2775 732.375 517.3875 c 0
 743.2425 510.7725 751.275 485.2575 756.4725 440.8425 c 0
 765.9225 358.6275 766.395 335.0025 760.2525 312.3225 c 0
 754.11 289.6425 737.1 253.7325 731.43 251.37 c 0
 729.0675 250.425 727.65 245.7 727.65 240.5025 c 0
 727.65 235.7775 720.09 222.075 711.1125 209.79 c 0
 702.135 197.9775 693.1575 182.385 691.2675 175.77 c 0
 687.4875 158.76 667.17 134.19 622.2825 89.775 c 0
 589.2075 57.1725 581.6475 52.4475 554.715 44.8875 c 0
 538.1775 40.635 516.4425 32.6025 506.9925 27.8775 c 0
 497.07 22.68 485.2575 18.9 479.5875 18.9 c 0
 474.39 18.9 464.94 14.6475 458.325 9.45 c 0
 443.6775 -2.3625 395.955 -3.3075 374.6925 7.0875 c 0
 365.715 11.8125 341.6175 15.12 311.85 16.5375 c 0
 274.05 18.4275 261.2925 20.79 250.8975 27.8775 c 0
 243.3375 33.5475 232.9425 36.3825 226.3275 34.965 c 0
 220.185 34.02 217.8225 34.02 221.13 35.91 c 0
 230.58 40.635 227.2725 48.195 216.8775 44.8875 c 0
 209.79 42.525 200.8125 46.7775 182.8575 61.8975 c 0
 169.155 73.2375 155.4525 86.4675 151.6725 91.1925 c 0
 147.8925 96.39 141.75 99.225 136.5525 97.8075 c 0
 125.685 94.9725 85.05 131.355 85.05 143.64 c 0
 85.05 152.145 66.6225 179.55 50.5575 195.615 c 0
 45.8325 200.34 42.525 207.9 43.9425 212.625 c 0
 44.8875 217.35 44.415 223.965 42.0525 227.2725 c 0
 38.2725 232.9425 37.3275 232.9425 33.5475 227.2725 c 0
 28.8225 219.7125 22.68 226.8 20.3175 242.865 c 0
 16.5375 271.6875 9.9225 307.5975 5.1975 329.3325 c 0
 -1.4175 356.265 0.4725 432.3375 8.0325 458.325 c 0
 10.395 467.3025 25.0425 499.905 39.69 530.145 c 0
 76.545 605.745 113.4 647.7975 165.375 674.73 c 0
 171.99 678.0375 185.6925 686.07 196.0875 692.2125 c 0
 206.4825 698.8275 218.295 704.025 222.5475 704.025 c 0
 226.8 704.025 235.7775 709.2225 243.3375 715.365 c 0
 250.8975 721.98 264.6 727.65 278.3025 729.0675 c 0
 290.115 730.485 308.5425 734.7375 318.9375 738.5175 c 0
366.1875 710.64 m 0
 360.99 720.09 355.32 727.65 353.43 727.65 c 0
 351.54 727.65 345.3975 721.5075 339.255 713.475 c 0
 333.585 705.915 326.025 699.3 322.7175 699.3 c 0
 319.41 699.3 316.575 695.0475 316.575 689.85 c 0
 316.575 681.345 303.8175 671.4225 254.205 641.1825 c 0
 242.865 634.095 232.47 621.3375 190.4175 560.8575 c 0
 184.275 552.3525 177.66 543.375 174.825 540.0675 c 0
 172.4625 536.76 170.1 532.98 170.1 530.6175 c 0
 170.1 528.7275 164.43 521.64 157.815 514.5525 c 0
 146.0025 502.2675 145.53 499.4325 143.64 432.81 c 0
 142.695 395.01 143.64 355.7925 146.0025 346.3425 c 0
 179.0775 215.46 187.5825 198.45 246.645 139.86 c 0
 282.0825 105.3675 301.9275 89.775 324.6075 79.38 c 0
 350.1225 67.095 356.7375 65.6775 366.66 70.4025 c 0
 381.78 77.0175 407.7675 77.0175 414.855 69.93 c 0
 418.635 66.15 421.9425 66.15 427.6125 70.875 c 0
 432.3375 74.655 441.7875 76.0725 455.49 74.1825 c 0
 473.9175 71.3475 477.225 72.765 490.9275 86.94 c 0
 498.96 95.445 504.63 103.4775 502.74 104.895 c 0
 501.3225 106.785 501.3225 110.565 503.2125 113.4 c 0
 506.0475 117.6525 507.9375 117.6525 511.245 112.9275 c 0
 515.025 107.2575 515.97 107.2575 518.3325 112.455 c 0
 519.75 116.235 528.255 125.685 537.705 133.7175 c 0
 546.6825 142.2225 558.495 152.6175 563.22 157.3425 c 0
 567.945 161.595 575.0325 165.375 578.8125 165.375 c 0
 582.5925 165.375 585.9 167.7375 585.9 170.5725 c 0
 585.9 173.88 581.175 174.825 574.56 173.88 c 0
 564.6375 171.99 563.6925 172.935 566.5275 181.44 c 0
 568.89 187.11 575.0325 191.835 580.7025 192.78 c 0
 585.9 193.725 590.625 197.0325 590.625 200.34 c 0
 590.625 204.12 593.9325 209.3175 598.185 213.0975 c 0
 609.0525 222.075 625.59 255.6225 627.0075 271.6875 c 0
 633.6225 351.0675 636.93 377.055 639.765 384.1425 c 0
 642.1275 388.8675 641.1825 395.4825 637.4025 400.2075 c 0
 633.6225 403.9875 629.37 420.525 627.9525 436.59 c 0
 624.645 467.3025 615.195 496.5975 604.3275 509.355 c 0
 597.24 517.86 576.45 551.88 576.45 555.66 c 0
 576.45 556.605 580.7025 557.55 585.9 557.55 c 0
 592.0425 557.55 594.405 559.9125 592.515 564.6375 c 0
 590.625 569.3625 585.9 570.78 578.34 568.89 c 0
 569.3625 566.5275 567 567.945 567 575.0325 c 0
 567 580.23 561.33 589.2075 554.715 595.8225 c 0
 536.76 612.8325 529.2 629.37 534.87 639.765 c 0
 541.0125 651.105 527.7825 666.6975 519.2775 658.1925 c 0
 515.025 653.94 515.4975 650.6325 521.64 644.9625 c 0
 531.09 635.04 531.09 633.15 521.64 633.15 c 0
 517.3875 633.15 513.135 637.4025 511.7175 642.1275 c 0
 509.8275 649.215 506.52 650.6325 494.7075 649.215 c 0
 482.895 647.325 476.7525 649.6875 466.83 659.1375 c 0
 459.27 665.7525 453.6 673.3125 453.6 675.675 c 0
 453.6 678.0375 444.6225 679.9275 433.755 679.455 c 0
 403.0425 678.51 377.055 690.3225 366.1875 710.64 c 0
158.2875 656.775 m 0
 156.87 659.61 153.5625 661.5 150.7275 661.5 c 0
 148.365 661.5 146.475 659.61 146.475 656.775 c 0
 146.475 654.4125 149.7825 652.05 154.035 652.05 c 0
 157.815 652.05 159.705 654.4125 158.2875 656.775 c 0
EndSplineSet
Validated: 524321
EndChar

StartChar: P
Encoding: 80 80 37
Width: 622
VWidth: 0
Flags: HW
LayerCount: 2
Fore
SplineSet
253.7325 774.4275 m 0
 270.7425 779.1525 320.8275 773.01 337.8375 764.505 c 0
 345.87 760.725 357.6825 756 364.2975 754.5825 c 0
 371.385 752.6925 389.34 739.4625 404.46 725.2875 c 0
 420.0525 711.1125 433.755 699.3 435.645 699.3 c 0
 437.535 699.3 444.6225 687.96 451.2375 674.2575 c 0
 457.38 660.555 464.4675 647.7975 465.885 645.9075 c 0
 467.775 644.49 469.1925 612.8325 469.1925 575.9775 c 0
 469.1925 518.805 468.2475 507.9375 461.6325 503.2125 c 0
 453.1275 497.07 450.765 479.5875 457.8525 475.335 c 0
 460.215 473.445 463.5225 463.995 465.4125 454.0725 c 0
 467.775 438.9525 466.3575 432.3375 457.8525 420.9975 c 0
 451.71 412.965 444.15 406.35 440.8425 406.35 c 0
 431.865 406.35 433.2825 398.3175 442.7325 392.6475 c 0
 449.3475 388.8675 449.82 386.9775 444.6225 380.835 c 0
 436.1175 370.44 429.975 371.385 429.975 382.725 c 0
 429.975 393.12 426.6675 394.5375 415.8 387.45 c 0
 410.13 383.67 409.6575 381.3075 414.855 373.275 c 0
 419.58 365.2425 419.58 363.825 412.965 363.825 c 0
 408.7125 363.825 404.46 359.5725 403.0425 354.375 c 0
 401.625 349.1775 398.79 344.925 396.4275 344.925 c 0
 394.065 344.925 383.67 338.7825 373.275 331.2225 c 0
 361.4625 322.7175 345.87 316.575 330.2775 314.685 c 0
 297.675 310.4325 243.81 320.355 236.7225 331.695 c 0
 228.2175 345.87 235.305 351.0675 258.93 348.2325 c 0
 280.1925 345.87 280.665 346.3425 311.85 378 c 0
 360.045 427.14 385.56 458.7975 391.7025 477.6975 c 0
 396.9 494.235 395.01 510.3 387.45 510.3 c 0
 385.56 510.3 382.725 519.2775 381.3075 530.6175 c 0
 378.945 551.4075 371.8575 572.1975 352.9575 614.7225 c 0
 346.3425 628.8975 339.7275 644.9625 338.31 650.6325 c 0
 334.0575 663.39 281.61 694.575 239.085 708.2775 c 0
 214.0425 716.7825 201.285 718.6725 181.9125 715.8375 c 0
 128.52 709.2225 121.4325 678.9825 128.9925 494.235 c 0
 131.355 442.26 130.41 425.25 124.74 411.075 c 0
 118.125 394.5375 118.125 392.6475 129.9375 370.44 c 0
 139.3875 352.9575 141.75 343.035 139.86 330.2775 c 0
 138.4425 320.8275 141.2775 282.555 146.9475 245.2275 c 0
 152.145 207.9 158.2875 163.9575 160.65 147.42 c 0
 163.485 124.74 169.155 110.565 183.8025 87.885 c 0
 214.0425 41.58 210.2625 34.02 148.365 11.34 c 0
 124.74 2.835 107.2575 0 78.435 0 c 0
 34.965 0 18.4275 5.67 7.0875 24.57 c 0
 0 36.855 0 38.2725 15.5925 60.0075 c 0
 39.69 95.445 56.7 126.1575 56.7 135.6075 c 0
 56.7 140.3325 59.535 148.8375 63.315 154.035 c 0
 67.5675 159.705 71.3475 181.44 73.2375 206.01 c 0
 75.1275 229.1625 78.435 253.7325 81.27 261.2925 c 0
 85.05 271.215 84.5775 275.94 79.38 282.555 c 0
 75.6 286.8075 67.095 302.4 60.0075 317.0475 c 0
 47.25 343.035 46.305 348.2325 48.195 411.075 c 0
 48.6675 425.25 46.305 463.5225 42.9975 496.125 c 0
 37.8 549.99 38.745 587.79 45.8325 618.5025 c 0
 48.195 628.425 47.25 629.37 38.2725 627.0075 c 0
 26.46 624.1725 23.625 627.9525 15.12 656.775 c 0
 1.89 702.6075 0.4725 710.64 4.725 715.8375 c 0
 7.0875 718.6725 8.0325 725.76 6.615 731.43 c 0
 4.2525 738.5175 7.56 744.66 17.01 753.165 c 0
 33.5475 766.8675 71.3475 771.5925 174.3525 771.5925 c 0
 211.68 771.12 247.59 772.5375 253.7325 774.4275 c 0
44.415 710.64 m 0
 41.1075 719.145 25.9875 720.5625 20.79 713.0025 c 0
 19.3725 710.1675 20.3175 705.4425 23.1525 702.6075 c 0
 25.9875 699.7725 28.35 693.63 28.35 688.905 c 0
 28.35 684.18 31.185 680.4 34.965 680.4 c 0
 42.525 680.4 48.6675 699.7725 44.415 710.64 c 0
340.2 330.75 m 0
 340.2 333.585 338.31 335.475 335.9475 335.475 c 0
 333.1125 335.475 329.805 333.585 328.3875 330.75 c 0
 326.97 328.3875 328.86 326.025 332.64 326.025 c 0
 336.8925 326.025 340.2 328.3875 340.2 330.75 c 0
EndSplineSet
Validated: 524321
EndChar

StartChar: S
Encoding: 83 83 38
Width: 542
VWidth: 0
Flags: HW
LayerCount: 2
Fore
SplineSet
208.3725 714.8925 m 0
 308.5425 721.5075 343.5075 715.365 374.6925 686.07 c 0
 391.7025 669.5325 392.175 668.115 392.175 635.04 c 0
 392.175 593.9325 389.8125 585.9 376.11 585.9 c 0
 368.55 585.9 360.5175 593.9325 347.76 614.25 c 0
 337.8375 629.8425 326.97 642.6 323.19 642.6 c 0
 319.8825 642.6 312.795 646.8525 308.07 652.05 c 0
 296.73 664.335 227.2725 674.2575 207.9 666.225 c 0
 200.8125 663.39 193.2525 661.5 190.89 661.9725 c 0
 181.44 663.39 175.77 660.555 157.815 644.9625 c 0
 147.8925 635.985 137.025 628.425 134.19 628.425 c 0
 128.0475 628.425 118.125 608.1075 118.125 596.295 c 0
 118.125 591.57 115.7625 585.4275 112.9275 582.5925 c 0
 109.62 579.285 108.2025 566.055 109.62 548.5725 c 0
 111.51 524.0025 113.8725 517.3875 127.1025 503.685 c 0
 135.6075 495.18 157.815 480.06 176.715 471.0825 c 0
 202.23 458.7975 217.35 447.4575 233.8875 427.6125 c 0
 247.59 412.02 261.765 400.2075 269.325 398.79 c 0
 275.94 397.3725 290.5875 388.395 300.9825 378.945 c 0
 311.85 369.0225 326.025 357.6825 333.1125 352.9575 c 0
 344.925 344.4525 363.825 310.4325 380.835 264.6 c 0
 386.0325 250.8975 389.8125 225.3825 390.7575 192.78 c 0
 392.6475 147.8925 391.7025 141.75 383.67 133.7175 c 0
 378.4725 128.9925 373.275 117.6525 371.385 108.675 c 0
 367.605 87.885 365.715 85.5225 340.2 68.5125 c 0
 324.6075 58.1175 321.3 54.3375 327.4425 52.92 c 0
 331.695 51.975 335.475 49.6125 335.475 47.7225 c 0
 335.475 40.635 320.355 23.625 313.74 23.625 c 0
 305.235 23.625 305.235 27.8775 315.1575 38.745 c 0
 327.915 52.92 310.905 49.6125 297.675 35.4375 c 0
 291.5325 28.8225 284.445 24.0975 281.61 24.57 c 0
 278.775 25.0425 266.0175 20.79 253.7325 15.12 c 0
 234.8325 6.615 220.6575 4.725 168.6825 3.78 c 0
 64.7325 1.89 30.7125 11.34 12.7575 48.195 c 0
 4.2525 65.6775 3.3075 74.655 6.615 118.125 c 0
 7.56 132.3 8.9775 146.475 8.9775 149.7825 c 0
 9.45 152.6175 12.7575 158.2875 16.5375 162.0675 c 0
 27.405 173.4075 47.25 165.375 57.645 146.0025 c 0
 62.37 137.025 80.325 114.345 97.8075 95.9175 c 0
 137.97 53.3925 155.4525 47.25 196.56 59.0625 c 0
 219.7125 65.6775 229.1625 71.82 251.8425 94.9725 c 0
 266.49 110.565 278.775 126.1575 278.775 129.465 c 0
 278.775 133.245 281.61 138.4425 285.39 141.2775 c 0
 296.73 150.7275 297.2025 175.77 286.335 206.01 c 0
 277.3575 230.1075 269.325 240.975 235.7775 273.105 c 0
 214.0425 293.895 190.4175 317.0475 183.33 324.135 c 0
 176.2425 330.75 171.5175 338.31 172.935 341.145 c 0
 174.3525 343.5075 174.3525 348.705 172.935 352.9575 c 0
 170.1 359.5725 169.155 359.5725 163.485 352.0125 c 0
 159.2325 346.3425 154.98 344.925 150.7275 347.76 c 0
 146.9475 350.1225 142.2225 352.0125 139.3875 352.0125 c 0
 131.355 352.0125 113.4 365.715 113.4 371.385 c 0
 113.4 379.4175 128.0475 384.1425 134.19 378 c 0
 137.4975 374.6925 137.025 373.275 133.245 373.275 c 0
 129.9375 373.275 127.575 371.385 127.575 368.55 c 0
 127.575 366.1875 132.7725 363.825 139.3875 363.825 c 0
 146.9475 363.825 151.2 366.66 151.2 370.9125 c 0
 151.2 374.6925 149.31 378 146.475 378 c 0
 144.1125 378 141.75 380.835 141.75 384.1425 c 0
 141.75 387.9225 137.4975 394.5375 132.7725 398.79 c 0
 124.74 406.35 123.3225 406.35 119.5425 399.2625 c 0
 117.18 395.4825 107.73 390.7575 98.7525 389.34 c 0
 84.105 386.9775 81.7425 387.9225 76.545 398.79 c 0
 68.985 415.3275 69.4575 418.1625 77.49 411.5475 c 0
 87.885 403.0425 104.4225 414.855 101.5875 428.5575 c 0
 100.17 434.7 98.28 444.15 96.8625 450.2925 c 0
 95.445 456.9075 88.83 463.995 79.38 468.2475 c 0
 68.985 472.5 63.7875 478.6425 63.315 486.675 c 0
 58.59 527.31 52.4475 549.99 44.8875 555.66 c 0
 36.855 561.33 36.855 563.22 42.9975 575.0325 c 0
 46.7775 581.6475 59.535 594.8775 71.3475 603.3825 c 0
 83.6325 611.8875 96.8625 624.645 101.115 630.7875 c 0
 105.3675 637.4025 111.9825 642.6 115.7625 642.6 c 0
 120.4875 642.6 122.85 647.325 122.85 655.83 c 0
 122.85 673.3125 125.685 676.62 156.3975 695.9925 c 0
 176.2425 708.75 189.4725 713.475 208.3725 714.8925 c 0
44.8875 496.125 m 0
 46.305 498.96 48.6675 500.85 50.085 500.85 c 0
 51.03 500.85 51.975 498.96 51.975 496.125 c 0
 51.975 493.7625 49.6125 491.4 46.7775 491.4 c 0
 44.415 491.4 43.47 493.7625 44.8875 496.125 c 0
35.91 463.5225 m 0
 41.58 472.9725 47.25 466.83 47.25 451.2375 c 0
 47.25 439.8975 50.085 433.755 56.7 429.975 c 0
 61.8975 427.14 66.15 422.8875 66.15 420.0525 c 0
 66.15 417.2175 62.8425 417.2175 56.7 420.525 c 0
 46.305 426.195 31.6575 456.9075 35.91 463.5225 c 0
EndSplineSet
Validated: 524321
EndChar

StartChar: T
Encoding: 84 84 39
Width: 792
VWidth: 0
Flags: HW
LayerCount: 2
Fore
SplineSet
18.9 740.4075 m 0
 28.8225 750.33 37.3275 754.11 51.5025 754.5825 c 0
 61.8975 755.055 71.82 753.6375 73.2375 750.8025 c 0
 75.1275 748.44 80.7975 746.55 86.94 746.55 c 0
 92.61 746.55 99.6975 744.1875 102.5325 741.3525 c 0
 106.3125 737.5725 111.0375 738.5175 120.015 744.1875 c 0
 129.465 750.8025 137.025 751.7475 152.6175 748.9125 c 0
 163.485 747.0225 192.78 744.66 217.35 744.1875 c 0
 241.92 743.2425 281.61 741.3525 304.7625 739.4625 c 0
 332.64 737.1 385.56 738.99 458.325 744.66 c 0
 598.6575 756 608.58 755.5275 627.48 741.825 c 2
 642.6 730.485 l 1
 642.6 679.455 l 1
 642.6 628.425 l 1
 629.8425 628.425 l 2
 622.2825 628.425 610.9425 632.205 604.3275 636.93 c 0
 571.2525 658.665 563.6925 663.8625 552.825 673.3125 c 0
 517.3875 704.4975 454.545 700.245 421.9425 665.28 c 0
 416.2725 659.1375 406.8225 643.545 400.68 630.7875 c 0
 389.8125 607.1625 389.8125 606.2175 389.8125 392.175 c 0
 389.8125 172.4625 392.6475 125.2125 408.7125 93.555 c 0
 412.4925 85.5225 415.8 75.1275 415.8 70.875 c 0
 415.8 66.15 420.0525 59.535 425.7225 56.2275 c 0
 435.645 49.6125 435.645 49.14 426.6675 29.295 c 0
 415.3275 2.835 401.1525 -1.4175 333.1125 1.4175 c 0
 242.865 5.67 233.8875 7.0875 209.79 19.3725 c 0
 190.4175 29.295 186.165 33.5475 185.22 45.8325 c 0
 183.8025 59.535 185.6925 61.425 204.12 69.93 c 0
 233.8875 83.6325 249.0075 102.06 257.985 137.025 c 0
 265.0725 163.9575 266.0175 192.78 265.545 369.0225 c 0
 265.545 488.0925 263.1825 578.34 260.3475 588.735 c 0
 257.985 599.13 254.6775 619.92 253.26 635.04 c 0
 249.9525 676.62 247.1175 678.0375 177.66 677.565 c 2
 119.5425 677.0925 l 1
 89.775 656.3025 l 2
 48.6675 627.0075 39.69 623.2275 27.405 626.0625 c 0
 -3.78 634.095 -9.45 711.1125 18.9 740.4075 c 0
EndSplineSet
Validated: 524321
EndChar

StartChar: V
Encoding: 86 86 40
Width: 806
VWidth: 0
Flags: HW
LayerCount: 2
Fore
SplineSet
12.7575 729.0675 m 0
 39.2175 732.8475 46.305 732.375 51.975 725.2875 c 0
 58.59 717.255 71.3475 715.8375 78.435 722.4525 c 0
 84.5775 729.0675 150.255 733.32 153.5625 727.1775 c 0
 155.4525 724.815 148.8375 713.9475 139.3875 703.5525 c 0
 126.63 689.3775 122.85 681.345 124.74 673.785 c 0
 126.1575 667.6425 123.3225 657.72 118.125 649.6875 c 0
 106.3125 631.7325 105.84 609.9975 117.18 606.69 c 0
 149.31 596.7675 154.035 592.0425 159.2325 566.5275 c 0
 162.54 552.3525 166.32 530.6175 167.7375 517.86 c 0
 170.1 499.4325 174.825 490.455 188.5275 476.7525 c 0
 205.065 459.7425 206.4825 455.9625 212.1525 412.4925 c 0
 215.9325 386.9775 221.13 362.88 224.4375 359.1 c 0
 227.745 355.32 232.9425 340.2 236.25 326.025 c 0
 239.5575 311.85 244.2825 298.1475 247.59 295.3125 c 0
 255.6225 288.225 273.5775 245.7 276.885 224.4375 c 0
 278.775 214.0425 283.5 203.175 287.7525 199.8675 c 0
 296.73 193.2525 314.685 191.835 318.465 197.9775 c 0
 319.8825 199.8675 329.805 203.175 340.2 205.065 c 0
 350.595 206.4825 359.1 209.79 359.1 212.1525 c 0
 359.1 214.0425 364.2975 221.6025 370.9125 228.69 c 0
 377.5275 235.7775 382.725 244.755 382.725 249.0075 c 0
 382.725 253.26 388.8675 266.49 396.4275 278.775 c 0
 416.2725 310.905 437.0625 360.5175 448.875 403.9875 c 0
 454.545 424.7775 462.105 450.765 465.885 462.105 c 0
 469.665 472.9725 472.5 489.0375 472.5 497.07 c 0
 472.5 505.1025 478.6425 522.585 486.2025 535.815 c 0
 498.96 558.9675 510.3 592.9875 516.915 627.9525 c 0
 518.805 637.875 516.915 653.4675 512.6625 666.6975 c 0
 505.1025 689.3775 490.9275 699.3 467.3025 699.3 c 0
 462.105 699.3 458.325 701.6625 458.325 704.025 c 0
 458.325 706.86 455.0175 708.75 451.2375 708.75 c 0
 441.7875 708.75 442.26 716.7825 452.655 721.98 c 0
 470.1375 731.43 544.7925 732.8475 585.9 724.815 c 0
 608.1075 720.5625 631.26 716.7825 637.875 715.8375 c 0
 644.49 715.365 651.105 714.42 653.4675 713.9475 c 0
 657.72 713.475 657.72 688.905 652.995 682.29 c 0
 651.105 679.9275 641.655 672.3675 631.7325 666.6975 c 0
 621.81 660.555 611.415 650.6325 609.525 644.49 c 0
 605.2725 633.6225 594.405 630.315 569.835 632.6775 c 0
 551.88 634.095 534.3975 606.2175 548.1 597.7125 c 0
 555.66 592.9875 553.77 578.34 543.8475 569.835 c 0
 538.1775 564.6375 533.925 552.3525 532.035 533.925 c 0
 530.145 518.3325 526.8375 504.63 524.475 503.2125 c 0
 522.1125 501.795 516.915 489.51 512.19 475.8075 c 0
 507.9375 462.5775 501.3225 446.985 498.015 441.7875 c 0
 494.235 436.59 491.4 427.6125 491.4 421.9425 c 0
 491.4 415.8 485.73 402.57 479.115 392.175 c 0
 471.0825 379.89 465.4125 363.3525 463.05 342.09 c 0
 459.7425 317.0475 456.435 307.5975 445.095 295.785 c 0
 421.47 270.27 415.8 258.93 415.8 234.8325 c 0
 415.8 209.79 410.13 197.0325 379.89 150.7275 c 0
 367.605 132.3 356.7375 108.675 353.43 94.0275 c 0
 347.76 67.5675 338.31 51.975 327.915 51.975 c 0
 321.7725 51.975 319.41 45.8325 314.2125 17.955 c 0
 310.4325 -5.67 297.2025 -6.1425 286.335 16.5375 c 0
 282.0825 25.515 276.885 34.02 274.5225 34.965 c 0
 272.16 36.3825 266.49 52.92 262.2375 71.82 c 0
 257.5125 90.72 252.315 108.675 249.9525 111.0375 c 0
 248.0625 113.8725 244.755 127.575 242.865 141.75 c 0
 240.975 155.925 237.6675 170.5725 234.8325 173.88 c 0
 232.47 176.715 229.635 197.9775 228.69 220.185 c 0
 227.745 249.0075 224.4375 264.6 218.7675 273.5775 c 0
 213.57 281.1375 210.2625 295.3125 210.2625 310.4325 c 0
 209.79 328.86 206.4825 339.255 196.56 353.9025 c 0
 189 364.2975 184.275 376.11 185.6925 380.3625 c 0
 190.89 393.5925 143.64 455.9625 121.4325 464.4675 c 0
 114.345 467.3025 113.4 470.61 115.7625 482.895 c 0
 117.6525 491.4 120.4875 498.96 122.3775 499.905 c 0
 137.4975 506.0475 138.4425 509.355 130.41 522.1125 c 2
 122.3775 534.3975 l 1
 108.2025 522.1125 l 2
 100.17 515.4975 91.665 510.3 88.83 510.3 c 0
 86.4675 510.3 77.9625 504.1575 69.93 496.125 c 0
 54.3375 480.5325 44.415 477.225 50.085 490.455 c 0
 53.865 499.4325 53.865 505.1025 49.14 545.265 c 0
 47.25 560.8575 47.7225 574.0875 50.5575 575.9775 c 0
 52.92 577.395 59.535 586.845 65.205 596.7675 c 0
 90.2475 639.765 67.5675 693.63 17.01 711.1125 c 0
 -1.4175 717.255 -3.78 726.705 12.7575 729.0675 c 0
344.925 137.4975 m 0
 338.31 149.31 329.805 148.8375 318.9375 137.025 c 0
 310.4325 127.575 310.4325 127.1025 320.8275 116.7075 c 2
 331.2225 106.3125 l 1
 340.2 117.18 l 2
 347.2875 125.685 348.2325 130.41 344.925 137.4975 c 0
EndSplineSet
Validated: 524321
EndChar

StartChar: W
Encoding: 87 87 41
Width: 1146
VWidth: 0
Flags: HW
LayerCount: 2
Fore
SplineSet
426.6675 685.125 m 0
 443.6775 695.9925 488.0925 697.8825 507.465 689.3775 c 0
 514.08 686.07 523.0575 685.5975 527.7825 687.4875 c 0
 550.935 696.9375 633.15 692.685 633.15 681.8175 c 0
 633.15 674.73 622.2825 661.5 616.6125 661.5 c 0
 612.36 661.5 609.525 657.2475 609.525 651.5775 c 0
 609.525 646.38 601.02 631.7325 590.1525 619.92 c 0
 573.1425 600.075 571.2525 595.8225 573.1425 578.8125 c 0
 574.0875 568.4175 580.7025 545.265 587.79 527.31 c 0
 594.405 509.355 599.6025 489.0375 599.13 482.4225 c 0
 598.6575 475.335 602.4375 465.4125 607.1625 459.27 c 0
 612.36 453.6 619.92 434.7 624.645 416.745 c 0
 628.8975 399.2625 635.04 375.6375 638.3475 363.825 c 0
 641.1825 352.0125 648.7425 329.805 654.885 314.2125 c 0
 661.0275 298.62 669.5325 274.5225 673.785 260.82 c 0
 683.235 231.525 690.795 222.075 706.86 222.075 c 0
 714.42 222.075 718.2 219.24 718.2 213.57 c 0
 718.2 201.285 727.65 193.725 742.2975 193.725 c 0
 752.6925 193.725 756.4725 197.505 764.9775 216.8775 c 0
 770.175 229.635 774.9 243.3375 774.9 247.1175 c 0
 774.9 250.8975 779.1525 259.4025 784.8225 266.49 c 0
 793.3275 277.3575 793.3275 279.2475 787.185 281.61 c 0
 777.735 285.39 777.2625 292.95 786.24 292.95 c 0
 796.635 292.95 798.525 298.62 800.8875 339.7275 c 0
 803.25 378.945 810.3375 394.5375 847.1925 440.8425 c 0
 862.785 460.215 868.9275 481.95 863.2575 497.5425 c 0
 857.115 515.4975 861.84 559.9125 871.7625 574.56 c 0
 876.015 581.175 877.905 588.2625 876.4875 591.0975 c 0
 874.5975 593.46 876.015 599.13 879.3225 603.3825 c 0
 884.52 609.525 883.1025 612.8325 870.345 624.1725 c 0
 858.5325 635.04 850.9725 637.875 838.215 636.93 c 0
 824.985 635.985 819.315 638.3475 812.7 646.8525 c 0
 803.25 659.61 805.14 671.4225 817.8975 683.235 c 0
 825.4575 690.3225 837.7425 691.74 889.7175 692.2125 c 0
 942.6375 693.1575 955.395 691.74 974.7675 683.7075 c 0
 996.975 674.73 996.975 674.2575 996.975 652.5225 c 0
 996.975 635.5125 994.14 628.425 984.69 619.4475 c 0
 978.075 613.305 968.1525 599.13 962.955 588.735 c 0
 957.7575 578.34 945.945 559.44 937.44 546.6825 c 0
 928.4625 533.925 919.9575 517.86 918.0675 510.7725 c 0
 916.65 504.1575 907.2 481.95 896.805 462.105 c 0
 886.8825 442.26 873.18 404.9325 866.565 379.4175 c 0
 860.4225 353.9025 850.9725 324.6075 845.775 313.74 c 0
 840.5775 303.345 836.325 292.4775 836.325 289.6425 c 0
 836.325 286.8075 833.0175 282.0825 829.2375 278.775 c 0
 825.4575 275.4675 822.15 267.9075 822.15 261.765 c 0
 822.15 256.095 820.26 249.9525 817.8975 248.535 c 0
 816.0075 247.1175 811.2825 235.7775 807.975 223.4925 c 0
 804.195 210.735 798.525 196.0875 795.2175 190.89 c 0
 791.4375 185.22 786.7125 164.9025 784.8225 146.0025 c 0
 782.46 126.63 776.3175 101.5875 770.6475 89.775 c 0
 765.45 77.9625 760.725 61.8975 760.725 53.865 c 0
 760.725 44.8875 755.055 32.13 745.605 19.845 c 2
 730.485 0 l 1
 696.9375 0 l 2
 660.0825 0 652.05 4.2525 652.05 23.625 c 0
 652.05 30.7125 646.8525 46.7775 640.2375 59.535 c 0
 633.6225 72.2925 624.1725 98.7525 618.975 118.125 c 0
 601.4925 186.165 586.845 238.6125 579.7575 257.5125 c 0
 575.9775 267.9075 568.89 289.17 564.165 304.7625 c 0
 559.44 320.355 550.935 344.4525 544.7925 358.155 c 0
 538.65 371.8575 533.925 389.34 533.925 397.3725 c 0
 533.925 404.9325 530.6175 419.1075 525.8925 429.03 c 0
 521.64 438.48 517.86 457.8525 517.3875 471.555 c 0
 516.915 492.345 515.025 498.4875 505.575 505.575 c 0
 495.18 513.6075 492.8175 513.6075 480.5325 507.465 c 0
 458.7975 496.125 450.2925 455.9625 466.3575 438.48 c 0
 473.445 430.4475 473.445 429.975 464.4675 429.975 c 0
 454.0725 429.975 442.7325 416.2725 437.535 396.9 c 0
 435.645 390.285 432.3375 380.835 429.975 375.6375 c 0
 409.185 327.4425 395.01 282.555 395.01 262.2375 c 0
 394.5375 248.535 390.285 229.635 384.1425 217.35 c 0
 373.7475 194.67 364.77 164.43 351.54 108.675 c 0
 342.5625 68.985 336.42 54.81 315.1575 22.68 c 0
 300.9825 1.89 298.62 0 280.1925 0 c 0
 263.655 0 257.5125 3.3075 239.085 19.845 c 0
 210.735 46.305 193.725 70.4025 193.725 83.16 c 0
 193.725 88.83 189.4725 98.7525 184.275 105.3675 c 0
 178.1325 112.9275 171.045 136.08 165.375 165.8475 c 0
 160.1775 192.78 154.035 216.405 151.2 219.24 c 0
 148.8375 221.6025 146.475 227.745 146.475 231.9975 c 0
 146.475 236.7225 140.3325 253.26 132.7725 269.325 c 0
 124.74 285.8625 117.18 310.905 115.7625 325.5525 c 0
 113.8725 340.2 108.2025 364.2975 102.5325 379.89 c 0
 94.9725 401.625 94.0275 409.185 98.28 416.2725 c 0
 103.005 423.36 102.06 428.5575 94.0275 444.15 c 0
 88.3575 454.545 78.9075 467.3025 72.765 472.0275 c 0
 66.6225 476.7525 60.0075 487.62 58.59 495.6525 c 0
 56.7 503.685 53.3925 511.7175 51.5025 513.135 c 0
 49.14 514.5525 47.25 519.2775 47.25 524.0025 c 0
 47.25 542.43 30.7125 584.4825 15.5925 604.3275 c 0
 -5.1975 632.205 -4.2525 643.545 19.845 668.115 c 0
 39.69 687.96 40.635 688.4325 68.5125 687.015 c 0
 130.41 683.7075 154.98 679.455 163.0125 670.95 c 0
 170.1 663.39 169.6275 661.0275 159.705 640.71 c 2
 149.31 618.975 l 1
 157.3425 570.78 l 2
 162.0675 544.32 167.7375 520.2225 170.1 517.3875 c 0
 171.99 515.025 178.605 498.96 184.275 481.95 c 0
 189.945 464.94 199.395 438.48 205.5375 422.8875 c 0
 211.68 407.295 219.24 381.78 222.075 366.1875 c 0
 225.3825 350.595 230.58 332.64 233.8875 326.025 c 0
 237.195 319.41 240.975 305.235 242.865 294.3675 c 0
 244.2825 283.5 250.8975 264.6 257.5125 252.315 c 0
 264.1275 240.03 269.325 225.855 269.325 220.6575 c 0
 269.325 209.79 286.8075 189 296.2575 189 c 0
 299.565 189 305.7075 194.67 310.4325 202.23 c 0
 314.685 209.3175 322.7175 220.185 328.3875 226.8 c 0
 334.0575 233.415 341.145 250.8975 344.4525 265.545 c 0
 347.76 280.665 352.485 293.895 354.8475 295.3125 c 0
 357.21 297.2025 359.1 301.455 359.1 305.7075 c 0
 359.1 309.96 367.605 332.64 377.5275 356.265 c 0
 387.9225 379.89 397.3725 404.9325 398.79 412.02 c 0
 400.68 419.1075 405.8775 428.5575 410.6025 433.2825 c 0
 415.8 438.48 421.9425 454.0725 425.25 471.555 c 0
 428.085 488.0925 432.81 507.465 435.645 514.08 c 0
 438.48 521.1675 442.7325 536.2875 445.095 548.1 c 0
 447.4575 559.9125 450.2925 575.0325 451.71 581.6475 c 0
 455.0175 595.8225 429.5025 650.6325 418.1625 655.3575 c 0
 405.8775 659.61 410.6025 675.2025 426.6675 685.125 c 0
307.125 62.8425 m 0
 307.125 69.4575 300.0375 65.6775 286.8075 51.975 c 0
 279.2475 43.9425 275.94 37.8 278.775 37.8 c 0
 284.9175 37.8 307.125 57.1725 307.125 62.8425 c 0
EndSplineSet
Validated: 524321
EndChar

StartChar: Y
Encoding: 89 89 42
Width: 816
VWidth: 0
Flags: HW
LayerCount: 2
Fore
SplineSet
616.6125 722.925 m 0
 635.04 724.815 653.4675 726.705 658.1925 727.1775 c 0
 664.8075 727.65 666.225 723.87 666.225 704.4975 c 0
 666.225 675.2025 662.9175 666.225 651.5775 666.225 c 0
 646.8525 666.225 629.8425 654.885 614.25 641.655 c 0
 598.185 627.9525 575.0325 610.9425 563.22 604.3275 c 0
 550.935 597.7125 540.0675 587.79 538.65 583.065 c 0
 534.3975 567.4725 518.805 548.1 510.7725 548.1 c 0
 506.52 548.1 499.4325 539.595 494.7075 529.6725 c 0
 484.785 507.465 465.885 486.675 456.435 486.675 c 0
 451.71 486.675 448.4025 478.6425 446.5125 459.7425 c 0
 444.15 439.8975 439.8975 428.5575 430.92 419.1075 c 0
 419.1075 406.8225 406.8225 372.8025 406.35 351.0675 c 0
 406.35 345.3975 404.46 335.475 401.625 328.3875 c 0
 397.3725 316.575 396.4275 316.575 385.56 324.135 c 0
 371.8575 332.64 363.825 329.805 363.825 316.1025 c 0
 363.825 309.015 367.1325 307.125 379.4175 307.125 c 2
 395.01 307.125 l 1
 394.5375 232.47 l 2
 394.5375 184.275 392.175 154.5075 388.395 147.8925 c 0
 379.89 132.3 381.3075 101.115 391.23 91.1925 c 0
 412.965 68.985 420.0525 57.645 422.8875 41.58 c 2
 426.195 24.0975 l 1
 387.45 12.285 l 2
 337.365 -3.78 307.125 -3.78 280.1925 11.8125 c 0
 269.325 18.4275 259.875 25.515 259.875 27.8775 c 0
 259.875 29.7675 265.0725 36.3825 271.215 42.0525 c 0
 277.83 48.195 286.335 60.48 290.5875 68.985 c 0
 299.565 88.3575 301.455 138.4425 292.95 148.365 c 0
 283.9725 159.705 279.2475 186.6375 275.94 243.3375 c 0
 274.5225 274.995 270.7425 300.9825 266.0175 309.4875 c 0
 262.2375 317.52 256.095 332.64 252.7875 343.5075 c 0
 249.48 354.375 240.03 371.8575 231.9975 382.2525 c 0
 223.965 392.175 217.35 403.9875 217.35 408.24 c 0
 217.35 418.1625 180.495 458.325 171.99 458.325 c 0
 168.21 458.325 165.375 460.215 165.375 463.05 c 0
 165.375 470.1375 125.685 524.0025 103.005 548.1 c 0
 91.665 559.9125 74.1825 582.12 63.7875 597.7125 c 0
 53.865 613.305 35.4375 635.5125 22.68 647.325 c 0
 1.4175 667.17 0 669.5325 5.1975 680.4 c 0
 18.4275 707.805 29.295 711.1125 106.3125 712.0575 c 0
 145.53 712.0575 187.5825 710.1675 199.8675 707.3325 c 0
 217.35 703.5525 224.91 703.5525 231.525 707.805 c 0
 236.7225 711.1125 244.2825 713.475 248.0625 713.475 c 0
 261.765 713.475 255.15 694.575 231.525 665.28 c 0
 218.7675 649.215 207.9 633.6225 207.9 630.7875 c 0
 207.9 627.9525 211.68 620.3925 215.9325 614.25 c 0
 220.6575 607.635 230.1075 590.625 236.7225 575.9775 c 0
 243.81 561.33 253.7325 545.265 259.4025 540.0675 c 0
 266.0175 533.925 271.215 520.2225 274.5225 500.3775 c 0
 278.775 475.8075 282.555 467.775 294.3675 457.8525 c 0
 306.6525 446.985 308.07 444.15 302.8725 437.535 c 0
 295.785 429.03 299.565 420.525 311.3775 420.525 c 0
 315.63 420.525 327.915 414.3825 338.7825 406.35 c 0
 357.21 392.6475 358.155 392.6475 372.8025 399.735 c 0
 380.835 403.515 387.45 409.185 387.45 411.5475 c 0
 387.45 419.1075 425.25 495.18 447.4575 532.98 c 0
 460.215 554.2425 467.3025 571.2525 465.4125 576.45 c 0
 463.995 581.175 465.4125 585.9 469.1925 587.3175 c 0
 472.9725 588.735 477.225 597.7125 478.6425 607.635 c 0
 482.4225 629.37 468.72 661.5 451.2375 672.84 c 0
 441.7875 678.9825 439.425 684.6525 439.425 699.3 c 0
 439.425 709.695 439.8975 718.2 440.8425 718.6725 c 0
 441.315 718.6725 464.94 720.09 493.29 721.5075 c 0
 539.1225 723.3975 545.7375 722.925 551.4075 715.365 c 0
 556.605 708.2775 558.9675 707.805 570.3075 713.475 c 0
 577.8675 716.7825 598.6575 721.035 616.6125 722.925 c 0
581.175 669.06 m 0
 581.175 681.8175 573.615 683.235 561.33 673.785 c 0
 550.935 666.225 549.99 652.05 559.44 652.05 c 0
 573.615 652.05 581.175 658.1925 581.175 669.06 c 0
529.2 644.9625 m 0
 529.2 654.4125 515.4975 654.4125 511.7175 644.9625 c 0
 510.3 640.71 510.3 636.4575 511.7175 634.5675 c 0
 516.4425 629.8425 529.2 637.4025 529.2 644.9625 c 0
510.3 567.4725 m 0
 510.3 569.835 508.41 571.725 506.0475 571.725 c 0
 500.3775 571.725 494.235 562.275 497.5425 558.9675 c 0
 500.85 555.66 510.3 561.8025 510.3 567.4725 c 0
347.76 369.9675 m 0
 340.6725 378.945 328.3875 380.835 323.6625 372.8025 c 0
 319.41 366.1875 335.0025 349.65 345.87 349.65 c 0
 355.7925 349.65 356.7375 358.155 347.76 369.9675 c 0
323.6625 342.09 m 0
 304.29 354.8475 297.675 352.0125 297.675 331.2225 c 0
 297.675 317.0475 300.51 310.4325 308.07 305.235 c 0
 321.3 295.785 327.915 295.785 324.135 304.7625 c 0
 322.7175 309.015 324.6075 313.2675 328.3875 314.685 c 0
 339.255 318.9375 336.8925 333.585 323.6625 342.09 c 0
354.375 286.335 m 0
 354.375 290.115 352.485 292.95 349.65 292.95 c 0
 347.2875 292.95 344.925 288.6975 344.925 283.0275 c 0
 344.925 277.83 347.2875 274.995 349.65 276.4125 c 0
 352.485 277.83 354.375 282.555 354.375 286.335 c 0
353.43 240.5025 m 0
 355.32 257.985 347.2875 271.215 342.5625 258.93 c 0
 338.31 248.535 341.6175 226.8 347.2875 225.3825 c 0
 350.1225 224.91 352.485 231.525 353.43 240.5025 c 0
372.33 188.5275 m 0
 371.385 202.23 368.55 206.01 360.5175 206.955 c 0
 351.54 208.3725 349.65 206.01 349.1775 195.1425 c 0
 347.76 166.32 353.9025 155.4525 366.1875 165.375 c 0
 371.385 169.6275 373.275 177.66 372.33 188.5275 c 0
EndSplineSet
Validated: 524321
EndChar

StartChar: eacute
Encoding: 233 233 43
Width: 546
VWidth: 0
Flags: HW
LayerCount: 2
Fore
SplineSet
371.385 739.4625 m 0
 382.725 747.9675 380.835 747.9675 389.34 738.99 c 0
 395.01 733.7925 396.9 722.4525 396.9 698.8275 c 0
 396.9 652.05 388.395 638.3475 334.0575 593.46 c 2
 311.3775 575.0325 l 1
 256.095 573.615 l 2
 211.2075 572.1975 198.9225 570.3075 189 562.7475 c 0
 175.77 553.2975 120.4875 548.1 100.6425 555.1875 c 0
 85.5225 560.385 82.215 585.4275 94.5 610.47 c 0
 99.6975 621.3375 103.95 635.985 103.95 643.545 c 0
 103.95 650.6325 106.3125 656.775 109.1475 656.775 c 0
 112.455 656.775 119.07 661.5 124.74 667.6425 c 0
 143.64 687.4875 168.21 694.1025 233.8875 696.465 c 0
 267.9075 697.8825 296.73 698.8275 298.62 698.8275 c 0
 300.51 699.3 309.96 706.86 319.8825 715.8375 c 0
 330.75 725.76 342.5625 732.375 350.1225 732.375 c 0
 356.7375 732.375 366.1875 735.6825 371.385 739.4625 c 0
368.55 711.1125 m 0
 368.55 718.2 358.6275 721.035 352.9575 714.8925 c 0
 346.815 709.2225 349.65 704.025 359.1 704.025 c 0
 364.2975 704.025 368.55 707.3325 368.55 711.1125 c 0
349.65 665.7525 m 0
 349.65 677.565 343.5075 681.8175 336.42 674.73 c 0
 327.915 666.225 329.805 656.775 340.2 656.775 c 0
 346.3425 656.775 349.65 660.0825 349.65 665.7525 c 0
122.85 445.5675 m 0
 126.63 446.985 154.035 447.93 183.33 447.4575 c 0
 231.0525 446.985 237.195 446.04 241.92 438.0075 c 0
 246.1725 429.975 249.9525 429.03 274.05 431.3925 c 0
 299.565 434.2275 302.8725 433.2825 319.41 420.0525 c 0
 343.98 401.1525 367.605 355.7925 367.605 328.3875 c 0
 367.605 310.4325 365.2425 305.235 351.54 292.95 c 0
 336.42 279.72 332.64 278.775 308.07 280.665 c 0
 293.4225 281.61 268.38 285.8625 252.7875 289.17 c 0
 218.7675 297.2025 125.2125 297.2025 109.62 288.6975 c 0
 90.72 278.775 83.6325 252.7875 89.3025 213.57 c 0
 93.555 178.605 120.4875 113.8725 129.9375 113.4 c 0
 132.7725 113.4 143.64 104.895 153.5625 94.5 c 0
 181.44 66.15 225.855 58.1175 269.325 73.2375 c 0
 280.1925 77.0175 303.345 80.325 319.8825 80.325 c 0
 349.65 80.325 350.595 79.8525 347.76 69.4575 c 0
 346.3425 63.7875 344.925 55.2825 344.925 51.03 c 0
 344.925 46.305 341.6175 42.525 337.365 42.525 c 0
 333.1125 42.525 322.245 35.91 312.795 27.8775 c 0
 285.8625 3.78 270.7425 0 207.4275 0 c 0
 153.5625 0 147.8925 0.945 120.4875 13.7025 c 0
 92.1375 26.9325 51.975 65.205 51.975 78.435 c 0
 51.975 81.7425 44.415 95.445 34.4925 109.1475 c 0
 25.0425 122.85 13.23 145.0575 8.505 158.2875 c 0
 -0.945 185.22 -2.835 238.6125 5.1975 257.04 c 0
 9.45 266.0175 9.45 272.16 5.1975 282.0825 c 0
 0.945 292.4775 0.945 301.455 5.67 322.245 c 0
 10.8675 344.925 16.5375 354.375 40.1625 378.945 c 0
 67.095 407.295 107.73 439.8975 122.85 445.5675 c 0
249.48 409.6575 m 0
 243.81 424.7775 234.8325 429.975 229.1625 420.525 c 0
 227.745 418.1625 218.7675 415.8 209.3175 415.8 c 0
 191.3625 415.8 163.485 397.3725 146.475 373.275 c 0
 137.4975 360.5175 137.4975 359.5725 145.0575 338.31 c 0
 152.6175 318.465 154.5075 316.575 172.4625 314.2125 c 0
 193.725 310.905 216.405 317.52 220.185 328.3875 c 0
 222.075 332.1675 228.2175 335.475 234.36 335.475 c 0
 240.5025 335.475 247.59 339.7275 250.425 344.4525 c 0
 257.04 356.7375 256.5675 390.285 249.48 409.6575 c 0
EndSplineSet
Validated: 524321
EndChar

StartChar: oe
Encoding: 339 339 44
Width: 887
VWidth: 0
Flags: HW
LayerCount: 2
Fore
SplineSet
212.625 498.015 m 0
 249.48 508.41 313.2675 495.6525 367.605 467.3025 c 0
 395.01 452.655 407.295 448.875 426.6675 448.875 c 0
 452.1825 448.875 453.6 449.3475 491.4 480.06 c 0
 513.135 497.5425 549.99 507.9375 575.505 503.685 c 0
 584.955 501.795 603.855 498.96 617.085 497.07 c 0
 630.315 495.18 647.325 489.51 654.885 484.785 c 0
 679.9275 468.72 706.3875 437.0625 714.8925 412.4925 c 0
 719.6175 398.79 726.705 385.56 730.485 382.2525 c 0
 739.935 374.6925 739.935 311.85 730.485 311.85 c 0
 726.705 311.85 722.925 309.4875 721.98 306.6525 c 0
 719.145 298.62 695.52 297.2025 673.3125 303.345 c 0
 662.9175 306.18 633.15 309.015 607.635 309.015 c 0
 552.3525 309.4875 547.155 313.2675 557.0775 343.98 c 0
 563.22 362.4075 563.22 363.3525 550.4625 375.165 c 0
 543.375 381.78 534.3975 387.45 531.09 387.45 c 0
 527.7825 387.45 522.585 391.7025 519.75 396.9 c 0
 514.5525 406.8225 496.125 410.13 496.125 401.1525 c 0
 496.125 397.3725 494.235 397.3725 489.51 401.1525 c 0
 480.5325 408.7125 478.17 403.515 479.115 374.22 c 0
 479.5875 353.43 481.95 347.2875 491.4 340.2 c 0
 498.015 335.0025 506.0475 330.75 509.355 330.75 c 0
 516.4425 330.75 516.915 313.74 510.3 309.4875 c 0
 507.465 307.5975 502.2675 308.5425 498.96 311.3775 c 0
 492.345 316.575 481.4775 307.125 466.83 283.5 c 0
 457.38 267.9075 453.1275 216.8775 459.7425 195.615 c 0
 465.885 175.2975 498.4875 137.025 509.355 137.025 c 0
 514.08 137.025 526.8375 131.355 538.65 124.2675 c 0
 554.715 115.29 566.055 111.9825 585.9 111.9825 c 0
 626.0625 111.9825 686.5425 116.7075 695.9925 120.96 c 0
 702.135 122.85 707.805 120.96 714.8925 114.345 c 0
 723.3975 105.84 723.87 102.5325 719.145 92.1375 c 0
 711.1125 74.1825 686.07 48.195 654.885 25.515 c 0
 628.425 5.67 626.0625 4.725 593.46 4.725 c 0
 553.77 4.725 503.2125 17.4825 470.61 34.965 c 0
 438.0075 52.4475 401.1525 51.975 361.935 33.5475 c 0
 293.4225 1.4175 249.48 -5.67 184.275 5.1975 c 0
 159.705 8.9775 148.8375 13.7025 128.0475 29.7675 c 0
 114.345 40.635 99.225 51.975 94.9725 54.3375 c 0
 68.5125 70.875 61.425 77.0175 61.425 84.5775 c 0
 61.425 89.3025 55.2825 101.115 47.7225 110.565 c 0
 40.1625 120.015 32.13 134.6625 30.7125 143.1675 c 0
 28.8225 151.6725 25.515 160.65 23.1525 163.485 c 0
 16.065 171.99 5.1975 230.58 3.78 265.545 c 0
 2.835 289.6425 4.2525 298.62 10.395 305.7075 c 0
 15.12 310.905 21.735 324.6075 25.515 336.8925 c 0
 28.8225 348.705 36.3825 364.2975 42.0525 371.385 c 0
 47.25 378.4725 51.975 386.505 51.975 389.34 c 0
 51.975 398.79 110.565 455.9625 132.3 467.3025 c 0
 144.1125 473.445 156.87 481.4775 161.1225 484.785 c 0
 164.9025 488.565 173.4075 491.4 180.0225 491.8725 c 0
 186.165 491.8725 200.8125 494.7075 212.625 498.015 c 0
321.3 401.1525 m 0
 302.4 417.2175 300.9825 417.2175 253.7325 418.635 c 0
 227.2725 419.58 202.23 419.1075 198.45 417.2175 c 0
 186.6375 412.4925 141.75 362.4075 141.75 353.43 c 0
 141.75 349.1775 137.4975 338.31 132.3 328.86 c 0
 111.51 294.3675 119.07 152.145 142.2225 131.355 c 0
 147.42 127.1025 151.2 121.905 151.2 119.07 c 0
 151.2 110.0925 185.6925 79.8525 199.395 77.0175 c 0
 207.4275 75.6 214.9875 70.4025 215.9325 65.6775 c 0
 217.8225 58.59 222.5475 57.645 254.205 60.0075 c 0
 297.2025 62.8425 341.6175 80.7975 349.1775 97.8075 c 0
 352.0125 103.95 357.21 108.675 360.5175 108.675 c 0
 364.2975 108.675 373.275 117.6525 380.3625 128.52 c 0
 393.5925 148.365 393.5925 149.31 393.5925 222.075 c 0
 393.12 312.795 384.615 347.2875 357.6825 370.44 c 0
 348.2325 378.4725 331.695 392.175 321.3 401.1525 c 0
EndSplineSet
Validated: 524321
EndChar

StartChar: three
Encoding: 51 51 45
Width: 820
VWidth: 0
Flags: HW
LayerCount: 2
Fore
SplineSet
367.1325 1466.1675 m 0
 378 1477.035 378 1477.035 398.3175 1457.19 c 0
 415.3275 1440.6525 417.69 1439.7075 445.5675 1440.6525 c 0
 501.3225 1441.5975 533.4525 1433.565 564.6375 1409.94 c 0
 580.23 1398.6 597.7125 1387.7325 603.3825 1386.315 c 0
 609.0525 1384.8975 614.7225 1378.755 616.14 1373.085 c 0
 617.5575 1367.415 625.1175 1356.5475 632.6775 1348.515 c 0
 640.71 1340.955 647.325 1332.45 647.325 1329.615 c 0
 647.325 1326.78 652.5225 1319.6925 659.1375 1313.55 c 0
 670.005 1303.6275 670.95 1298.9025 670.95 1265.8275 c 0
 670.95 1245.51 668.115 1219.5225 664.335 1208.655 c 0
 660.555 1197.315 656.3025 1182.6675 654.885 1176.0525 c 0
 653.4675 1168.965 646.8525 1158.57 640.2375 1152.4275 c 0
 632.6775 1144.8675 628.425 1135.89 628.425 1126.44 c 0
 628.425 1114.155 623.2275 1106.595 601.965 1087.2225 c 0
 587.79 1073.9925 572.67 1063.125 568.89 1063.125 c 0
 565.11 1063.125 562.275 1059.8175 562.275 1056.0375 c 0
 562.275 1044.225 537.2325 1021.545 521.1675 1018.71 c 0
 508.41 1016.82 503.2125 1018.71 488.565 1032.4125 c 0
 470.1375 1049.895 463.995 1052.2575 461.16 1043.28 c 0
 453.6 1018.71 454.0725 1012.095 465.4125 999.81 c 0
 477.225 987.0525 491.4 983.2725 491.4 993.195 c 0
 491.4 997.4475 492.8175 997.4475 496.5975 993.6675 c 0
 500.3775 989.8875 499.4325 985.1625 493.29 976.185 c 0
 481.95 961.065 474.8625 961.065 454.545 976.6575 c 2
 438.0075 988.9425 l 1
 440.8425 978.075 l 2
 442.26 971.46 439.8975 960.12 434.2275 949.2525 c 0
 429.5025 939.33 425.25 927.045 425.25 922.32 c 0
 425.25 914.2875 404.9325 890.6625 397.845 890.6625 c 0
 389.8125 890.6625 363.825 855.225 363.825 844.3575 c 0
 363.825 825.4575 388.8675 812.7 425.7225 812.7 c 0
 463.05 812.7 518.805 791.91 509.8275 781.515 c 0
 506.9925 777.735 500.3775 774.9 495.18 774.9 c 0
 484.3125 774.9 479.115 763.0875 486.2025 754.11 c 0
 489.51 750.33 490.455 742.2975 488.565 735.21 c 0
 484.3125 717.7275 496.125 719.145 515.025 737.5725 c 0
 526.365 748.9125 529.2 756 528.255 767.34 c 0
 526.8375 780.0975 528.255 781.9875 538.65 783.405 c 0
 548.1 784.35 554.715 779.1525 570.78 757.89 c 0
 582.12 742.2975 590.625 725.76 590.625 718.6725 c 0
 590.625 712.0575 594.8775 699.3 600.5475 690.3225 c 0
 608.58 676.62 609.525 672.3675 604.3275 661.0275 c 0
 600.5475 651.105 600.5475 645.435 603.855 641.1825 c 0
 606.69 637.875 607.635 629.8425 606.2175 623.2275 c 0
 604.3275 615.6675 605.2725 613.305 608.58 616.6125 c 0
 610.9425 619.4475 614.25 625.59 615.195 630.315 c 0
 615.6675 635.04 620.3925 641.655 624.645 644.49 c 0
 634.5675 650.6325 652.05 636.4575 652.05 621.81 c 0
 652.05 616.14 655.3575 606.69 659.61 601.02 c 0
 665.28 592.9875 666.225 584.955 663.8625 570.3075 c 0
 661.9725 559.44 659.61 541.9575 659.1375 531.5625 c 0
 658.665 521.1675 655.83 493.29 652.995 469.1925 c 0
 649.6875 445.095 648.7425 422.415 650.16 418.1625 c 0
 652.05 412.965 650.16 409.6575 644.49 407.7675 c 0
 639.2925 406.8225 630.315 399.2625 624.1725 391.23 c 0
 614.7225 379.4175 613.7775 375.165 618.03 368.0775 c 0
 626.535 354.8475 625.1175 343.035 614.25 332.64 c 0
 608.58 327.915 600.075 318.9375 594.405 312.795 c 0
 588.2625 306.6525 580.7025 303.345 576.45 304.7625 c 0
 563.6925 309.015 557.55 296.73 558.9675 267.435 c 2
 559.9125 240.03 l 1
 544.32 242.865 l 2
 531.09 244.755 526.365 242.865 516.915 232.9425 c 0
 510.3 225.855 504.1575 214.9875 502.2675 208.3725 c 0
 497.5425 187.5825 485.2575 174.825 455.49 159.2325 c 0
 433.2825 146.9475 427.14 141.75 426.195 131.355 c 0
 425.25 122.3775 421.9425 118.125 416.2725 118.125 c 0
 411.5475 118.125 403.9875 113.8725 399.2625 108.675 c 0
 394.5375 103.4775 387.9225 99.225 384.1425 99.225 c 0
 380.835 99.225 378 97.335 378 94.5 c 0
 378 92.1375 380.3625 89.775 382.725 89.775 c 0
 390.7575 89.775 387.9225 79.8525 377.055 70.875 c 0
 370.9125 65.6775 362.4075 62.8425 358.155 64.26 c 0
 352.485 66.15 349.65 64.26 349.65 59.535 c 0
 349.65 55.2825 345.87 51.975 341.6175 51.975 c 0
 331.2225 51.5025 316.575 41.1075 316.575 33.5475 c 0
 316.575 29.7675 311.3775 28.8225 300.0375 31.185 c 0
 286.8075 33.5475 283.0275 32.6025 280.1925 25.515 c 0
 278.3025 20.79 279.2475 16.5375 282.555 15.12 c 0
 290.5875 12.7575 289.6425 4.725 281.1375 4.725 c 0
 277.3575 4.725 274.05 6.615 274.05 8.9775 c 0
 274.05 11.34 267.435 15.5925 259.875 18.4275 c 0
 248.0625 22.2075 244.2825 21.735 237.195 14.6475 c 0
 227.2725 3.78 174.825 -2.835 161.1225 4.725 c 0
 155.925 7.0875 138.915 10.8675 122.85 12.7575 c 0
 107.2575 14.175 93.0825 17.4825 91.665 19.845 c 0
 90.2475 22.2075 96.8625 34.4925 105.84 47.25 c 0
 115.29 60.48 122.85 72.765 122.85 75.1275 c 0
 122.85 80.325 146.0025 83.6325 193.2525 85.05 c 0
 219.7125 85.5225 231.525 87.885 240.03 94.5 c 0
 253.26 104.895 288.225 152.6175 288.225 160.1775 c 0
 288.225 163.0125 292.95 167.7375 299.0925 170.5725 c 0
 311.3775 176.2425 335.475 213.57 335.475 227.2725 c 0
 335.475 232.9425 338.7825 236.25 344.925 236.25 c 0
 352.0125 236.25 355.32 240.5025 357.6825 250.8975 c 0
 359.1 259.4025 364.77 267.435 370.9125 270.27 c 0
 383.1975 275.94 396.9 301.9275 396.9 320.8275 c 0
 396.9 328.3875 402.0975 339.7275 409.185 347.2875 c 0
 419.1075 358.155 420.525 362.88 418.1625 378.4725 c 0
 415.8 392.6475 417.2175 400.68 425.25 413.91 c 0
 434.2275 427.6125 435.645 435.1725 433.2825 455.0175 c 0
 431.3925 468.2475 425.7225 485.2575 420.0525 492.8175 c 0
 413.91 501.795 411.075 510.3 412.965 517.3875 c 0
 414.855 524.475 410.13 540.54 399.735 562.7475 c 0
 386.505 591.0975 381.78 597.7125 372.33 597.7125 c 0
 364.77 597.7125 360.99 601.02 360.045 608.58 c 0
 359.1 614.25 355.7925 618.975 352.9575 618.975 c 0
 349.65 619.4475 338.7825 623.2275 328.3875 628.425 c 0
 317.9925 633.6225 304.7625 637.4025 299.0925 637.875 c 0
 293.4225 637.875 286.335 641.655 283.9725 646.8525 c 0
 275.94 661.0275 246.645 675.675 220.6575 678.0375 c 0
 191.835 680.8725 184.7475 686.5425 192.78 699.3 c 0
 197.9775 707.805 197.505 708.75 188.5275 708.75 c 0
 175.2975 708.75 151.2 690.795 154.035 683.235 c 0
 156.3975 676.62 118.5975 661.5 99.225 661.5 c 0
 94.0275 661.5 83.16 656.775 75.6 651.105 c 0
 59.0625 638.82 52.4475 642.1275 63.315 657.72 c 0
 73.2375 671.895 72.765 675.675 61.425 675.675 c 0
 56.7 675.675 43.47 666.6975 32.6025 656.3025 c 0
 14.175 638.3475 11.8125 637.4025 6.615 644.9625 c 0
 -0.4725 654.885 2.835 681.345 14.6475 704.4975 c 0
 20.79 717.255 33.075 727.65 60.48 743.715 c 0
 80.7975 755.5275 102.06 765.45 106.785 765.45 c 0
 111.9825 765.45 120.4875 768.7575 125.685 772.5375 c 0
 130.41 776.3175 142.2225 779.625 151.2 779.625 c 0
 170.5725 779.625 212.625 804.195 212.625 815.0625 c 0
 212.625 819.315 221.6025 830.655 232.47 840.5775 c 0
 247.59 854.7525 257.5125 859.4775 275.4675 861.84 c 0
 292.95 864.2025 302.4 868.9275 315.63 881.2125 c 0
 324.6075 890.19 333.585 897.75 335.475 897.75 c 0
 337.365 897.75 340.6725 905.31 342.09 914.2875 c 0
 343.98 923.7375 351.54 938.385 359.5725 946.89 c 0
 376.5825 966.735 385.0875 986.1075 394.5375 1030.5225 c 0
 398.79 1049.895 406.35 1070.685 411.075 1077.3 c 0
 420.525 1091.0025 439.425 1161.405 439.425 1183.14 c 0
 439.425 1192.59 434.7 1202.04 424.305 1212.435 c 0
 394.5375 1242.675 386.9775 1249.7625 361.4625 1274.805 c 2
 335.9475 1300.32 l 1
 293.4225 1301.7375 l 2
 259.4025 1302.6825 247.59 1305.045 233.8875 1313.55 c 0
 222.5475 1320.6375 214.9875 1322.5275 212.1525 1319.6925 c 0
 209.3175 1316.8575 210.2625 1313.0775 214.9875 1308.825 c 0
 227.2725 1298.43 223.02 1295.595 191.3625 1293.705 c 0
 156.87 1291.815 147.42 1285.2 137.97 1256.3775 c 0
 131.355 1237.005 88.3575 1190.7 77.0175 1190.7 c 0
 73.2375 1190.7 63.7875 1185.5025 55.755 1178.8875 c 0
 40.635 1166.13 31.185 1164.7125 12.285 1171.8 c 0
 1.89 1175.58 0 1179.36 0 1196.8425 c 0
 0 1213.8525 2.835 1219.995 16.5375 1233.225 c 0
 27.405 1243.62 33.075 1253.5425 33.075 1262.0475 c 0
 33.075 1271.4975 35.91 1275.2775 44.415 1277.64 c 0
 51.03 1279.0575 57.1725 1284.7275 59.0625 1289.925 c 0
 62.37 1300.32 110.565 1351.35 117.18 1351.35 c 0
 119.5425 1351.35 128.0475 1359.855 136.5525 1370.25 c 0
 145.53 1381.59 155.4525 1389.15 161.595 1389.15 c 0
 167.265 1389.15 192.78 1400.9625 218.295 1415.1375 c 0
 243.81 1429.3125 268.38 1441.125 273.105 1441.125 c 0
 277.83 1441.125 286.8075 1444.905 292.95 1449.63 c 0
 300.9825 1454.8275 313.74 1457.6625 331.695 1457.6625 c 0
 351.0675 1457.6625 360.99 1460.025 367.1325 1466.1675 c 0
297.675 1405.6875 m 0
 297.675 1409.4675 295.785 1412.775 292.95 1412.775 c 0
 290.5875 1412.775 288.225 1409.4675 288.225 1405.6875 c 0
 288.225 1401.9075 290.5875 1398.6 292.95 1398.6 c 0
 295.785 1398.6 297.675 1401.9075 297.675 1405.6875 c 0
277.83 1383.9525 m 0
 278.775 1386.7875 275.94 1389.15 271.6875 1389.15 c 0
 267.435 1389.15 264.6 1386.7875 265.545 1383.9525 c 0
 266.49 1381.1175 269.325 1379.2275 271.6875 1379.2275 c 0
 274.05 1379.2275 276.885 1381.1175 277.83 1383.9525 c 0
249.0075 1344.2625 m 0
 249.9525 1362.2175 241.92 1366.47 231.0525 1353.24 c 0
 226.8 1348.0425 226.3275 1343.79 230.1075 1338.12 c 0
 239.085 1323.4725 248.0625 1326.3075 249.0075 1344.2625 c 0
188.055 1340.955 m 0
 189.4725 1355.13 185.22 1360.3275 178.1325 1352.7675 c 0
 176.2425 1351.35 174.825 1343.79 174.825 1336.23 c 0
 174.825 1317.33 186.165 1321.5825 188.055 1340.955 c 0
335.475 1332.9225 m 0
 335.475 1338.5925 322.7175 1338.12 318.9375 1332.45 c 0
 313.74 1324.4175 321.3 1317.33 328.86 1323.4725 c 0
 332.64 1326.3075 335.475 1330.56 335.475 1332.9225 c 0
122.85 1280.9475 m 0
 122.85 1283.31 120.96 1285.2 118.5975 1285.2 c 0
 112.9275 1285.2 106.785 1275.75 110.0925 1272.4425 c 0
 113.4 1269.135 122.85 1275.2775 122.85 1280.9475 c 0
646.38 1260.1575 m 0
 645.435 1264.8825 641.1825 1269.135 636.4575 1270.08 c 0
 625.1175 1272.4425 626.535 1262.9925 638.3475 1256.85 c 0
 646.8525 1252.125 647.7975 1252.5975 646.38 1260.1575 c 0
77.49 1215.27 m 0
 73.2375 1222.3575 63.7875 1218.5775 55.2825 1207.2375 c 0
 44.415 1191.645 53.865 1186.92 68.04 1200.6225 c 0
 74.655 1206.765 78.435 1213.38 77.49 1215.27 c 0
630.315 1178.415 m 0
 626.0625 1190.2275 618.975 1187.3925 618.975 1174.1625 c 0
 618.975 1167.5475 620.865 1162.35 623.2275 1162.35 c 0
 630.315 1162.35 633.6225 1169.91 630.315 1178.415 c 0
528.255 1170.855 m 0
 524.9475 1174.1625 521.1675 1176.525 519.75 1176.525 c 0
 514.08 1176.525 505.575 1164.7125 505.575 1156.68 c 0
 505.575 1150.065 501.795 1148.175 488.565 1148.175 c 0
 475.335 1148.175 472.0275 1146.285 473.445 1140.1425 c 0
 474.39 1135.89 481.95 1130.6925 489.9825 1128.33 c 0
 503.685 1125.0225 506.9925 1125.9675 519.75 1139.1975 c 0
 535.3425 1155.735 536.76 1162.35 528.255 1170.855 c 0
603.855 1145.34 m 0
 598.185 1149.5925 592.0425 1152.4275 590.625 1151.955 c 0
 589.2075 1151.955 578.8125 1150.065 567 1148.6475 c 2
 545.7375 1145.8125 l 1
 560.8575 1137.3075 l 2
 569.3625 1133.055 580.7025 1129.275 585.9 1129.275 c 0
 592.515 1129.275 597.24 1125.495 598.6575 1119.825 c 0
 601.965 1106.595 611.415 1110.375 613.305 1125.495 c 0
 614.25 1134 611.415 1140.1425 603.855 1145.34 c 0
498.015 1107.54 m 0
 495.18 1115.1 486.2025 1117.4625 480.5325 1111.7925 c 0
 476.28 1107.54 476.28 1086.75 481.005 1086.75 c 0
 489.9825 1087.2225 500.85 1100.4525 498.015 1107.54 c 0
460.215 734.265 m 0
 464.94 753.6375 452.655 757.89 437.535 742.77 c 2
 425.25 729.0675 l 1
 436.59 716.7825 l 2
 442.7325 710.1675 449.3475 697.8825 451.2375 689.85 c 0
 455.9625 668.5875 469.1925 662.445 509.355 663.8625 c 0
 543.375 664.8075 552.3525 669.06 552.825 683.235 c 0
 552.825 689.3775 503.685 696.9375 496.125 692.2125 c 0
 493.29 690.3225 483.3675 696.9375 474.39 705.915 c 0
 461.16 719.145 457.8525 725.76 460.215 734.265 c 0
543.8475 716.7825 m 0
 547.6275 720.5625 547.6275 724.815 544.32 730.485 c 0
 540.0675 738.045 539.595 737.5725 536.2875 728.1225 c 0
 532.5075 715.8375 536.76 709.695 543.8475 716.7825 c 0
415.8 727.65 m 0
 415.8 730.485 413.91 732.375 411.5475 732.375 c 0
 408.7125 732.375 405.405 730.485 403.9875 727.65 c 0
 402.57 725.2875 404.46 722.925 408.24 722.925 c 0
 412.4925 722.925 415.8 725.2875 415.8 727.65 c 0
581.175 562.275 m 0
 581.175 565.11 580.23 567 579.285 567 c 0
 577.8675 567 575.505 565.11 574.0875 562.275 c 0
 572.67 559.9125 573.615 557.55 575.9775 557.55 c 0
 578.8125 557.55 581.175 559.9125 581.175 562.275 c 0
473.445 421.47 m 0
 472.5 425.7225 465.885 433.2825 459.27 437.535 c 2
 447.4575 445.095 l 1
 450.765 427.14 l 2
 452.655 416.745 455.0175 403.0425 455.49 395.955 c 0
 456.435 388.8675 459.7425 379.4175 463.5225 375.165 c 0
 469.665 368.0775 470.61 369.495 472.9725 390.285 c 0
 474.39 403.0425 474.8625 417.2175 473.445 421.47 c 0
477.6975 356.265 m 0
 473.445 357.6825 467.775 360.5175 464.4675 361.935 c 0
 454.0725 366.66 447.93 346.3425 455.0175 332.1675 c 0
 461.16 320.8275 461.16 317.9925 452.655 306.6525 c 0
 445.095 296.73 444.15 291.06 447.4575 280.665 c 0
 449.82 273.5775 454.545 266.49 457.38 265.545 c 0
 463.05 263.655 464.94 266.9625 469.665 289.6425 c 0
 472.5 300.9825 474.39 301.9275 485.2575 299.565 c 0
 496.5975 296.2575 497.5425 297.2025 494.235 309.96 c 0
 492.8175 317.52 489.9825 330.2775 488.565 338.7825 c 0
 486.675 346.815 481.95 354.8475 477.6975 356.265 c 0
564.6375 332.1675 m 0
 569.3625 335.9475 571.2525 339.7275 568.89 341.145 c 0
 563.6925 344.4525 543.375 335.475 543.375 329.805 c 0
 543.375 324.135 554.715 325.08 564.6375 332.1675 c 0
512.6625 259.875 m 0
 508.8825 266.49 504.63 266.0175 492.8175 257.5125 c 0
 480.06 248.535 483.3675 236.25 498.4875 236.25 c 0
 509.8275 236.25 518.3325 250.425 512.6625 259.875 c 0
456.435 251.8425 m 0
 449.3475 261.2925 446.04 261.765 441.315 254.205 c 0
 439.425 251.37 441.7875 246.1725 446.5125 242.3925 c 0
 462.5775 231.0525 468.2475 236.25 456.435 251.8425 c 0
428.5575 216.405 m 0
 429.975 219.7125 429.5025 223.965 428.085 225.3825 c 0
 426.6675 227.2725 425.25 224.4375 425.7225 219.24 c 0
 425.7225 214.0425 427.14 212.625 428.5575 216.405 c 0
402.57 189 m 0
 397.845 189 391.7025 191.3625 388.395 194.67 c 0
 384.1425 198.9225 382.725 197.505 382.725 188.5275 c 0
 382.725 173.4075 403.9875 151.6725 411.5475 159.2325 c 0
 419.58 167.265 412.4925 189 402.57 189 c 0
378 117.6525 m 0
 378 123.795 370.44 128.0475 366.66 124.2675 c 0
 361.4625 119.07 363.825 113.4 370.9125 113.4 c 0
 374.6925 113.4 378 115.29 378 117.6525 c 0
321.3 89.3025 m 0
 321.3 97.8075 307.5975 98.28 300.51 90.2475 c 0
 292.4775 81.27 290.5875 70.875 296.73 70.875 c 0
 302.4 70.875 321.3 85.05 321.3 89.3025 c 0
373.275 81.27 m 0
 373.275 83.16 371.385 85.05 369.0225 85.05 c 0
 362.4075 85.05 358.155 76.545 362.88 73.71 c 0
 367.605 70.875 373.275 75.1275 373.275 81.27 c 0
EndSplineSet
Validated: 524321
EndChar

StartChar: parenleft
Encoding: 40 40 46
Width: 485
VWidth: 0
Flags: HW
LayerCount: 2
Fore
SplineSet
280.665 1038.555 m 0
 293.4225 1048.4775 319.8825 1051.3125 329.3325 1043.28 c 0
 338.31 1036.1925 336.8925 1001.2275 326.97 987.525 c 0
 310.905 964.845 214.515 869.8725 203.175 865.62 c 0
 195.1425 862.3125 185.22 849.0825 172.4625 824.04 c 0
 162.0675 803.25 149.7825 783.8775 145.53 780.57 c 0
 140.805 777.2625 137.025 769.7025 137.025 764.505 c 0
 137.025 758.835 130.8825 743.715 123.3225 730.0125 c 0
 114.8175 714.8925 102.5325 676.62 90.72 628.425 c 0
 73.2375 558.495 71.3475 545.265 72.765 503.2125 c 0
 73.71 477.225 77.0175 447.4575 79.8525 436.59 c 0
 82.6875 425.7225 84.5775 405.405 84.5775 391.23 c 0
 84.105 377.055 86.4675 360.99 89.3025 355.32 c 0
 92.1375 349.65 95.445 335.0025 96.39 322.245 c 0
 98.7525 297.2025 115.7625 259.4025 143.64 217.8225 c 0
 153.09 204.12 160.65 190.89 160.65 188.5275 c 0
 160.65 177.1875 202.23 129.9375 224.4375 115.29 c 0
 231.0525 111.0375 236.25 104.895 236.25 101.5875 c 0
 236.25 98.28 238.14 94.5 240.03 93.555 c 0
 242.3925 93.0825 257.04 77.49 272.6325 60.0075 c 0
 299.565 29.295 300.9825 26.9325 296.2575 13.7025 c 0
 291.5325 1.89 288.225 0 274.05 0 c 0
 264.6 0 249.0075 4.2525 238.6125 9.45 c 0
 228.2175 14.6475 217.8225 18.9 214.9875 18.9 c 0
 208.845 18.9 127.575 95.445 127.575 101.5875 c 0
 127.575 103.95 120.96 112.9275 112.455 121.4325 c 0
 94.5 139.86 77.9625 182.385 65.6775 240.975 c 0
 63.315 252.315 54.81 270.27 46.7775 279.72 c 0
 37.8 291.5325 31.185 306.18 28.8225 321.3 c 0
 26.9325 334.53 21.735 348.705 17.4825 353.43 c 0
 12.285 359.5725 10.395 372.8025 9.9225 407.295 c 0
 9.45 432.3375 7.0875 458.7975 4.725 465.885 c 0
 -0.945 480.5325 -0.4725 569.835 5.67 616.6125 c 0
 8.0325 635.04 18.4275 676.1475 28.8225 708.75 c 0
 43.9425 755.055 55.755 781.0425 85.5225 830.1825 c 0
 105.84 864.675 122.85 894.915 122.85 897.2775 c 0
 122.85 908.6175 188.5275 978.075 206.955 986.1075 c 0
 214.9875 989.415 222.075 995.5575 222.075 998.865 c 0
 222.075 1010.6775 250.425 1035.2475 260.3475 1032.4125 c 0
 265.545 1030.5225 274.05 1032.885 280.665 1038.555 c 0
EndSplineSet
Validated: 524321
EndChar

StartChar: parenright
Encoding: 41 41 47
Width: 442
VWidth: 0
Flags: HW
LayerCount: 2
Fore
SplineSet
36.855 1035.72 m 0
 46.305 1039.9725 54.81 1043.7525 54.81 1043.7525 c 0
 55.2825 1044.225 67.095 1036.665 80.7975 1027.215 c 0
 113.8725 1005.0075 146.475 967.2075 146.475 950.67 c 0
 146.475 937.44 163.0125 916.65 173.4075 916.65 c 0
 177.1875 916.65 182.8575 909.5625 186.6375 901.53 c 0
 189.945 893.025 197.0325 880.74 201.7575 874.125 c 0
 217.8225 853.335 245.7 791.91 245.7 777.2625 c 0
 245.7 769.23 249.0075 758.3625 252.7875 752.6925 c 0
 261.765 739.935 272.6325 706.86 276.4125 680.4 c 0
 278.775 665.7525 276.4125 647.325 270.27 622.755 c 0
 261.2925 587.3175 261.2925 585.4275 269.325 554.2425 c 0
 274.5225 533.925 280.1925 521.64 284.9175 520.695 c 0
 291.06 519.2775 292.005 510.7725 290.115 459.7425 c 0
 289.17 426.195 285.8625 397.3725 283.0275 393.5925 c 0
 279.72 390.285 278.775 381.3075 280.1925 373.7475 c 0
 283.9725 355.7925 255.15 276.885 224.91 219.7125 c 0
 220.6575 212.1525 217.35 202.23 217.35 197.9775 c 0
 217.35 194.1975 212.1525 185.6925 206.01 180.0225 c 0
 199.8675 173.88 189.945 155.925 183.8025 140.3325 c 0
 174.825 116.235 165.8475 103.4775 132.7725 70.4025 c 0
 86.94 24.57 60.0075 7.0875 26.9325 2.3625 c 0
 8.505 0 4.725 0.4725 4.725 6.615 c 0
 4.725 10.8675 8.0325 14.175 11.8125 14.175 c 0
 21.2625 14.175 20.79 17.4825 9.45 31.6575 c 0
 4.2525 38.2725 0 47.25 0 51.5025 c 0
 0 59.535 31.185 96.39 79.8525 145.53 c 0
 114.345 180.495 160.65 240.03 160.65 249.0075 c 0
 160.65 252.315 168.21 266.49 177.1875 280.1925 c 0
 194.67 306.18 204.5925 340.2 215.46 408.7125 c 0
 219.24 432.3375 224.4375 457.8525 227.2725 465.885 c 0
 237.195 497.07 230.1075 608.1075 215.9325 644.9625 c 0
 212.1525 655.3575 206.01 677.565 202.7025 694.575 c 0
 199.8675 711.585 191.3625 738.045 183.8025 753.6375 c 0
 176.715 769.23 166.32 796.1625 160.65 812.7 c 0
 155.4525 829.71 141.2775 859.95 129.465 879.795 c 0
 118.125 900.1125 108.675 919.0125 108.675 922.32 c 0
 108.675 925.6275 94.5 944.055 77.9625 963.4275 c 0
 60.9525 982.8 46.305 1002.1725 44.8875 1006.8975 c 0
 41.1075 1017.765 34.965 1018.2375 29.295 1008.315 c 0
 25.9875 1002.1725 24.57 1002.1725 19.845 1007.8425 c 0
 11.34 1017.765 17.01 1026.7425 36.855 1035.72 c 0
31.185 997.4475 m 0
 35.4375 1004.535 44.8875 999.81 44.8875 990.8325 c 0
 44.8875 986.58 51.03 977.13 58.1175 969.57 c 0
 71.3475 955.395 74.1825 949.725 66.15 949.725 c 0
 52.92 949.725 25.0425 987.525 31.185 997.4475 c 0
EndSplineSet
Validated: 524321
EndChar

StartChar: exclam
Encoding: 33 33 48
Width: 320
VWidth: 0
Flags: HW
LayerCount: 2
Fore
SplineSet
37.8 447.4575 m 0
 61.425 455.0175 98.7525 449.82 112.9275 436.59 c 0
 123.3225 427.14 124.74 421.47 124.74 395.955 c 0
 124.74 353.43 115.29 272.16 109.1475 260.82 c 0
 106.3125 255.6225 103.95 235.305 103.95 215.9325 c 0
 103.95 170.1 101.5875 168.21 51.975 174.3525 c 0
 51.03 174.825 52.4475 177.1875 55.755 180.495 c 0
 64.26 189 62.37 208.3725 51.5025 226.8 c 0
 45.36 236.7225 40.635 253.7325 39.2175 269.325 c 0
 38.2725 283.5 35.91 300.51 34.4925 307.125 c 0
 33.075 313.74 31.185 321.3 30.7125 323.6625 c 0
 30.7125 326.4975 27.8775 333.585 25.0425 340.2 c 0
 22.2075 346.815 18.4275 359.5725 16.5375 368.55 c 0
 14.6475 377.5275 9.9225 390.7575 6.615 397.845 c 0
 -6.615 423.36 0.945 435.1725 37.8 447.4575 c 0
50.085 94.0275 m 0
 59.535 105.84 66.15 108.675 80.325 108.675 c 0
 90.2475 108.675 104.4225 105.3675 111.51 101.5875 c 0
 119.07 97.8075 128.9925 94.5 133.7175 94.5 c 0
 137.97 94.5 148.365 87.4125 155.925 79.38 c 0
 168.21 65.6775 170.1 60.48 168.6825 40.635 c 0
 167.7375 22.2075 165.375 15.5925 155.4525 8.505 c 0
 144.585 0.4725 139.86 0 106.3125 4.2525 c 0
 65.205 9.45 51.5025 19.3725 42.525 51.5025 c 0
 35.91 75.6 36.3825 77.9625 50.085 94.0275 c 0
EndSplineSet
Validated: 524321
EndChar

StartChar: question
Encoding: 63 63 49
Width: 447
VWidth: 0
Flags: HW
LayerCount: 2
Fore
SplineSet
39.69 720.5625 m 0
 48.6675 724.815 62.37 726.2325 75.1275 724.815 c 0
 102.06 721.5075 159.705 695.0475 163.0125 684.6525 c 0
 165.8475 676.62 180.9675 664.335 200.8125 654.4125 c 0
 206.01 652.05 214.9875 640.2375 221.13 628.425 c 0
 226.8 616.6125 237.6675 601.4925 244.755 593.9325 c 0
 251.8425 586.845 261.2925 577.395 265.545 572.67 c 0
 270.27 567.945 279.2475 550.935 285.8625 534.87 c 0
 295.785 510.7725 297.675 498.015 297.675 460.215 c 0
 297.675 419.1075 296.2575 411.075 283.9725 385.0875 c 0
 268.38 352.485 267.9075 352.0125 217.35 340.2 c 0
 165.8475 328.3875 128.0475 308.5425 111.9825 285.39 c 0
 101.115 269.7975 98.7525 260.82 97.8075 235.305 c 0
 96.8625 200.8125 90.2475 189 71.3475 189 c 0
 53.3925 189 41.58 217.8225 38.745 270.27 c 0
 35.91 329.3325 40.1625 352.9575 55.755 360.99 c 0
 62.8425 364.77 75.6 374.22 84.105 382.2525 c 0
 92.61 390.285 105.3675 397.845 112.455 399.735 c 0
 151.2 407.7675 168.6825 413.91 175.2975 422.415 c 0
 179.55 428.085 189.945 439.425 197.9775 447.4575 c 0
 211.68 462.105 214.515 471.0825 212.625 494.7075 c 0
 212.1525 500.3775 214.515 509.355 217.35 514.5525 c 0
 220.6575 521.1675 220.6575 530.6175 217.8225 544.32 c 0
 214.9875 555.66 212.1525 572.1975 210.2625 581.6475 c 0
 208.3725 595.35 205.065 599.13 191.3625 604.3275 c 0
 181.9125 607.635 168.6825 609.0525 161.1225 607.1625 c 0
 151.2 605.2725 142.695 607.635 128.52 617.085 c 0
 117.6525 624.1725 108.675 631.7325 108.675 634.095 c 0
 108.675 635.985 102.5325 636.4575 94.5 635.5125 c 0
 86.94 634.095 73.71 632.205 65.6775 630.7875 c 0
 53.865 628.8975 50.085 630.7875 43.47 642.6 c 0
 37.8 652.995 31.6575 656.775 22.68 656.775 c 0
 10.8675 656.775 0 667.6425 0 679.9275 c 0
 0 688.4325 24.57 713.9475 39.69 720.5625 c 0
198.45 420.525 m 0
 198.45 423.36 196.56 425.25 193.725 425.25 c 0
 191.3625 425.25 189 423.36 189 420.525 c 0
 189 418.1625 191.3625 415.8 193.725 415.8 c 0
 196.56 415.8 198.45 418.1625 198.45 420.525 c 0
54.3375 125.2125 m 0
 87.885 137.025 124.74 133.245 143.64 115.7625 c 0
 150.7275 109.1475 156.87 95.445 160.65 78.9075 c 0
 165.375 56.2275 164.9025 50.5575 157.3425 34.965 c 0
 140.3325 0 94.9725 -9.9225 49.14 11.8125 c 0
 22.68 24.57 9.45 41.58 9.45 63.315 c 0
 9.45 90.2475 27.8775 115.7625 54.3375 125.2125 c 0
EndSplineSet
Validated: 524321
EndChar

StartChar: period
Encoding: 46 46 50
Width: 339
VWidth: 0
Flags: HW
LayerCount: 2
Fore
SplineSet
73.71 190.89 m 0
 100.6425 199.395 122.85 197.0325 148.365 182.8575 c 0
 180.0225 165.375 186.6375 152.145 188.055 101.5875 c 2
 189.945 57.645 l 1
 169.155 34.965 l 2
 144.585 8.0325 126.63 0 92.1375 0 c 0
 33.5475 0 0 36.3825 0 99.225 c 0
 0 123.795 2.3625 131.355 13.7025 148.365 c 0
 30.24 172.4625 42.525 180.9675 73.71 190.89 c 0
EndSplineSet
Validated: 524321
EndChar

StartChar: comma
Encoding: 44 44 51
Width: 419
VWidth: 0
Flags: HW
LayerCount: 2
Fore
SplineSet
104.895 354.8475 m 0
 113.4 356.7375 134.19 358.155 151.2 357.21 c 0
 176.715 356.265 186.6375 353.43 208.845 339.7275 c 0
 258.93 309.015 269.325 286.335 269.325 211.68 c 0
 269.325 154.5075 264.6 135.6075 239.5575 94.0275 c 0
 230.58 78.435 214.515 63.7875 183.33 42.525 c 0
 136.5525 9.9225 123.3225 5.67 56.7 1.4175 c 0
 18.9 -0.945 9.9225 3.3075 2.835 25.9875 c 0
 -1.89 42.9975 18.9 71.82 47.7225 87.4125 c 0
 79.38 104.895 112.9275 128.0475 124.2675 140.805 c 0
 132.3 149.31 132.3 152.145 126.1575 179.0775 c 0
 119.07 208.845 107.73 226.8 95.9175 226.8 c 0
 87.4125 226.8 66.15 240.5025 55.755 252.7875 c 0
 46.305 264.1275 48.6675 290.5875 61.425 316.575 c 0
 72.2925 338.31 85.5225 349.65 104.895 354.8475 c 0
EndSplineSet
Validated: 524321
EndChar

StartChar: colon
Encoding: 58 58 52
Width: 320
VWidth: 0
Flags: HW
LayerCount: 2
Fore
SplineSet
59.0625 459.27 m 0
 88.83 469.1925 103.4775 469.665 123.3225 461.16 c 0
 154.035 448.4025 170.1 421.9425 170.1 384.615 c 0
 170.1 359.5725 152.145 333.585 123.795 317.52 c 0
 103.005 306.18 79.38 308.5425 46.7775 326.4975 c 0
 11.34 346.3425 2.3625 384.1425 23.625 427.6125 c 0
 34.02 448.4025 38.2725 452.1825 59.0625 459.27 c 0
53.865 167.265 m 0
 72.2925 176.2425 77.9625 176.715 107.2575 167.7375 c 0
 152.145 154.5075 170.1 130.41 170.1 84.105 c 0
 170.1 50.085 161.595 32.6025 136.08 14.175 c 0
 120.4875 2.835 111.9825 0 91.665 0 c 0
 57.645 0 46.305 5.1975 28.8225 29.295 c 0
 -12.7575 85.5225 -2.835 139.3875 53.865 167.265 c 0
EndSplineSet
Validated: 524321
EndChar

StartChar: semicolon
Encoding: 59 59 53
Width: 376
VWidth: 0
Flags: HW
LayerCount: 2
Fore
SplineSet
82.6875 621.81 m 0
 115.29 639.765 133.245 641.655 146.475 628.425 c 0
 151.6725 623.2275 160.1775 618.975 164.9025 618.975 c 0
 176.2425 618.975 203.175 593.9325 215.46 573.1425 c 0
 223.02 559.44 223.4925 554.715 218.295 530.6175 c 0
 211.68 498.96 196.0875 482.4225 161.1225 470.1375 c 0
 140.805 463.5225 139.3875 463.5225 113.8725 474.8625 c 0
 99.225 481.4775 83.6325 489.0375 79.38 491.4 c 0
 74.655 494.235 65.6775 496.125 59.535 496.125 c 0
 52.4475 496.125 45.36 500.85 40.1625 508.41 c 0
 33.5475 518.805 33.075 523.53 37.8 540.54 c 0
 40.635 550.935 45.8325 570.3075 48.6675 583.065 c 0
 53.865 604.8 56.2275 607.1625 82.6875 621.81 c 0
61.425 322.7175 m 0
 76.545 328.3875 143.64 325.08 154.035 318.465 c 0
 168.6825 308.5425 203.175 274.995 203.175 270.27 c 0
 203.175 268.38 207.9 257.04 213.57 245.2275 c 0
 226.3275 220.6575 226.8 190.89 216.8775 131.355 c 0
 210.735 94.5 208.3725 87.885 191.835 70.875 c 0
 181.9125 60.48 163.0125 46.7775 149.7825 40.635 c 0
 136.08 34.4925 117.18 22.68 106.785 14.6475 c 0
 90.2475 1.4175 85.05 0 57.1725 0 c 0
 18.4275 0.4725 2.835 9.9225 3.78 33.5475 c 0
 4.2525 53.865 28.35 75.1275 51.03 75.6 c 0
 69.4575 75.6 95.445 85.995 108.2025 97.8075 c 0
 112.9275 102.5325 118.125 113.8725 119.5425 122.85 c 0
 120.96 131.8275 123.3225 143.64 124.74 148.8375 c 0
 128.9925 162.0675 82.215 211.2075 63.315 213.57 c 0
 48.6675 214.9875 25.9875 243.3375 22.2075 264.6 c 0
 18.4275 283.0275 39.69 314.685 61.425 322.7175 c 0
EndSplineSet
Validated: 524321
EndChar

StartChar: quotesingle
Encoding: 39 39 54
Width: 339
VWidth: 0
Flags: HW
LayerCount: 2
Fore
SplineSet
63.315 292.95 m 0
 80.325 300.0375 104.895 298.1475 124.74 288.225 c 0
 175.2975 263.1825 190.89 229.1625 188.055 150.7275 c 0
 186.6375 106.785 185.22 98.7525 174.825 83.16 c 0
 168.21 73.71 155.4525 61.8975 146.0025 57.1725 c 0
 136.08 51.975 115.7625 38.2725 99.6975 25.9875 c 0
 73.71 6.1425 68.04 3.78 37.8 1.4175 c 0
 19.3725 0 4.725 0.4725 4.725 2.835 c 0
 4.725 5.1975 3.3075 11.34 1.89 17.01 c 0
 -0.945 28.35 14.175 39.2175 52.92 54.3375 c 0
 83.16 65.6775 88.3575 75.1275 87.4125 116.7075 c 0
 86.4675 143.64 83.6325 154.98 73.71 171.99 c 0
 59.535 196.0875 54.3375 200.34 38.2725 200.34 c 0
 28.8225 200.8125 25.515 204.12 22.68 217.35 c 0
 20.79 226.3275 20.3175 239.5575 21.735 247.1175 c 0
 24.57 261.2925 47.7225 286.8075 63.315 292.95 c 0
EndSplineSet
Validated: 524321
EndChar

StartChar: ampersand
Encoding: 38 38 55
Width: 877
VWidth: 0
Flags: HW
LayerCount: 2
Fore
SplineSet
205.5375 741.825 m 0
 238.6125 747.9675 248.535 747.0225 266.49 734.7375 c 0
 275.94 728.1225 287.28 722.925 291.06 722.925 c 0
 294.84 722.925 308.07 717.7275 320.355 711.1125 c 0
 332.64 704.4975 345.87 699.3 349.65 699.3 c 0
 353.43 699.3 365.715 691.2675 376.11 681.345 c 0
 393.5925 665.7525 395.955 661.0275 398.79 637.4025 c 0
 400.68 617.5575 399.2625 603.855 392.6475 584.4825 c 0
 383.67 558.495 380.3625 553.2975 362.4075 533.4525 c 0
 357.6825 528.255 352.0125 518.805 349.65 512.19 c 0
 345.3975 500.85 343.035 500.3775 321.7725 502.74 c 0
 292.4775 506.0475 281.61 497.07 298.1475 483.3675 c 0
 303.8175 478.6425 312.795 470.61 318.465 465.4125 c 0
 324.135 460.215 330.75 455.9625 333.1125 455.49 c 0
 339.255 455.0175 411.075 384.1425 411.075 378 c 0
 411.075 368.0775 437.535 349.65 456.435 346.815 c 0
 480.06 343.5075 499.905 352.9575 512.19 373.7475 c 0
 516.915 381.3075 522.1125 387.45 524.9475 387.45 c 0
 527.31 387.45 536.76 403.515 546.21 422.8875 c 0
 568.89 471.0825 567.945 493.7625 541.485 508.41 c 0
 519.2775 520.695 513.6075 529.6725 517.3875 544.7925 c 0
 520.2225 554.715 525.42 557.55 556.605 564.165 c 0
 576.45 568.4175 606.69 571.725 623.7 571.2525 c 0
 650.16 570.78 655.83 569.3625 666.6975 558.495 c 0
 673.785 551.4075 685.125 541.0125 691.74 535.3425 c 2
 704.4975 524.475 l 1
 674.73 489.0375 l 2
 656.775 467.775 641.1825 453.6 635.5125 453.6 c 0
 626.535 453.1275 596.295 411.075 576.9225 372.33 c 0
 573.615 365.715 564.165 352.9575 556.1325 344.4525 c 0
 536.2875 322.7175 529.2 302.8725 529.2 270.27 c 0
 529.2 248.535 531.09 240.5025 538.65 233.8875 c 0
 543.8475 229.1625 549.045 218.7675 550.935 210.735 c 0
 552.3525 202.23 561.8025 187.11 571.725 176.2425 c 0
 588.2625 157.815 591.0975 156.87 605.745 160.65 c 0
 614.25 162.54 631.7325 166.7925 644.9625 170.1 c 0
 657.72 172.935 675.675 178.605 684.6525 182.8575 c 0
 700.7175 190.89 700.7175 190.89 713.9475 175.77 c 0
 732.375 155.4525 732.375 133.245 713.9475 106.785 c 0
 706.3875 95.9175 697.8825 78.435 695.0475 68.04 c 0
 687.4875 39.2175 675.675 31.185 644.9625 32.6025 c 0
 630.7875 33.075 609.9975 37.8 598.6575 42.525 c 0
 587.79 47.7225 568.89 52.92 557.55 54.81 c 0
 527.31 59.0625 509.8275 72.765 495.18 103.4775 c 0
 481.005 132.3 463.5225 146.475 439.8975 146.475 c 0
 423.36 146.475 411.5475 135.6075 392.175 101.115 c 0
 379.4175 78.9075 346.3425 45.36 313.2675 20.3175 c 0
 289.6425 2.835 184.7475 -6.615 146.9475 5.1975 c 0
 117.18 14.6475 73.71 34.965 62.8425 44.415 c 0
 56.7 49.14 51.03 58.1175 49.14 63.315 c 0
 47.7225 68.985 38.745 84.5775 29.295 98.7525 c 0
 15.5925 120.015 13.7025 125.685 18.4275 132.7725 c 0
 25.515 145.0575 25.0425 158.76 16.065 172.4625 c 0
 11.8125 179.0775 7.0875 203.175 4.2525 232.47 c 0
 -2.3625 304.29 1.4175 316.575 48.6675 366.1875 c 0
 91.1925 411.5475 126.63 439.425 140.805 439.425 c 0
 146.475 439.425 152.145 441.7875 153.5625 444.15 c 0
 154.98 446.985 160.65 448.875 166.32 448.875 c 0
 174.3525 448.875 175.2975 450.765 172.4625 461.6325 c 0
 171.045 468.72 165.375 480.06 160.65 487.1475 c 0
 144.585 508.8825 99.225 524.475 99.225 507.9375 c 0
 99.225 495.18 83.16 500.3775 71.82 516.915 c 0
 57.1725 538.1775 51.975 558.9675 51.975 593.9325 c 0
 51.975 618.975 54.3375 627.0075 70.875 655.83 c 0
 90.72 690.3225 129.465 729.54 139.3875 725.76 c 0
 142.695 724.815 154.5075 727.1775 165.8475 730.9575 c 0
 177.1875 735.21 195.1425 739.935 205.5375 741.825 c 0
195.615 662.9175 m 0
 198.45 669.06 197.0325 670.95 189.4725 670.95 c 0
 175.77 670.95 168.21 654.4125 174.3525 638.82 c 0
 176.715 631.7325 180.495 609.525 182.385 589.2075 c 0
 184.7475 560.8575 187.11 551.4075 193.2525 549.5175 c 0
 197.505 548.5725 204.5925 545.265 208.845 542.9025 c 0
 220.185 537.2325 258.4575 537.2325 269.7975 543.375 c 0
 274.5225 546.21 278.775 551.88 278.775 555.66 c 0
 278.775 559.9125 282.555 569.3625 286.8075 576.9225 c 0
 293.895 588.735 294.3675 592.515 288.6975 606.2175 c 0
 284.9175 614.25 281.1375 631.7325 279.2475 644.9625 c 0
 277.3575 660.555 274.05 669.06 269.325 669.5325 c 0
 259.875 670.95 235.305 637.875 237.6675 627.48 c 0
 239.085 623.2275 237.195 617.085 233.415 613.7775 c 0
 229.635 610.9425 226.8 605.2725 226.8 601.965 c 0
 226.8 594.8775 218.295 593.46 209.79 599.13 c 0
 196.0875 608.1075 188.055 644.9625 195.615 662.9175 c 0
203.175 425.25 m 0
 203.175 428.085 202.23 429.975 201.285 429.975 c 0
 199.8675 429.975 197.505 428.085 196.0875 425.25 c 0
 194.67 422.8875 195.615 420.525 197.9775 420.525 c 0
 200.8125 420.525 203.175 422.8875 203.175 425.25 c 0
224.4375 365.715 m 0
 198.45 377.055 173.88 375.6375 161.595 362.4075 c 0
 155.925 356.265 151.2 348.2325 151.2 344.4525 c 0
 151.2 335.9475 123.795 292.95 118.125 292.95 c 0
 116.235 292.95 111.9825 287.28 109.1475 280.1925 c 0
 101.115 259.875 109.1475 220.6575 126.1575 199.395 c 0
 133.7175 189.945 146.0025 172.935 152.6175 162.0675 c 0
 167.7375 137.97 181.44 133.245 245.7 130.41 c 2
 290.5875 128.0475 l 1
 337.8375 150.7275 l 2
 383.1975 172.4625 385.56 174.3525 395.955 197.0325 c 0
 401.625 210.2625 406.35 229.635 406.35 242.3925 c 0
 406.35 261.2925 404.9325 264.1275 395.955 265.545 c 0
 387.45 266.49 385.56 269.7975 386.0325 278.775 c 0
 386.505 285.39 386.0325 287.7525 384.615 284.9175 c 0
 379.89 274.5225 373.275 277.83 336.42 309.4875 c 0
 317.0475 326.4975 298.1475 340.2 294.3675 340.2 c 0
 291.06 340.2 288.225 342.09 288.225 344.4525 c 0
 288.225 355.7925 272.6325 363.825 257.985 360.99 c 0
 248.535 359.5725 235.7775 360.99 224.4375 365.715 c 0
EndSplineSet
Validated: 524321
EndChar

StartChar: uni0080
Encoding: 128 128 56
Width: 622
VWidth: 0
Flags: HW
LayerCount: 2
Fore
SplineSet
320.355 810.3375 m 0
 322.245 812.2275 346.815 812.2275 375.165 810.81 c 0
 416.2725 807.975 429.5025 805.6125 442.26 797.1075 c 0
 471.0825 778.2075 475.8075 750.33 453.6 727.65 c 0
 446.04 719.6175 436.1175 707.805 431.865 701.6625 c 0
 425.7225 692.2125 420.0525 689.85 403.9875 689.85 c 0
 392.175 689.85 381.3075 692.685 378.4725 696.465 c 0
 375.165 700.245 354.8475 709.2225 333.1125 715.8375 c 0
 293.4225 728.595 266.49 729.54 223.02 720.5625 c 0
 203.6475 716.31 174.825 683.7075 174.825 665.7525 c 0
 174.825 655.83 171.045 651.5775 158.2875 645.435 c 0
 143.64 638.3475 142.2225 635.985 145.0575 624.645 c 0
 151.6725 601.965 147.8925 503.2125 139.86 475.335 c 0
 136.5525 464.94 137.4975 460.6875 143.64 457.38 c 0
 150.255 453.6 150.7275 443.6775 148.8375 369.495 c 0
 146.475 301.9275 144.585 284.445 138.4425 277.83 c 0
 134.19 273.105 131.355 263.655 131.8275 256.5675 c 0
 132.3 249.0075 133.245 227.2725 133.7175 207.9 c 0
 134.6625 188.5275 137.97 167.265 141.2775 161.1225 c 0
 145.0575 154.5075 146.475 143.1675 144.585 133.245 c 0
 141.75 114.8175 155.925 85.05 167.7375 85.05 c 0
 171.5175 85.05 175.2975 81.27 177.1875 76.545 c 0
 178.605 71.3475 185.22 65.205 191.3625 62.37 c 0
 206.01 55.755 206.4825 46.305 192.3075 40.1625 c 0
 186.6375 37.3275 181.44 30.7125 180.495 25.0425 c 0
 178.605 10.8675 171.5175 6.615 144.585 2.835 c 0
 121.905 0 121.905 0 124.74 11.8125 c 0
 127.1025 20.79 124.74 26.46 116.235 34.4925 c 0
 89.3025 59.0625 82.6875 62.37 87.4125 47.7225 c 0
 88.83 42.0525 87.4125 37.8 82.6875 35.91 c 0
 78.9075 34.4925 75.6 28.35 75.6 22.2075 c 0
 75.6 5.1975 66.6225 0 36.855 0 c 0
 15.12 0 8.9775 1.89 4.725 8.9775 c 0
 -3.78 25.0425 -0.4725 37.3275 16.5375 55.755 c 0
 39.2175 81.27 52.92 138.915 51.975 207.9 c 0
 51.975 235.305 52.92 278.3025 54.81 303.8175 c 0
 57.1725 344.925 56.7 351.54 47.7225 366.66 c 0
 42.0525 375.6375 37.8 386.505 37.8 390.7575 c 0
 37.8 394.5375 34.4925 407.7675 30.24 420.0525 c 0
 22.2075 441.7875 22.2075 442.26 35.4375 467.775 c 0
 42.525 481.95 51.5025 497.5425 55.755 502.2675 c 0
 59.535 506.52 64.7325 522.1125 66.6225 536.2875 c 0
 68.5125 550.4625 74.655 571.725 79.8525 582.5925 c 0
 85.5225 593.9325 89.775 606.69 89.775 611.415 c 0
 89.775 631.26 102.06 658.665 118.5975 675.675 c 0
 128.0475 685.5975 137.4975 698.8275 139.3875 704.4975 c 0
 143.64 718.6725 167.7375 741.3525 186.6375 749.385 c 0
 194.1975 752.6925 207.4275 761.67 215.46 769.7025 c 0
 234.36 788.6025 267.435 803.25 295.3125 805.14 c 0
 307.125 806.085 318.465 808.4475 320.355 810.3375 c 0
403.515 475.335 m 0
 425.7225 488.0925 432.81 489.0375 438.0075 481.005 c 0
 441.315 474.8625 443.6775 395.01 445.5675 229.1625 c 0
 446.5125 140.3325 446.5125 138.915 459.7425 117.18 c 0
 470.61 98.28 472.5 90.2475 472.5 57.645 c 0
 472.5 12.7575 474.39 14.175 411.5475 11.8125 c 0
 387.45 10.8675 359.5725 8.9775 350.1225 7.56 c 0
 329.805 4.2525 323.19 7.56 318.9375 24.0975 c 0
 316.575 33.5475 319.8825 41.1075 332.64 58.1175 c 0
 342.09 70.4025 349.65 83.16 349.65 86.4675 c 0
 349.65 89.775 355.32 100.6425 362.4075 111.0375 c 0
 374.22 128.52 375.6375 134.19 376.5825 179.55 c 0
 377.055 209.79 375.165 238.14 370.9125 252.7875 c 0
 367.605 266.0175 362.88 295.3125 360.99 318.465 c 0
 357.21 369.0225 350.595 378 319.41 378 c 0
 302.4 378 296.73 380.3625 288.6975 390.285 c 0
 276.885 405.405 276.885 407.7675 285.8625 427.14 c 0
 292.005 439.425 297.675 443.205 322.7175 450.2925 c 0
 338.7825 455.0175 359.1 460.215 368.0775 461.6325 c 0
 376.5825 463.05 392.6475 469.1925 403.515 475.335 c 0
EndSplineSet
Validated: 524321
EndChar

StartChar: uni0081
Encoding: 129 129 57
Width: 636
VWidth: 0
Flags: HW
LayerCount: 2
Fore
SplineSet
222.075 798.525 m 0
 253.26 809.3925 264.1275 810.81 309.4875 809.3925 c 0
 338.31 808.92 369.9675 806.085 380.3625 803.7225 c 0
 392.175 800.8875 400.68 800.415 403.515 803.25 c 0
 409.6575 809.3925 415.8 809.3925 415.8 803.25 c 0
 415.8 800.8875 413.91 798.525 411.075 798.525 c 0
 408.7125 798.525 402.0975 794.745 397.3725 790.4925 c 0
 390.285 784.8225 388.8675 780.57 392.6475 773.955 c 0
 397.845 764.0325 406.35 762.615 406.35 772.065 c 0
 406.35 777.735 429.5025 796.635 431.865 792.855 c 0
 432.3375 791.91 435.645 781.0425 438.48 767.8125 c 0
 444.15 743.715 444.15 738.99 435.1725 706.3875 c 0
 432.3375 695.0475 431.865 678.0375 433.755 663.8625 c 0
 440.37 622.755 440.8425 495.6525 434.2275 471.0825 c 0
 429.975 453.1275 429.975 445.5675 434.7 435.645 c 0
 440.8425 421.47 448.4025 323.19 451.2375 219.7125 c 0
 452.1825 183.33 455.0175 143.1675 457.8525 130.41 c 0
 461.16 118.125 462.105 103.95 460.6875 99.225 c 0
 459.27 94.9725 462.5775 85.995 467.775 78.9075 c 0
 472.9725 72.2925 477.225 63.7875 477.225 60.0075 c 0
 477.225 55.755 479.5875 51.03 481.95 49.6125 c 0
 484.785 48.195 486.675 40.635 486.675 33.5475 c 0
 486.675 12.285 461.6325 3.78 408.7125 6.615 c 0
 320.8275 11.8125 311.85 16.5375 332.64 46.7775 c 0
 344.925 65.205 359.5725 126.63 360.045 164.43 c 0
 360.5175 176.715 360.045 218.7675 359.5725 257.5125 c 0
 358.6275 296.73 358.155 346.3425 358.6275 368.55 c 0
 358.6275 418.1625 357.6825 439.8975 350.1225 538.65 c 0
 344.4525 621.3375 337.8375 660.555 327.4425 681.8175 c 0
 319.41 697.8825 285.8625 722.925 272.16 722.925 c 0
 266.49 722.925 257.04 726.2325 251.37 730.485 c 0
 241.92 737.1 238.14 736.6275 204.12 725.2875 c 0
 157.815 709.2225 154.5075 707.3325 143.64 691.2675 c 0
 137.4975 681.345 134.19 664.8075 131.8275 628.425 c 0
 129.9375 601.02 126.1575 558.495 123.3225 533.925 c 0
 120.015 509.355 119.07 475.335 120.4875 458.325 c 0
 121.905 441.315 124.2675 402.0975 125.685 370.9125 c 0
 127.1025 339.7275 128.9925 298.1475 130.41 278.775 c 0
 131.355 259.4025 133.245 226.3275 134.19 205.5375 c 0
 137.025 137.97 142.2225 92.61 148.8375 80.325 c 0
 152.6175 73.2375 164.9025 58.59 177.1875 46.7775 c 0
 196.0875 28.35 197.9775 24.57 192.78 17.4825 c 0
 180.9675 1.89 71.82 -6.1425 33.075 6.1425 c 0
 15.12 11.34 14.175 12.7575 17.01 25.9875 c 0
 18.9 33.5475 23.625 42.525 27.405 45.36 c 0
 51.03 62.8425 50.5575 329.805 26.9325 365.2425 c 0
 23.1525 370.9125 15.5925 380.3625 10.395 386.505 c 0
 -0.945 399.2625 0.4725 408.24 19.3725 445.095 c 0
 30.7125 466.3575 35.91 487.62 45.36 550.935 c 0
 56.2275 624.645 58.1175 631.7325 76.545 663.39 c 0
 97.335 699.7725 147.42 758.835 171.5175 775.845 c 0
 179.55 781.9875 202.23 791.91 222.075 798.525 c 0
EndSplineSet
Validated: 524321
EndChar

StartChar: longs
Encoding: 130 383 58
Width: 542
VWidth: 0
Flags: HW
LayerCount: 2
Fore
SplineSet
266.9625 776.79 m 0
 284.445 781.0425 347.76 772.5375 358.155 764.505 c 0
 360.99 761.67 363.825 755.055 363.825 749.385 c 0
 363.825 743.715 367.1325 734.7375 370.9125 729.54 c 0
 381.3075 715.8375 379.4175 700.7175 366.1875 691.74 c 0
 355.32 684.6525 352.9575 684.6525 332.1675 692.685 c 0
 319.8825 696.9375 307.125 702.6075 303.8175 704.97 c 0
 295.785 711.1125 212.625 704.025 193.725 695.52 c 0
 184.7475 691.2675 173.4075 687.015 168.6825 685.125 c 0
 163.485 683.7075 154.98 670.95 148.365 654.4125 c 0
 136.08 624.1725 135.135 606.2175 138.4425 439.425 c 0
 139.3875 389.8125 137.97 357.6825 133.7175 339.7275 c 0
 128.0475 316.575 128.52 308.07 137.025 266.9625 c 0
 144.1125 230.1075 145.0575 215.9325 141.2775 198.9225 c 0
 135.6075 173.88 139.3875 131.8275 149.31 108.2025 c 0
 153.5625 99.225 167.265 83.16 180.0225 72.765 c 0
 192.78 62.8425 204.5925 50.5575 206.01 45.36 c 0
 210.2625 33.075 198.9225 14.175 187.11 14.175 c 0
 181.44 14.175 172.935 10.8675 168.21 7.0875 c 0
 161.1225 1.4175 143.1675 0 91.1925 0 c 0
 24.57 0 23.625 0 16.065 11.8125 c 0
 6.1425 27.405 10.395 42.9975 29.7675 63.7875 c 0
 53.3925 88.83 58.1175 114.8175 58.59 222.075 c 0
 59.0625 309.015 58.59 315.1575 48.195 334.53 c 0
 42.525 345.87 37.8 357.21 37.8 360.5175 c 0
 37.8 363.3525 28.8225 374.6925 17.955 386.0325 c 2
 -1.89 406.35 l 1
 9.45 426.195 l 2
 15.5925 437.535 25.515 453.1275 31.6575 461.16 c 0
 37.8 469.1925 42.525 481.005 42.525 487.62 c 0
 42.525 494.235 45.8325 508.8825 49.6125 519.75 c 0
 53.3925 530.6175 56.7 544.32 56.7 549.99 c 0
 56.7 555.66 60.9525 569.3625 66.15 580.23 c 0
 71.3475 590.625 75.6 602.91 75.6 607.1625 c 0
 75.6 611.415 84.5775 624.645 95.9175 636.93 c 0
 107.2575 649.215 120.96 665.7525 126.63 674.2575 c 0
 132.7725 682.29 141.2775 690.795 146.475 692.2125 c 0
 151.6725 694.1025 155.925 698.355 155.925 701.6625 c 0
 155.925 705.4425 161.595 712.0575 168.21 716.7825 c 0
 174.825 721.5075 189.4725 734.265 200.8125 745.1325 c 0
 212.625 756.4725 229.1625 766.8675 239.5575 769.7025 c 0
 249.48 772.065 261.765 775.3725 266.9625 776.79 c 0
378.4725 365.2425 m 0
 381.3075 369.495 385.0875 372.33 387.9225 370.9125 c 0
 392.6475 367.605 394.065 62.37 389.34 50.085 c 0
 384.1425 36.855 378 42.0525 378 59.535 c 0
 378 68.985 374.22 84.105 369.9675 93.555 c 0
 364.2975 105.84 363.3525 111.0375 367.605 112.455 c 0
 374.6925 114.8175 375.165 149.7825 368.0775 152.145 c 0
 360.045 154.98 359.1 193.725 366.66 197.0325 c 0
 375.165 200.34 375.165 223.965 366.66 231.0525 c 0
 361.935 235.305 360.5175 248.0625 360.99 281.61 c 0
 361.4625 306.18 360.045 327.915 358.155 328.86 c 0
 352.485 332.64 353.43 362.88 359.5725 366.66 c 0
 362.4075 368.0775 366.66 366.66 369.0225 363.3525 c 0
 372.8025 357.6825 374.22 358.155 378.4725 365.2425 c 0
373.275 333.1125 m 0
 373.275 336.8925 371.385 340.2 368.55 340.2 c 0
 366.1875 340.2 363.825 336.8925 363.825 333.1125 c 0
 363.825 329.3325 366.1875 326.025 368.55 326.025 c 0
 371.385 326.025 373.275 329.3325 373.275 333.1125 c 0
EndSplineSet
Validated: 524321
EndChar

StartChar: uni0083
Encoding: 131 131 59
Width: 802
VWidth: 0
Flags: HW
LayerCount: 2
Fore
SplineSet
498.96 852.8625 m 0
 510.7725 861.84 533.4525 861.84 543.8475 852.39 c 0
 549.99 846.72 555.66 846.2475 567.945 849.555 c 0
 593.9325 856.6425 615.6675 843.885 627.9525 813.645 c 0
 631.26 805.6125 636.93 796.1625 640.71 793.3275 c 0
 656.775 780.0975 641.1825 722.925 617.085 706.86 c 0
 603.855 698.355 591.57 703.5525 569.835 725.76 c 0
 556.1325 739.935 552.825 747.0225 552.825 761.67 c 0
 552.825 771.5925 550.935 779.625 548.5725 779.625 c 0
 546.21 779.625 537.2325 786.24 529.2 794.2725 c 0
 515.025 808.4475 513.135 808.92 485.2575 806.5575 c 0
 459.7425 804.195 454.545 802.305 443.205 788.13 c 0
 436.1175 779.625 428.085 765.45 424.7775 757.4175 c 0
 421.9425 748.9125 417.2175 741.825 414.3825 741.825 c 0
 411.075 741.825 403.515 731.43 397.3725 718.6725 c 0
 386.9775 696.465 386.505 692.685 391.23 653.4675 c 0
 394.065 630.7875 398.79 599.13 402.0975 584.01 c 0
 406.35 561.8025 406.35 550.4625 401.625 532.035 c 0
 393.12 495.18 389.8125 363.825 396.9 338.31 c 0
 401.625 321.3 401.625 310.4325 396.9 286.8075 c 0
 392.6475 264.1275 392.6475 251.8425 396.9 237.195 c 0
 399.735 226.3275 403.9875 195.615 406.35 168.6825 c 0
 408.7125 142.2225 414.3825 110.0925 418.635 97.8075 c 0
 429.5025 65.6775 424.7775 48.195 399.735 29.295 c 0
 381.78 15.5925 376.11 14.175 348.2325 14.175 c 0
 317.0475 14.175 316.575 14.175 296.73 35.91 c 0
 271.6875 62.8425 266.9625 70.875 273.105 75.1275 c 0
 280.1925 79.8525 311.85 122.3775 311.85 127.575 c 0
 311.85 130.41 315.1575 137.4975 319.41 144.1125 c 0
 324.6075 152.145 326.025 161.1225 323.6625 176.715 c 0
 321.7725 188.5275 318.465 198.45 316.1025 198.45 c 0
 313.74 198.45 311.85 213.0975 311.85 231.0525 c 0
 311.85 249.0075 309.015 272.16 305.235 282.555 c 0
 299.565 297.675 299.565 308.07 303.345 334.0575 c 2
 308.5425 366.66 l 1
 290.115 395.01 l 2
 276.885 414.855 268.38 422.8875 260.3475 423.36 c 0
 254.6775 423.8325 243.81 429.5025 237.195 436.1175 c 2
 224.91 448.4025 l 1
 236.7225 459.27 l 2
 244.2825 466.3575 252.7875 469.665 260.82 468.72 c 0
 267.9075 467.775 278.775 470.61 284.9175 474.8625 c 0
 299.565 484.3125 309.96 524.9475 304.29 550.935 c 0
 302.4 561.33 300.9825 572.67 301.455 576.45 c 0
 303.8175 597.24 303.345 652.995 300.0375 676.1475 c 0
 297.675 696.465 294.3675 703.08 286.8075 706.86 c 0
 279.2475 709.695 276.4125 715.365 276.4125 725.2875 c 0
 276.4125 744.66 261.765 747.0225 248.535 730.0125 c 0
 240.5025 720.09 234.36 717.255 219.7125 717.255 c 0
 209.3175 717.255 190.4175 713.0025 178.1325 707.805 c 0
 152.145 696.465 145.53 684.6525 134.6625 630.7875 c 0
 122.85 571.2525 121.905 558.9675 127.575 530.145 c 0
 132.3 506.52 132.3 499.905 125.685 487.62 c 0
 110.565 458.325 107.2575 428.5575 115.7625 394.5375 c 0
 121.4325 373.275 122.85 354.8475 120.96 338.31 c 0
 119.07 324.6075 120.015 300.0375 123.3225 283.0275 c 0
 126.1575 266.49 129.465 227.745 130.41 197.505 c 0
 132.3 132.7725 139.86 111.51 168.6825 94.0275 c 0
 178.605 88.3575 187.11 83.16 188.055 82.215 c 0
 189 81.7425 188.055 74.1825 186.6375 65.6775 c 0
 184.275 52.92 178.605 46.7775 160.1775 35.4375 c 0
 147.42 27.8775 137.025 19.845 137.025 17.955 c 0
 137.025 16.065 130.41 10.8675 121.905 6.615 c 0
 110.0925 0.4725 98.28 -0.4725 67.095 1.4175 c 0
 29.295 3.78 26.46 4.725 13.23 19.3725 c 0
 -0.4725 34.4925 -0.945 36.3825 1.4175 67.095 c 0
 3.3075 88.3575 8.505 108.675 16.5375 125.2125 c 0
 30.24 152.6175 30.24 161.1225 19.3725 217.35 c 0
 16.5375 231.9975 15.12 274.05 16.065 315.1575 c 0
 17.955 381.78 17.4825 387.9225 8.505 399.2625 c 0
 -2.835 413.91 -0.945 430.92 17.01 468.2475 c 0
 38.2725 511.7175 42.9975 528.7275 37.3275 539.595 c 0
 30.24 553.2975 35.4375 595.35 48.195 625.59 c 0
 60.0075 653.4675 79.38 674.2575 106.3125 687.96 c 0
 119.07 694.575 125.685 701.19 126.63 709.2225 c 0
 128.52 724.3425 137.4975 741.825 143.64 741.825 c 0
 146.0025 741.825 158.76 750.8025 171.99 761.67 c 0
 192.3075 779.1525 198.9225 781.9875 219.7125 782.46 c 0
 232.47 783.405 250.425 785.295 259.4025 787.185 c 0
 274.995 790.4925 275.4675 790.02 272.16 778.2075 c 0
 269.7975 768.7575 270.7425 765.45 275.94 765.45 c 0
 279.2475 765.45 283.5 761.1975 284.9175 756 c 0
 286.335 750.33 291.5325 746.55 297.675 746.55 c 0
 303.8175 746.55 309.015 750.33 310.4325 756 c 0
 312.3225 762.1425 317.0475 765.45 324.6075 765.45 c 0
 331.2225 765.45 343.98 769.7025 352.485 775.3725 c 0
 361.4625 780.57 370.44 783.8775 373.275 781.9875 c 0
 379.89 777.735 397.3725 788.13 415.3275 807.5025 c 0
 440.37 833.9625 458.7975 845.775 474.8625 845.775 c 0
 482.895 845.775 493.7625 849.0825 498.96 852.8625 c 0
321.3 731.9025 m 0
 321.3 734.7375 319.41 738.045 316.575 739.4625 c 0
 314.2125 740.88 311.85 738.99 311.85 735.21 c 0
 311.85 730.9575 314.2125 727.65 316.575 727.65 c 0
 319.41 727.65 321.3 729.54 321.3 731.9025 c 0
99.225 616.14 m 0
 99.225 624.645 96.39 626.0625 92.1375 619.4475 c 0
 90.72 617.085 91.665 613.7775 94.5 611.8875 c 0
 96.8625 610.47 99.225 612.36 99.225 616.14 c 0
42.525 222.075 m 0
 42.525 224.91 40.635 226.8 37.8 226.8 c 0
 35.4375 226.8 33.075 224.91 33.075 222.075 c 0
 33.075 219.7125 35.4375 217.35 37.8 217.35 c 0
 40.635 217.35 42.525 219.7125 42.525 222.075 c 0
635.5125 447.93 m 0
 638.3475 455.0175 639.2925 455.0175 645.435 446.5125 c 0
 651.5775 438.48 652.05 418.635 650.16 323.6625 c 0
 649.215 261.2925 648.27 208.3725 648.27 205.5375 c 0
 651.5775 122.85 651.5775 44.8875 648.27 41.58 c 0
 642.6 35.91 588.2625 86.4675 580.7025 105.3675 c 0
 577.395 113.4 572.67 121.905 569.835 123.795 c 0
 567.4725 125.2125 565.11 154.5075 564.6375 189.945 c 0
 564.165 224.4375 562.7475 269.7975 561.33 290.5875 c 0
 558.9675 323.6625 559.9125 328.86 567.4725 334.53 c 0
 572.67 337.8375 576.45 344.925 576.45 350.1225 c 0
 576.45 362.88 589.68 387.45 596.295 387.45 c 0
 603.855 387.45 623.7 406.8225 623.7 413.91 c 0
 623.7 416.745 627.0075 421.9425 630.7875 425.25 c 0
 634.5675 428.5575 636.4575 432.81 635.04 435.645 c 0
 633.6225 438.0075 633.6225 443.6775 635.5125 447.93 c 0
EndSplineSet
Validated: 524321
EndChar

StartChar: uni0084
Encoding: 132 132 60
Width: 669
VWidth: 0
Flags: HW
LayerCount: 2
Fore
SplineSet
226.8 775.845 m 0
 248.0625 785.7675 259.875 788.13 291.06 788.6025 c 0
 352.0125 789.5475 378 775.3725 421.9425 717.7275 c 0
 439.425 694.1025 443.205 657.72 432.81 599.6025 c 0
 426.6675 566.055 425.7225 551.88 429.5025 541.9575 c 0
 432.3375 534.3975 434.7 523.0575 434.7 515.97 c 0
 435.1725 499.4325 451.2375 463.05 458.7975 463.05 c 0
 461.6325 463.05 466.83 459.7425 470.1375 455.49 c 0
 472.9725 451.2375 483.3675 446.985 492.345 446.5125 c 0
 515.4975 445.095 519.75 441.315 519.75 423.36 c 0
 519.75 411.075 516.915 406.8225 506.9925 402.0975 c 0
 499.4325 398.3175 490.455 394.065 486.675 391.7025 c 0
 482.895 389.34 471.0825 382.725 460.215 377.5275 c 0
 449.82 371.8575 436.1175 360.5175 429.975 351.54 c 0
 419.1075 335.475 419.1075 333.585 422.415 262.2375 c 0
 424.7775 205.065 427.6125 184.275 434.7 167.265 c 0
 439.8975 155.4525 444.15 139.86 444.15 132.7725 c 0
 444.15 124.2675 450.765 112.9275 463.05 99.225 c 0
 473.445 87.885 481.95 75.1275 481.95 70.4025 c 0
 481.95 65.6775 484.3125 60.48 486.675 59.0625 c 0
 489.51 57.645 491.4 47.7225 491.4 37.3275 c 0
 491.4 20.3175 489.9825 17.955 474.8625 11.34 c 0
 439.8975 -2.835 389.8125 8.9775 362.88 38.2725 c 0
 344.925 57.645 341.145 68.04 349.1775 72.765 c 0
 351.0675 74.1825 354.375 84.105 356.265 94.9725 c 0
 358.6275 109.62 357.6825 116.7075 352.0125 122.3775 c 0
 346.3425 128.9925 345.87 133.245 350.595 145.53 c 0
 355.32 157.815 354.8475 165.8475 348.705 189.945 c 0
 343.5075 209.3175 342.09 221.6025 345.3975 227.2725 c 0
 347.76 231.9975 349.65 241.92 349.65 249.48 c 0
 349.65 257.04 352.9575 266.0175 356.7375 269.325 c 0
 360.5175 272.6325 362.4075 276.885 360.99 279.2475 c 0
 360.045 281.61 356.7375 300.51 354.375 321.7725 c 0
 348.705 372.33 347.2875 375.165 327.915 387.9225 c 0
 318.9375 394.065 310.4325 403.9875 309.015 409.6575 c 0
 307.5975 415.3275 303.345 420.9975 299.565 422.415 c 0
 287.7525 427.14 292.95 437.0625 312.795 446.5125 c 0
 327.4425 453.6 335.475 462.5775 347.76 485.73 c 0
 362.4075 512.19 363.825 518.805 363.825 553.2975 c 0
 363.825 611.415 352.9575 652.05 328.86 681.8175 c 0
 317.9925 695.0475 307.5975 710.1675 305.7075 714.8925 c 0
 303.345 720.5625 299.565 722.4525 291.5325 720.5625 c 0
 283.9725 718.6725 277.83 720.5625 272.16 727.1775 c 0
 266.9625 732.8475 260.82 737.1 258.4575 737.1 c 0
 255.6225 737.1 249.9525 740.4075 245.2275 744.66 c 0
 237.195 751.7475 235.7775 751.7475 222.075 739.935 c 0
 213.57 733.32 202.7025 727.65 197.0325 727.65 c 0
 182.8575 727.65 165.375 709.2225 165.375 694.575 c 0
 165.375 687.96 158.76 673.3125 150.255 661.9725 c 0
 142.2225 651.105 131.355 627.48 126.1575 610.47 c 0
 115.29 573.1425 110.0925 497.5425 117.6525 489.9825 c 0
 125.685 481.95 123.795 460.215 113.8725 441.315 c 0
 104.895 425.25 104.4225 416.2725 106.785 300.51 c 0
 109.62 139.3875 116.7075 93.555 142.2225 67.095 c 0
 150.255 58.59 158.76 51.975 160.65 51.975 c 0
 163.0125 51.975 169.155 44.415 175.2975 34.965 c 2
 185.6925 17.4825 l 1
 174.3525 8.9775 l 2
 164.43 1.4175 154.035 0 100.6425 0 c 0
 45.8325 0 35.91 1.4175 18.4275 9.9225 c 0
 0 19.845 -0.945 21.2625 1.89 37.3275 c 0
 8.9775 84.5775 10.8675 92.61 17.4825 100.17 c 0
 36.855 121.905 46.7775 317.9925 30.7125 350.1225 c 0
 26.9325 357.21 23.625 366.1875 23.625 369.9675 c 0
 23.625 373.7475 20.79 379.4175 17.01 382.2525 c 0
 -0.4725 396.9 4.725 453.6 23.625 453.6 c 0
 32.6025 453.6 47.25 485.73 47.25 506.52 c 0
 47.25 513.6075 52.4475 525.42 59.535 533.4525 c 0
 71.3475 547.6275 71.3475 548.1 64.26 569.3625 c 0
 60.0075 581.175 56.7 594.8775 56.7 599.6025 c 0
 56.7 612.8325 69.93 641.655 80.7975 652.5225 c 0
 85.995 657.72 89.3025 663.39 87.885 664.8075 c 0
 83.16 669.5325 98.28 692.2125 115.7625 706.3875 c 0
 125.2125 714.42 139.86 726.2325 147.8925 733.7925 c 0
 155.925 740.88 165.8475 746.55 170.1 746.55 c 0
 173.88 746.55 182.385 750.33 189 755.055 c 0
 195.1425 759.3075 212.1525 768.7575 226.8 775.845 c 0
EndSplineSet
Validated: 524321
EndChar

